<?xml version="1.0" encoding="UTF-8" standalone="no"?>
<!-- Created with Inkscape (http://www.inkscape.org/) -->

<svg
   xmlns:dc="http://purl.org/dc/elements/1.1/"
   xmlns:cc="http://creativecommons.org/ns#"
   xmlns:rdf="http://www.w3.org/1999/02/22-rdf-syntax-ns#"
   xmlns:svg="http://www.w3.org/2000/svg"
   xmlns="http://www.w3.org/2000/svg"
   xmlns:sodipodi="http://sodipodi.sourceforge.net/DTD/sodipodi-0.dtd"
   xmlns:inkscape="http://www.inkscape.org/namespaces/inkscape"
   width="312.90305"
   height="234.22768"
   id="svg3444"
   version="1.1"
   inkscape:version="0.48.4 r9939"
   sodipodi:docname="New document 4">
  <defs
     id="defs3446" />
  <sodipodi:namedview
     id="base"
     pagecolor="#ffffff"
     bordercolor="#666666"
     borderopacity="1.0"
     inkscape:pageopacity="0.0"
     inkscape:pageshadow="2"
     inkscape:zoom="1.4"
     inkscape:cx="273.15896"
     inkscape:cy="89.878166"
     inkscape:document-units="px"
     inkscape:current-layer="layer1"
     showgrid="false"
     fit-margin-top="2"
     fit-margin-left="2"
     fit-margin-bottom="2"
     fit-margin-right="2"
     inkscape:window-width="1920"
     inkscape:window-height="1028"
     inkscape:window-x="-8"
     inkscape:window-y="-8"
     inkscape:window-maximized="1" />
  <metadata
     id="metadata3449">
    <rdf:RDF>
      <cc:Work
         rdf:about="">
        <dc:format>image/svg+xml</dc:format>
        <dc:type
           rdf:resource="http://purl.org/dc/dcmitype/StillImage" />
        <dc:title></dc:title>
      </cc:Work>
    </rdf:RDF>
  </metadata>
  <g
     inkscape:label="Layer 1"
     inkscape:groupmode="layer"
     id="layer1"
     transform="translate(-64.977046,-743.81978)">
    <path
       inkscape:connector-curvature="0"
       d="m 297.86135,871.50245 74.30375,0 0,1.04 -74.30375,0 0,-1.04 z m 74.30375,0.52 -2.4525,-3.12125 6.1675,3.12125 -6.1675,3.12"
       style="fill:#010101;fill-opacity:1;fill-rule:nonzero;stroke:none"
       id="path24" />
    <path
       inkscape:connector-curvature="0"
       d="m 301.5751,872.02245 -118.88625,0"
       style="fill:none;stroke:#010101;stroke-width:1.08359754;stroke-linecap:butt;stroke-linejoin:round;stroke-miterlimit:10;stroke-opacity:1;stroke-dasharray:8.6688, 3.2507875;stroke-dashoffset:0"
       id="path26" />
    <path
       inkscape:connector-curvature="0"
       d="m 297.86135,872.54245 c 0,-0.22375 0,-0.52 0,-0.74375 0,-30.6875 -51.5675,-55.505 -115.1725,-55.505 -62.935,0 -114.205005,24.2975 -115.170005,54.61375"
       style="fill:none;stroke:#010101;stroke-width:1.08359754;stroke-linecap:butt;stroke-linejoin:round;stroke-miterlimit:10;stroke-opacity:1;stroke-dasharray:none"
       id="path28" />
    <path
       inkscape:connector-curvature="0"
       d="m 67.518845,870.5362 c 0,0.29625 0,0.52 0,0.8175 0,31.1325 51.566245,56.39625 115.170005,56.39625 62.93625,0 114.20625,-24.74375 115.1725,-55.505"
       style="fill:none;stroke:#010101;stroke-width:1.08359754;stroke-linecap:butt;stroke-linejoin:round;stroke-miterlimit:10;stroke-opacity:1;stroke-dasharray:none"
       id="path30" />
    <path
       inkscape:connector-curvature="0"
       d="m 131.04885,928.1212 -42.056255,45.54875 -0.74375,-0.74375 42.056245,-45.5475 0.74376,0.7425 z m -42.428755,45.1775 3.93875,0.2975 -6.465,2.45125 1.9325,-6.6875"
       style="fill:#010101;fill-opacity:1;fill-rule:nonzero;stroke:none"
       id="path32" />
    <path
       inkscape:connector-curvature="0"
       d="m 130.67634,927.74995 52.01251,-55.7275"
       style="fill:none;stroke:#010101;stroke-width:1.08359754;stroke-linecap:butt;stroke-linejoin:round;stroke-miterlimit:10;stroke-opacity:1;stroke-dasharray:8.6688, 3.2507875;stroke-dashoffset:0"
       id="path34" />
    <path
       inkscape:connector-curvature="0"
       d="m 182.9126,816.2937 0,-64.495 1.11375,0 0,64.495 -1.11375,0 z m 0.52,-64.495 -3.04625,2.52625 3.04625,-6.2425 3.12,6.2425"
       style="fill:#010101;fill-opacity:1;fill-rule:nonzero;stroke:none"
       id="path36" />
    <path
       inkscape:connector-curvature="0"
       d="m 182.46635,871.50245 119.18375,-54.1675 0.44625,0.965 -119.18375,54.2425 -0.44625,-1.04 z m 119.40625,-53.6475 -3.49125,-1.78375 6.91,0.2225 -4.38375,5.35"
       style="fill:#010101;fill-opacity:1;fill-rule:nonzero;stroke:none"
       id="path38" />
    <path
       inkscape:connector-curvature="0"
       d="m 305.29135,816.2937 0,55.72875"
       style="fill:none;stroke:#010101;stroke-width:1.08359754;stroke-linecap:butt;stroke-linejoin:round;stroke-miterlimit:10;stroke-opacity:1;stroke-dasharray:8.6688, 3.2507875, 1.0835975, 3.2507875;stroke-dashoffset:0"
       id="path40" />
    <path
       inkscape:connector-curvature="0"
       d="m 304.77135,816.2937 0,-37.15125 1.04,0 0,37.15125 -1.04,0 z m 0.52,-37.15125 -3.12125,2.45125 3.12125,-6.1675 3.12125,6.1675"
       style="fill:#010101;fill-opacity:1;fill-rule:nonzero;stroke:none"
       id="path42" />
    <path
       inkscape:connector-curvature="0"
       d="m 183.4326,816.2937 0,55.72875"
       style="fill:none;stroke:#010101;stroke-width:1.08359754;stroke-linecap:butt;stroke-linejoin:round;stroke-miterlimit:10;stroke-opacity:1;stroke-dasharray:8.6688, 3.2507875;stroke-dashoffset:0"
       id="path44" />
    <path
       inkscape:connector-curvature="0"
       d="m 182.3176,871.5762 119.70375,-94.29125 0.66875,0.89125 -119.70375,94.29125 -0.66875,-0.89125 z m 120.075,-93.84625 -3.86375,-0.89125 6.7625,-1.4125 -2.9725,6.2425"
       style="fill:#010101;fill-opacity:1;fill-rule:nonzero;stroke:none"
       id="path46" />
    <g
       id="g48"
       transform="matrix(1.25,0,0,-1.25,-172.8399,1629.4662)">
      <text
         transform="matrix(1,0,0,-1,272.059,698.687)"
         id="text50">
        <tspan
           style="font-size:15.87129974px;font-variant:normal;font-weight:bold;writing-mode:lr-tb;fill:#000000;fill-opacity:1;fill-rule:nonzero;stroke:none;font-family:Helvetica;-inkscape-font-specification:Helvetica-Bold"
           x="0"
           y="0"
           id="tspan52">x</tspan>
        <tspan
           style="font-size:15.87129974px;font-variant:normal;font-weight:bold;writing-mode:lr-tb;fill:#000000;fill-opacity:1;fill-rule:nonzero;stroke:none;font-family:Helvetica;-inkscape-font-specification:Helvetica-Bold"
           x="-70.2621"
           y="161.686"
           id="tspan54">y</tspan>
        <tspan
           style="font-size:15.87129974px;font-variant:normal;font-weight:bold;writing-mode:lr-tb;fill:#000000;fill-opacity:1;fill-rule:nonzero;stroke:none;font-family:Helvetica;-inkscape-font-specification:Helvetica-Bold"
           x="148.60789"
           y="108.1872"
           id="tspan56">z</tspan>
      </text>
      <text
         transform="matrix(1,0,0,-1,340.0024,659.0381)"
         id="text58">
        <tspan
           style="font-size:15.87129974px;font-variant:normal;font-weight:bold;writing-mode:lr-tb;fill:#000000;fill-opacity:1;fill-rule:nonzero;stroke:none;font-family:Times New Roman;-inkscape-font-specification:Times-Bold"
           x="0"
           y="0"
           id="tspan60">I</tspan>
        <tspan
           style="font-size:15.87129974px;font-variant:normal;font-weight:bold;writing-mode:lr-tb;fill:#000000;fill-opacity:1;fill-rule:nonzero;stroke:none;font-family:Times New Roman;-inkscape-font-specification:Times-Bold"
           x="48.268002"
           y="-8.9164104"
           id="tspan62">R</tspan>
        <tspan
           style="font-size:15.87129974px;font-variant:normal;font-weight:bold;writing-mode:lr-tb;fill:#000000;fill-opacity:1;fill-rule:nonzero;stroke:none;font-family:Times New Roman;-inkscape-font-specification:Times-Bold"
           x="28.2356"
           y="7.7276902"
           id="tspan64">J</tspan>
        <tspan
           style="font-size:15.87129974px;font-variant:normal;font-weight:bold;writing-mode:lr-tb;fill:#000000;fill-opacity:1;fill-rule:nonzero;stroke:none;font-family:Times New Roman;-inkscape-font-specification:Times-Bold"
           x="-19.318701 -6.9545445 -2.9718513 6.0635104"
           y="69.429688"
           sodipodi:role="line"
           id="tspan66">K =</tspan>
      </text>
    </g>
    <g
       id="g68"
       transform="matrix(1.25,0,0,-1.25,-172.8399,1629.4662)">
      <text
         transform="matrix(1,0,0,-1,350.049,589.549)"
         id="text70">
        <tspan
           style="font-size:15.87129974px;font-variant:normal;font-weight:normal;writing-mode:lr-tb;fill:#000000;fill-opacity:1;fill-rule:nonzero;stroke:#000000;stroke-width:0.05;stroke-linecap:round;stroke-linejoin:round;stroke-miterlimit:10;stroke-opacity:1;stroke-dasharray:none;font-family:Symbol;-inkscape-font-specification:Symbol"
           x="0"
           y="0"
           id="tspan72">Ω</tspan>
      </text>
    </g>
    <path
       inkscape:connector-curvature="0"
       d="m 183.9526,927.3787 c -13.22625,-1.115 -23.62875,-25.635 -23.62875,-55.505 0,-29.49875 10.105,-53.79625 23.10875,-55.50625"
       style="fill:none;stroke:#010101;stroke-width:0.30959499;stroke-linecap:round;stroke-linejoin:round;stroke-miterlimit:10;stroke-opacity:1;stroke-dasharray:none"
       id="path74" />
    <path
       inkscape:connector-curvature="0"
       d="m 183.50635,816.36745 c 13.22625,1.115 23.62875,25.63625 23.62875,55.50625 0,29.49875 -10.105,53.795 -23.10875,55.505"
       style="fill:none;stroke:#010101;stroke-width:0.30959499;stroke-linecap:round;stroke-linejoin:round;stroke-miterlimit:10;stroke-opacity:1;stroke-dasharray:0.9287925, 1.238395;stroke-dashoffset:0"
       id="path76" />
    <path
       inkscape:connector-curvature="0"
       d="m 204.16385,762.19995 0.8175,0.2975 0.6675,0.2975 0.595,0.2975 0.52,0.37125 0.37125,0.2975 0.37125,0.37125 0.2975,0.37125 c 0,0 0,0 0.075,0 l 0.14875,0.37125 0,0 0.14875,0.3725 0,0 0.0738,0.37125 0,0.0738 -0.0738,0.2975 c 0,0 0,0 0,0.075 l -0.075,0.29625 0,0 -0.14875,0.2975 -0.0737,0.075 -0.14875,0.2975 -0.2975,0.29625 -0.37125,0.2975 -0.37125,0.2975 -0.44625,0.29625 -0.52,0.2975 -0.52,0.22375 -0.595,0.29625 -0.66875,0.22375 -0.66875,0.2225 -0.66875,0.2225 -0.8175,0.22375 -0.7425,0.2225 -0.89125,0.2225 -0.8925,0.14875 -0.89125,0.2225 -0.96625,0.15 -0.96625,0.1475 -0.965,0.14875 -1.115,0.14875 -1.04,0.14875 -2.22875,0.14875 -2.30375,0.14875 -2.3775,0.14875 -4.97875,0 -2.3775,-0.14875 -2.30375,-0.14875 -2.22875,-0.14875 -1.04125,-0.14875 -1.04,-0.14875 -1.04,-0.14875 -0.96625,-0.1475 -0.965,-0.15 -0.8925,-0.2225 -0.89125,-0.14875 -0.81751,-0.2225 -0.8175,-0.2225 -0.7425,-0.22375 -0.7425,-0.2225 -0.67,-0.2225 -0.66875,-0.22375 -0.52,-0.29625 -0.59375,-0.22375 -0.44625,-0.2975 -0.445,-0.29625 -0.44625,-0.2975 -0.2975,-0.2975 -0.2975,-0.29625 -0.2225,-0.2975 0,-0.075 -0.14875,-0.2975 -0.075,0 -0.0738,-0.29625 c 0,-0.075 0,-0.075 0,-0.075 l 0,-0.2975 0,-0.0738 0,-0.2225 0.0738,-0.22375 c 0,-0.0738 0,-0.0738 0,-0.0738 l 0.075,-0.22375 0.14875,-0.2225 0.14875,-0.2975 0.2225,-0.2225 0.2225,-0.2225 0.2975,-0.2225 0.2975,-0.22375 0.2975,-0.2225 0.37125,-0.22375 0.37125,-0.2225 0.44625,-0.2225 0.445,-0.2225 0.52,-0.15 0.52125,-0.2225 c 0.0738,-0.0738 0.2225,0 0.29625,0.14875 0,0.0737 -0.0738,0.22375 -0.1475,0.2975 l -0.52,0.14875 -0.44625,0.2225 -0.44625,0.2225 -0.44625,0.14875 -0.37125,0.22375 -0.37125,0.2225 -0.2975,0.2225 -0.2225,0.14875 -0.2975,0.22375 -0.2225,0.2225 -0.14875,0.2225 -0.14875,0.2225 -0.075,0.14875 -0.0738,0.22375 0,0 -0.0738,0.2225 0,0.2225 0,-0.0738 0,0.2975 0.0738,0.2975 0,-0.075 0.14875,0.37125 0,-0.0738 0.2225,0.2975 0.22375,0.2975 0.29625,0.2225 0.3725,0.2975 0.445,0.2225 0.44625,0.2975 0.52,0.2225 0.595,0.2975 0.59375,0.2225 0.66875,0.2225 0.74375,0.22375 0.7425,0.2225 0.7425,0.2225 0.89251,0.22375 0.8175,0.14875 0.89125,0.2225 0.96625,0.14875 0.96625,0.14875 1.04,0.1475 1.04,0.15 1.04,0.0738 2.22875,0.2225 2.23,0.14875 2.45125,0.075 2.4525,0.0738 2.4525,-0.0738 2.3775,-0.075 2.30375,-0.14875 2.15375,-0.2225 1.115,-0.0738 1.04,-0.15 0.96625,-0.1475 0.96625,-0.14875 0.96625,-0.14875 0.89125,-0.2225 0.89125,-0.14875 0.8175,-0.22375 0.8175,-0.2225 0.74375,-0.2225 0.6675,-0.22375 0.66875,-0.2225 0.595,-0.2225 0.595,-0.2975 0.52,-0.2225 0.445,-0.22375 0.44625,-0.29625 0.37125,-0.2975 0.2975,-0.2225 0.2225,-0.2975 0.2225,-0.2975 0,0.0738 0.14875,-0.37125 0,0.075 0.075,-0.2975 0,-0.2975 0,0.0738 0,-0.37125 0,0.075 -0.075,-0.3725 0,0.075 -0.2225,-0.37125 0,0 -0.2225,-0.2975 -0.2975,-0.2975 -0.44625,-0.2975 -0.445,-0.2975 -0.595,-0.37125 -0.59375,-0.2225 -0.8175,-0.2975 c -0.14875,-0.0738 -0.22375,-0.14875 -0.14875,-0.29625 0,-0.15 0.14875,-0.22375 0.2975,-0.15 z m 0,2.155 -5.425,-3.49125 6.465,-0.075"
       style="fill:#010101;fill-opacity:1;fill-rule:nonzero;stroke:none"
       id="path78" />
    <path
       inkscape:connector-curvature="0"
       d="m 152.15009,849.7312 c -4.15999,0 -7.42999,3.34375 -7.42999,7.43 0,4.08625 3.26999,7.43 7.42999,7.43 4.08751,0 7.43126,-3.34375 7.43126,-7.43 0,-4.08625 -3.34376,-7.43 -7.43126,-7.43"
       style="fill:#800101;fill-opacity:1;fill-rule:evenodd;stroke:none"
       id="path80" />
    <path
       inkscape:connector-curvature="0"
       d="m 174.0701,907.76245 -0.89125,-1.635 0.96625,-0.52 0.89125,1.635 -0.96625,0.52 z m 2.8975,-2.30375 0.2975,6.91 -5.72125,-3.9375"
       style="fill:#800101;fill-opacity:1;fill-rule:nonzero;stroke:none"
       id="path82" />
    <path
       inkscape:connector-curvature="0"
       d="m 229.20385,923.29245 c 0.89125,14.1175 -1.9325,23.405 -7.87625,26.08 -13.6725,6.0925 -39.975,-23.10875 -58.70001,-65.165 -18.725,-42.05625 -22.81125,-81.065 -9.13875,-87.15875 7.50375,-3.34375 19.24376,3.93875 31.95001,19.84"
       style="fill:none;stroke:#800101;stroke-width:1.08359754;stroke-linecap:butt;stroke-linejoin:round;stroke-miterlimit:10;stroke-opacity:1;stroke-dasharray:4.3344, 3.2507875;stroke-dashoffset:0"
       id="path84" />
    <path
       inkscape:connector-curvature="0"
       d="m 305.29135,775.4262 -122.6025,0"
       style="fill:none;stroke:#010101;stroke-width:1.08359754;stroke-linecap:butt;stroke-linejoin:round;stroke-miterlimit:10;stroke-opacity:1;stroke-dasharray:8.6688, 3.2507875, 1.0835975, 3.2507875;stroke-dashoffset:0"
       id="path86" />
    <g
       id="g88"
       transform="matrix(1.25,0,0,-1.25,-172.8399,1629.4662)">
      <text
         transform="matrix(1,0,0,-1,287.752,656.066)"
         id="text90">
        <tspan
           style="font-size:15.87129974px;font-variant:normal;font-weight:bold;writing-mode:lr-tb;fill:#000000;fill-opacity:1;fill-rule:nonzero;stroke:none;font-family:Times New Roman;-inkscape-font-specification:Times-Bold"
           x="0"
           y="0"
           id="tspan92">M</tspan>
      </text>
    </g>
  </g>
</svg>
