<?xml version="1.0" encoding="UTF-8" standalone="no"?>
<!-- Created with Inkscape (http://www.inkscape.org/) -->

<svg
   xmlns:dc="http://purl.org/dc/elements/1.1/"
   xmlns:cc="http://creativecommons.org/ns#"
   xmlns:rdf="http://www.w3.org/1999/02/22-rdf-syntax-ns#"
   xmlns:svg="http://www.w3.org/2000/svg"
   xmlns="http://www.w3.org/2000/svg"
   xmlns:sodipodi="http://sodipodi.sourceforge.net/DTD/sodipodi-0.dtd"
   xmlns:inkscape="http://www.inkscape.org/namespaces/inkscape"
   id="svg2"
   version="1.1"
   inkscape:version="0.48.4 r9939"
   width="286"
   height="177"
   xml:space="preserve"
   sodipodi:docname="X.F.Wang_dissertation.pdf"><metadata
     id="metadata8"><rdf:RDF><cc:Work
         rdf:about=""><dc:format>image/svg+xml</dc:format><dc:type
           rdf:resource="http://purl.org/dc/dcmitype/StillImage" /><dc:title></dc:title></cc:Work></rdf:RDF></metadata><defs
     id="defs6"><clipPath
       clipPathUnits="userSpaceOnUse"
       id="clipPath18"><path
         d="m 1377.73,4855.35 3591.36,0 0,2693.52 -3591.36,0 0,-2693.52 z"
         clip-rule="evenodd"
         id="path20"
         inkscape:connector-curvature="0" /></clipPath></defs><sodipodi:namedview
     pagecolor="#ffffff"
     bordercolor="#666666"
     borderopacity="1"
     objecttolerance="10"
     gridtolerance="10"
     guidetolerance="10"
     inkscape:pageopacity="0"
     inkscape:pageshadow="2"
     inkscape:window-width="1600"
     inkscape:window-height="848"
     id="namedview4"
     showgrid="false"
     inkscape:zoom="2.6970053"
     inkscape:cx="175.4543"
     inkscape:cy="104.58634"
     inkscape:window-x="-8"
     inkscape:window-y="-8"
     inkscape:window-maximized="1"
     inkscape:current-layer="g128" /><g
     id="g10"
     inkscape:groupmode="layer"
     inkscape:label="X.F.Wang_dissertation"
     transform="matrix(1.25,0,0,-1.25,0,177)"><g
       id="g12"
       transform="scale(0.1,0.1)"><g
         id="g14"><g
           id="g16"
           clip-path="url(#clipPath18)"><path
             d="m 1377.13,4855.35 3591.96,0 0,2694.12 -3591.96,0 0,-2694.12 z"
             style="fill:#ffffff;fill-opacity:1;fill-rule:evenodd;stroke:none"
             id="path22"
             inkscape:connector-curvature="0" /></g></g><path
         d="m 584.58305,201.87436 1167.19005,0 0,808.05504 -1167.19005,0 0,-808.05504 z"
         style="fill:#c0c0c0;fill-opacity:1;fill-rule:evenodd;stroke:none"
         id="path24"
         inkscape:connector-curvature="0" /><path
         d="m 584.58305,201.87436 1167.19005,0 0,808.05504 -1167.19005,0 0,-808.05504 z"
         style="fill:none;stroke:#010101;stroke-width:8.72898006;stroke-linecap:round;stroke-linejoin:miter;stroke-miterlimit:8;stroke-opacity:1;stroke-dasharray:none"
         id="path26"
         inkscape:connector-curvature="0" /><path
         d="m 659.40305,1189.4944 c -107.74,0 -194.53,-86.79 -194.53,-194.53 l 0,-778.12004 c 0,-107.15 86.79,-194.54 194.53,-194.54 l 1077.41005,0 c 107.14,0 194.53,87.39 194.53,194.54 l 0,778.12004 c 0,107.74 -87.39,194.53 -194.53,194.53 l -1077.41005,0 z"
         style="fill:none;stroke:#010101;stroke-width:4.98797989;stroke-linecap:round;stroke-linejoin:round;stroke-miterlimit:10;stroke-opacity:1;stroke-dasharray:none"
         id="path28"
         inkscape:connector-curvature="0" /><path
         d="m 584.58305,980.0044 -119.71,-59.86"
         style="fill:none;stroke:#010101;stroke-width:6.23496008;stroke-linecap:butt;stroke-linejoin:round;stroke-miterlimit:10;stroke-opacity:1;stroke-dasharray:none"
         id="path30"
         inkscape:connector-curvature="0" /><path
         d="m 584.58305,231.80436 -119.71,59.85"
         style="fill:none;stroke:#010101;stroke-width:6.23496008;stroke-linecap:butt;stroke-linejoin:round;stroke-miterlimit:10;stroke-opacity:1;stroke-dasharray:none"
         id="path32"
         inkscape:connector-curvature="0" /><path
         d="m 790.48305,531.08436 957.69505,0 0,149.641 -957.69505,0 0,-149.641 z"
         style="fill:#ffffff;fill-opacity:1;fill-rule:evenodd;stroke:none"
         id="path34"
         inkscape:connector-curvature="0" /><path
         d="m 791.08305,531.08436 957.69505,0 0,149.641 -957.69505,0 0,-149.641 z"
         style="fill:none;stroke:#010101;stroke-width:7.48199987;stroke-linecap:butt;stroke-linejoin:miter;stroke-miterlimit:8;stroke-opacity:1;stroke-dasharray:59.856, 22.446;stroke-dashoffset:0"
         id="path36"
         inkscape:connector-curvature="0" /><path
         d="m 689.33305,739.38436 -20.95,0 -0.6,10.17 21.55,0 0,-10.17 z m -5.39,29.93 50.28,-24.54 -49.68,-25.14"
         style="fill:#ff0101;fill-opacity:1;fill-rule:nonzero;stroke:none"
         id="path52"
         inkscape:connector-curvature="0" /><path
         d="m 91.96305,338.94436 c 8.98,12.57 17.96,25.14 28.73,21.55 11.38,-3.59 27.54,-39.5 38.91,-43.1 11.37,-4.19 20.35,8.98 29.33,21.55"
         style="fill:none;stroke:#ff0101;stroke-width:9.97595978;stroke-linecap:butt;stroke-linejoin:round;stroke-miterlimit:10;stroke-opacity:1;stroke-dasharray:none"
         id="path54"
         inkscape:connector-curvature="0" /><path
         d="m 754.77399,740.88315 103.74127,116.59258 6.59541,-5.48388 -103.75094,-116.58999 -6.58574,5.48129 z m 22.03384,-19.53853 c -8.88397,-10.01181 -24.72665,-11.33656 -35.16531,-1.72742 -10.0144,8.8743 -11.34621,24.72925 -1.7274,35.16531 8.87429,10.01441 24.72924,11.34623 35.16531,1.72742 10.01439,-8.8743 11.33655,-24.72667 1.7274,-35.16531 z m 70.30767,139.79647 44.44648,27.13093 -21.99544,-47.39205"
         style="fill:#010101;fill-opacity:1;fill-rule:nonzero;stroke:none"
         id="path70"
         inkscape:connector-curvature="0" /><path
         d="m 915.42697,900.74947 134.13703,-58.86872 -3.3481,-8.33038 -134.86214,59.29557 4.07321,7.90353 z M 903.3946,873.9832 c -12.579,5.29476 -18.33782,19.87094 -13.03085,32.44286 5.88395,12.73688 20.45047,18.49311 33.02239,13.18613 12.73429,-5.87428 18.49312,-20.45046 13.18615,-33.02241 -5.88394,-12.73688 -20.45046,-18.49311 -33.17768,-12.60658 z m 146.1147,-20.34601 39.4831,-34.03058 -51.9397,6.52949"
         style="fill:#010101;fill-opacity:1;fill-rule:nonzero;stroke:none"
         id="path72"
         inkscape:connector-curvature="0" /><path
         d="m 1108.7631,820.78436 162.2,10.78 0.61,-8.38 -162.21,-10.78 -0.6,8.38 z m 2.39,-28.73 c -13.77,-1.2 -25.74,8.98 -26.94,22.75 -0.59,13.76 9.58,25.74 23.35,26.93 13.77,0.6 25.74,-9.58 26.94,-23.34 0.59,-13.77 -9.58,-25.74 -23.35,-26.34 z m 154.43,49.68 50.88,-11.37 -49.09,-17.96"
         style="fill:#010101;fill-opacity:1;fill-rule:nonzero;stroke:none"
         id="path74"
         inkscape:connector-curvature="0" /><path
         d="m 1342.1931,853.10436 c -13.16,0 -23.34,-10.77 -23.34,-23.34 0,-12.57 10.18,-23.34 23.34,-23.34 12.58,0 22.75,10.77 22.75,23.34 0,12.57 -10.17,23.34 -22.75,23.34"
         style="fill:#010101;fill-opacity:1;fill-rule:evenodd;stroke:none"
         id="path76"
         inkscape:connector-curvature="0" /><path
         d="m 1342.1931,853.10436 c -13.16,0 -23.34,-10.77 -23.34,-23.34 0,-12.57 10.18,-23.34 23.34,-23.34 12.58,0 22.75,10.77 22.75,23.34 0,12.57 -10.17,23.34 -22.75,23.34 z"
         style="fill:none;stroke:#010101;stroke-width:3.74099994;stroke-linecap:round;stroke-linejoin:round;stroke-miterlimit:10;stroke-opacity:1;stroke-dasharray:none"
         id="path78"
         inkscape:connector-curvature="0" /><path
         d="m 770.13305,338.35436 80.81,-141.27 -7.78,-4.19 -80.81,141.26 7.78,4.2 z m -25.74,-14.37 c -6.58,11.97 -2.39,26.93 9.58,34.12 11.97,6.58 26.94,2.39 34.12,-9.58 6.58,-11.97 2.39,-26.94 -9.58,-34.12 -11.97,-6.58 -26.93,-2.39 -34.12,9.58 z m 113.13,-117.32 11.97,-50.28 -37.71,35.32"
         style="fill:#010101;fill-opacity:1;fill-rule:nonzero;stroke:none"
         id="path80"
         inkscape:connector-curvature="0" /><path
         d="m 898.82305,142.61436 c -5.38,11.38 -19.15,16.17 -30.52,10.78 -11.37,-5.39 -16.16,-19.15 -10.78,-30.53 5.39,-11.97 19.16,-16.76 30.53,-10.77 11.97,5.38 16.76,19.15 10.77,30.52"
         style="fill:#010101;fill-opacity:1;fill-rule:evenodd;stroke:none"
         id="path82"
         inkscape:connector-curvature="0" /><path
         d="m 898.82305,142.61436 c -5.38,11.38 -19.15,16.17 -30.52,10.78 -11.37,-5.39 -16.16,-19.15 -10.78,-30.53 5.39,-11.97 19.16,-16.76 30.53,-10.77 11.97,5.38 16.76,19.15 10.77,30.52 z"
         style="fill:none;stroke:#010101;stroke-width:3.74099994;stroke-linecap:round;stroke-linejoin:round;stroke-miterlimit:10;stroke-opacity:1;stroke-dasharray:none"
         id="path84"
         inkscape:connector-curvature="0" /><g
         id="g86"
         transform="matrix(10,0,0,10,-1990.2669,-5641.0956)"><text
           transform="matrix(1,0,0,-1,222.23,648.283)"
           id="text88"><tspan
             style="font-size:11.97119999px;font-variant:normal;font-weight:normal;writing-mode:lr-tb;fill:#000000;fill-opacity:1;fill-rule:nonzero;stroke:#000000;stroke-width:0.05;stroke-linecap:round;stroke-linejoin:round;stroke-miterlimit:10;stroke-opacity:1;stroke-dasharray:none;font-family:Symbol;-inkscape-font-specification:Symbol"
             x="0"
             y="0"
             id="tspan90">γ</tspan></text>
<text
           transform="matrix(1,0,0,-1,227.1382,645.35019)"
           id="text92"><tspan
             style="font-size:7.96084976px;font-variant:normal;font-weight:bold;writing-mode:lr-tb;fill:#000000;fill-opacity:1;fill-rule:nonzero;stroke:none;font-family:Helvetica;-inkscape-font-specification:Helvetica-Bold"
             x="0"
             y="0"
             id="tspan94">1</tspan></text>
</g><g
         id="g96"
         transform="matrix(10,0,0,10,-1990.2669,-5641.0956)"><text
           transform="matrix(1,0,0,-1,222.17,607.402)"
           id="text98"><tspan
             style="font-size:11.97119999px;font-variant:normal;font-weight:normal;writing-mode:lr-tb;fill:#000000;fill-opacity:1;fill-rule:nonzero;stroke:#000000;stroke-width:0.05;stroke-linecap:round;stroke-linejoin:round;stroke-miterlimit:10;stroke-opacity:1;stroke-dasharray:none;font-family:Symbol;-inkscape-font-specification:Symbol"
             x="0"
             y="0"
             id="tspan100">γ</tspan></text>
<text
           transform="matrix(1,0,0,-1,227.0782,604.46919)"
           id="text102"><tspan
             style="font-size:7.96084976px;font-variant:normal;font-weight:bold;writing-mode:lr-tb;fill:#000000;fill-opacity:1;fill-rule:nonzero;stroke:none;font-family:Helvetica;-inkscape-font-specification:Helvetica-Bold"
             x="0"
             y="0"
             id="tspan104">2</tspan></text>
</g><path
         d="m 1452.4931,531.08436 0,29.93"
         style="fill:none;stroke:#010101;stroke-width:6.23496008;stroke-linecap:butt;stroke-linejoin:round;stroke-miterlimit:10;stroke-opacity:1;stroke-dasharray:none"
         id="path106"
         inkscape:connector-curvature="0" /><path
         d="m 1452.4931,564.00436 782.92,0 0,-5.99 -782.92,0 0,5.99 z m 778.13,11.97 29.93,-14.96 -29.93,-14.97"
         style="fill:#010101;fill-opacity:1;fill-rule:nonzero;stroke:none"
         id="path108"
         inkscape:connector-curvature="0" /><path
         d="m 2021.1231,531.08436 89.7852,0 0,59.8555 -89.7852,0 0,-59.8555 z"
         style="fill:#010101;fill-opacity:1;fill-rule:evenodd;stroke:none"
         id="path110"
         inkscape:connector-curvature="0" /><path
         d="m 2021.1231,531.08436 89.7852,0 0,59.8555 -89.7852,0 0,-59.8555 z"
         style="fill:none;stroke:#010101;stroke-width:3.74099994;stroke-linecap:round;stroke-linejoin:miter;stroke-miterlimit:8;stroke-opacity:1;stroke-dasharray:none"
         id="path112"
         inkscape:connector-curvature="0" /><path
         d="m 1931.3431,321.58436 136.47,0"
         style="fill:none;stroke:#010101;stroke-width:6.23496008;stroke-linecap:butt;stroke-linejoin:round;stroke-miterlimit:10;stroke-opacity:1;stroke-dasharray:none"
         id="path114"
         inkscape:connector-curvature="0" /><path
         d="m 2066.0231,321.58436 0,184.36 5.98,0 0,-184.36 -5.98,0 z m -11.98,179.57 14.97,29.93 14.96,-29.93"
         style="fill:#010101;fill-opacity:1;fill-rule:nonzero;stroke:none"
         id="path116"
         inkscape:connector-curvature="0" /><g
         id="g118"
         transform="matrix(10,0,0,10,-1990.2669,-5641.0956)"><text
           transform="matrix(1,0,0,-1,408.502,603.092)"
           id="text120"><tspan
             style="font-size:8.97840023px;font-style:oblique;font-variant:normal;font-weight:bold;writing-mode:lr-tb;fill:#000000;fill-opacity:1;fill-rule:nonzero;stroke:none;font-family:Helvetica;-inkscape-font-specification:Helvetica-BoldOblique"
             x="0 5.9856143 10.953679 13.946465"
             y="0"
             sodipodi:role="line"
             id="tspan122">Veto</tspan></text>
</g><path
         d="m 1694.9131,1308.0144 -175.98,-439.34004 -5.99,1.79 175.98,439.94004 5.99,-2.39 z m -137.07,-408.22 -44.3,-35.91004 -7.18,56.26004 c 0,1.8 1.2,3 3,3.6 1.79,0 2.99,-1.2 2.99,-3 l 6.58,-50.88004 -4.79,2.4 39.51,32.32004 c 1.79,1.2 3.59,0.6 4.79,-0.6 1.19,-1.19 0.59,-3.59 -0.6,-4.19"
         style="fill:#010180;fill-opacity:1;fill-rule:nonzero;stroke:none"
         id="path124"
         inkscape:connector-curvature="0" /><path
         d="m 886.25305,1311.0044 172.99005,-201.71 -4.79,-4.19 -172.99005,202.31 4.79,3.59 z m 163.41005,-152.63 11.37,-55.67 -53.27,19.76 c -1.8,0.6 -2.39,2.39 -1.8,3.59 0.6,1.8 2.4,2.39 3.6,1.8 l 48.48,-17.36 -4.19,-3.59 -10.17,50.27 c -0.61,1.8 0.59,3 2.39,3.59 1.79,0 2.99,-0.59 3.59,-2.39"
         style="fill:#010180;fill-opacity:1;fill-rule:nonzero;stroke:none"
         id="path126"
         inkscape:connector-curvature="0" /><rect
         style="fill:#ffffff;fill-opacity:1;stroke:#ffffff;stroke-width:8;stroke-miterlimit:4;stroke-opacity:1;stroke-dasharray:16, 8;stroke-dashoffset:0"
         id="rect3229"
         width="77.122482"
         height="619.94702"
         x="424.80295"
         y="-916.5722"
         transform="scale(1,-1)"
         ry="0" /><g
         id="g128"
         transform="matrix(10,0,0,10,-1958.2669,-5641.0956)"><text
           transform="matrix(1,0,0,-1,361.934,699.34)"
           id="text130"><tspan
             style="font-size:10.95359993px;font-variant:normal;font-weight:bold;writing-mode:lr-tb;fill:#000099;fill-opacity:1;fill-rule:nonzero;stroke:none;font-family:Helvetica;-inkscape-font-specification:Helvetica-Bold"
             sodipodi:role="line"
             id="tspan132"
             x="0"
             y="0" /></text>
<text
           xml:space="preserve"
           style="font-size:12.80000019px;font-style:normal;font-weight:normal;line-height:125%;letter-spacing:0px;word-spacing:0px;fill:#000000;fill-opacity:1;stroke:none;font-family:Sans"
           x="347.77942"
           y="-695.51459"
           id="text3231"
           sodipodi:linespacing="125%"
           transform="scale(1,-1)"><tspan
             sodipodi:role="line"
             id="tspan3233"
             x="347.77942"
             y="-695.51459">HPGe</tspan></text>
<text
           xml:space="preserve"
           style="font-size:12.80000019px;font-style:normal;font-weight:normal;line-height:125%;letter-spacing:0px;word-spacing:0px;fill:#000000;fill-opacity:1;stroke:none;font-family:Sans"
           x="269.75812"
           y="-694.5708"
           id="text3235"
           sodipodi:linespacing="125%"
           transform="scale(1,-1)"><tspan
             sodipodi:role="line"
             id="tspan3237"
             x="269.75812"
             y="-694.5708">BGO</tspan></text>
<text
           xml:space="preserve"
           style="font-size:8px;font-style:normal;font-weight:normal;line-height:125%;letter-spacing:0px;word-spacing:0px;fill:#000000;fill-opacity:1;stroke:none;font-family:Sans"
           x="200.45581"
           y="-590.13171"
           id="text3239"
           sodipodi:linespacing="125%"
           transform="scale(1,-1)"><tspan
             sodipodi:role="line"
             id="tspan3241"
             x="200.45581"
             y="-590.13171">Suppresed</tspan><tspan
             sodipodi:role="line"
             x="200.45581"
             y="-580.13171"
             id="tspan3243">Gamma</tspan></text>
<text
           xml:space="preserve"
           style="font-size:8px;font-style:normal;font-weight:normal;line-height:125%;letter-spacing:0px;word-spacing:0px;fill:#000000;fill-opacity:1;stroke:none;font-family:Sans"
           x="197.37976"
           y="-628.35779"
           id="text3239-0"
           sodipodi:linespacing="125%"
           transform="scale(1,-1)"><tspan
             sodipodi:role="line"
             id="tspan3241-2"
             x="197.37976"
             y="-628.35779">Unsuppresed</tspan><tspan
             sodipodi:role="line"
             x="197.37976"
             y="-618.35779"
             id="tspan3243-2">Gamma</tspan></text>
</g><path
         d="m 188.93305,338.94436 c 8.38,12.57 17.36,25.14 28.73,21.55 10.78,-3.59 26.94,-39.5 38.31,-43.1 11.37,-4.19 19.75,8.98 28.73,21.55"
         style="fill:none;stroke:#ff0101;stroke-width:9.97595978;stroke-linecap:butt;stroke-linejoin:round;stroke-miterlimit:10;stroke-opacity:1;stroke-dasharray:none"
         id="path56"
         inkscape:connector-curvature="0" /><path
         d="m 284.70305,338.94436 c 8.98,12.57 17.96,25.14 28.73,21.55 11.37,-3.59 27.53,-39.5 38.91,-43.1 11.37,-4.19 20.35,8.98 28.73,21.55"
         style="fill:none;stroke:#ff0101;stroke-width:9.97595978;stroke-linecap:butt;stroke-linejoin:round;stroke-miterlimit:10;stroke-opacity:1;stroke-dasharray:none"
         id="path58"
         inkscape:connector-curvature="0" /><path
         d="m 381.07305,338.94436 c 8.98,12.57 17.96,25.14 29.33,21.55 11.37,-3.59 27.53,-39.5 38.31,-43.1 11.37,-4.19 20.35,8.98 29.32,21.55"
         style="fill:none;stroke:#ff0101;stroke-width:9.97595978;stroke-linecap:butt;stroke-linejoin:round;stroke-miterlimit:10;stroke-opacity:1;stroke-dasharray:none"
         id="path60"
         inkscape:connector-curvature="0" /><path
         d="m 478.03305,338.94436 c 8.99,12.57 17.36,25.14 28.74,21.55 11.37,-3.59 27.53,-39.5 38.9,-43.1 11.38,-4.19 20.35,8.98 28.73,21.55"
         style="fill:none;stroke:#ff0101;stroke-width:9.97595978;stroke-linecap:butt;stroke-linejoin:round;stroke-miterlimit:10;stroke-opacity:1;stroke-dasharray:none"
         id="path62"
         inkscape:connector-curvature="0" /><path
         d="m 574.40305,338.94436 c 8.98,12.57 17.96,25.14 29.33,21.55 11.38,-3.59 26.94,-39.5 38.31,-43.1 11.37,-4.19 20.35,8.98 29.33,21.55"
         style="fill:none;stroke:#ff0101;stroke-width:9.97595978;stroke-linecap:butt;stroke-linejoin:round;stroke-miterlimit:10;stroke-opacity:1;stroke-dasharray:none"
         id="path64"
         inkscape:connector-curvature="0" /><path
         d="m 96.15305,340.14436 -65.84,-0.6"
         style="fill:none;stroke:#ff0101;stroke-width:9.97595978;stroke-linecap:butt;stroke-linejoin:round;stroke-miterlimit:10;stroke-opacity:1;stroke-dasharray:none"
         id="path66"
         inkscape:connector-curvature="0" /><path
         d="m 689.33305,332.95436 -20.95,0 -0.6,9.58 21.55,0.6 0,-10.18 z m -5.39,29.93 50.28,-24.53 -49.68,-25.15"
         style="fill:#ff0101;fill-opacity:1;fill-rule:nonzero;stroke:none"
         id="path68"
         inkscape:connector-curvature="0" /><path
         d="m 91.96305,745.36436 c 8.98,12.58 17.96,25.15 28.73,21.55 11.38,-3.59 27.54,-39.5 38.91,-43.09 11.37,-3.6 20.35,8.97 29.33,21.54"
         style="fill:none;stroke:#ff0101;stroke-width:9.97595978;stroke-linecap:butt;stroke-linejoin:round;stroke-miterlimit:10;stroke-opacity:1;stroke-dasharray:none"
         id="path38"
         inkscape:connector-curvature="0" /><path
         d="m 188.93305,745.36436 c 8.38,12.58 17.36,25.15 28.73,21.55 10.78,-3.59 26.94,-39.5 38.31,-43.09 11.37,-3.6 19.75,8.97 28.73,21.54"
         style="fill:none;stroke:#ff0101;stroke-width:9.97595978;stroke-linecap:butt;stroke-linejoin:round;stroke-miterlimit:10;stroke-opacity:1;stroke-dasharray:none"
         id="path40"
         inkscape:connector-curvature="0" /><path
         d="m 284.70305,745.36436 c 8.98,12.58 17.96,25.15 28.73,21.55 11.37,-3.59 27.53,-39.5 38.91,-43.09 11.37,-3.6 20.35,8.97 28.73,21.54"
         style="fill:none;stroke:#ff0101;stroke-width:9.97595978;stroke-linecap:butt;stroke-linejoin:round;stroke-miterlimit:10;stroke-opacity:1;stroke-dasharray:none"
         id="path42"
         inkscape:connector-curvature="0" /><path
         d="m 381.07305,745.36436 c 8.98,12.58 17.96,25.15 29.33,21.55 11.37,-3.59 27.53,-39.5 38.31,-43.09 11.37,-3.6 20.35,8.97 29.32,21.54"
         style="fill:none;stroke:#ff0101;stroke-width:9.97595978;stroke-linecap:butt;stroke-linejoin:round;stroke-miterlimit:10;stroke-opacity:1;stroke-dasharray:none"
         id="path44"
         inkscape:connector-curvature="0" /><path
         d="m 478.03305,745.36436 c 8.99,12.58 17.36,25.15 28.74,21.55 11.37,-3.59 27.53,-39.5 38.9,-43.09 11.38,-3.6 20.35,8.97 28.73,21.54"
         style="fill:none;stroke:#ff0101;stroke-width:9.97595978;stroke-linecap:butt;stroke-linejoin:round;stroke-miterlimit:10;stroke-opacity:1;stroke-dasharray:none"
         id="path46"
         inkscape:connector-curvature="0" /><path
         d="m 574.40305,745.36436 c 8.98,12.58 17.96,25.15 29.33,21.55 11.38,-3.59 26.94,-39.5 38.31,-43.09 11.37,-3.6 20.35,8.97 29.33,21.54"
         style="fill:none;stroke:#ff0101;stroke-width:9.97595978;stroke-linecap:butt;stroke-linejoin:round;stroke-miterlimit:10;stroke-opacity:1;stroke-dasharray:none"
         id="path48"
         inkscape:connector-curvature="0" /><path
         d="m 96.15305,746.56436 -65.84,-0.6"
         style="fill:none;stroke:#ff0101;stroke-width:9.97595978;stroke-linecap:butt;stroke-linejoin:round;stroke-miterlimit:10;stroke-opacity:1;stroke-dasharray:none"
         id="path50"
         inkscape:connector-curvature="0" /></g></g></svg>