<?xml version="1.0" encoding="UTF-8" standalone="no"?>
<!-- Created with Inkscape (http://www.inkscape.org/) -->

<svg
   xmlns:dc="http://purl.org/dc/elements/1.1/"
   xmlns:cc="http://creativecommons.org/ns#"
   xmlns:rdf="http://www.w3.org/1999/02/22-rdf-syntax-ns#"
   xmlns:svg="http://www.w3.org/2000/svg"
   xmlns="http://www.w3.org/2000/svg"
   xmlns:xlink="http://www.w3.org/1999/xlink"
   xmlns:sodipodi="http://sodipodi.sourceforge.net/DTD/sodipodi-0.dtd"
   xmlns:inkscape="http://www.inkscape.org/namespaces/inkscape"
   id="svg2"
   version="1.1"
   inkscape:version="0.48.4 r9939"
   width="413"
   height="332"
   xml:space="preserve"
   sodipodi:docname="daniel_dissertation.pdf"><metadata
     id="metadata8"><rdf:RDF><cc:Work
         rdf:about=""><dc:format>image/svg+xml</dc:format><dc:type
           rdf:resource="http://purl.org/dc/dcmitype/StillImage" /><dc:title></dc:title></cc:Work></rdf:RDF></metadata><defs
     id="defs6"><linearGradient
       inkscape:collect="always"
       id="linearGradient4821"><stop
         style="stop-color:#ffffff;stop-opacity:1;"
         offset="0"
         id="stop4823" /><stop
         style="stop-color:#ffffff;stop-opacity:0;"
         offset="1"
         id="stop4825" /></linearGradient><clipPath
       clipPathUnits="userSpaceOnUse"
       id="clipPath22"><path
         d="M 0,0 137,0 137,110 0,110 0,0 z"
         id="path24"
         inkscape:connector-curvature="0" /></clipPath><clipPath
       clipPathUnits="userSpaceOnUse"
       id="clipPath32"><path
         d="M 0,1096.83 0,0 l 1363.8,0 0,1096.83 -1363.8,0 z"
         id="path34"
         inkscape:connector-curvature="0" /></clipPath><clipPath
       clipPathUnits="userSpaceOnUse"
       id="clipPath98"><path
         d="m 840.781,565.988 c 0,-58.679 -34.14,-106.25 -76.25,-106.25 -42.109,0 -76.25,47.571 -76.25,106.25 0,58.684 34.141,106.25 76.25,106.25 42.11,0 76.25,-47.566 76.25,-106.25 z"
         id="path100"
         inkscape:connector-curvature="0" /></clipPath><linearGradient
       x1="0"
       y1="0"
       x2="1"
       y2="0"
       gradientUnits="userSpaceOnUse"
       gradientTransform="matrix(15.25,0,0,-15.25,68.8281,56.599)"
       spreadMethod="pad"
       id="linearGradient102"><stop
         style="stop-opacity:1;stop-color:#68c0e4"
         offset="0"
         id="stop104" /><stop
         style="stop-opacity:1;stop-color:#b5d929"
         offset="0.308989"
         id="stop106" /><stop
         style="stop-opacity:1;stop-color:#f5b646"
         offset="0.713483"
         id="stop108" /><stop
         style="stop-opacity:1;stop-color:#b2e1e8"
         offset="1"
         id="stop110" /></linearGradient><clipPath
       clipPathUnits="userSpaceOnUse"
       id="clipPath118"><path
         d="M 0,1096.83 0,0 l 1363.8,0 0,1096.83 -1363.8,0 z"
         id="path120"
         inkscape:connector-curvature="0" /></clipPath><clipPath
       clipPathUnits="userSpaceOnUse"
       id="clipPath128"><path
         d="m 975.781,645.988 c 0,-58.679 -34.14,-106.25 -76.25,-106.25 -42.109,0 -76.25,47.571 -76.25,106.25 0,58.684 34.141,106.25 76.25,106.25 42.11,0 76.25,-47.566 76.25,-106.25 z"
         id="path130"
         inkscape:connector-curvature="0" /></clipPath><radialGradient
       fx="0"
       fy="0"
       cx="0"
       cy="0"
       r="1"
       gradientUnits="userSpaceOnUse"
       gradientTransform="matrix(9.24747,0,0,-9.24747,89.9531,64.599)"
       spreadMethod="pad"
       id="radialGradient132"><stop
         style="stop-opacity:1;stop-color:#f5ef60"
         offset="0"
         id="stop134" /><stop
         style="stop-opacity:1;stop-color:#e85b2a"
         offset="1"
         id="stop136" /></radialGradient><clipPath
       clipPathUnits="userSpaceOnUse"
       id="clipPath144"><path
         d="M 0,1096.83 0,0 l 1363.8,0 0,1096.83 -1363.8,0 z"
         id="path146"
         inkscape:connector-curvature="0" /></clipPath><clipPath
       clipPathUnits="userSpaceOnUse"
       id="clipPath154"><path
         d="m 1108.28,745.988 c 0,-58.679 -34.14,-106.25 -76.25,-106.25 -42.108,0 -76.249,47.571 -76.249,106.25 0,58.684 34.141,106.25 76.249,106.25 42.11,0 76.25,-47.566 76.25,-106.25 z"
         id="path156"
         inkscape:connector-curvature="0" /></clipPath><linearGradient
       x1="0"
       y1="0"
       x2="1"
       y2="0"
       gradientUnits="userSpaceOnUse"
       gradientTransform="matrix(15.25,0,0,-15.25,95.5781,74.599)"
       spreadMethod="pad"
       id="linearGradient158"><stop
         style="stop-opacity:1;stop-color:#ffffff"
         offset="0"
         id="stop160" /><stop
         style="stop-opacity:1;stop-color:#231f20"
         offset="1"
         id="stop162" /></linearGradient><clipPath
       clipPathUnits="userSpaceOnUse"
       id="clipPath170"><path
         d="M 0,1096.83 0,0 l 1363.8,0 0,1096.83 -1363.8,0 z"
         id="path172"
         inkscape:connector-curvature="0" /></clipPath><clipPath
       clipPathUnits="userSpaceOnUse"
       id="clipPath22-7"><path
         inkscape:connector-curvature="0"
         d="M 0,0 137,0 137,110 0,110 0,0 z"
         id="path24-6" /></clipPath><clipPath
       clipPathUnits="userSpaceOnUse"
       id="clipPath32-2"><path
         inkscape:connector-curvature="0"
         d="M 0,1096.83 0,0 l 1363.8,0 0,1096.83 -1363.8,0 z"
         id="path34-0" /></clipPath><clipPath
       clipPathUnits="userSpaceOnUse"
       id="clipPath98-9"><path
         inkscape:connector-curvature="0"
         d="m 840.781,565.988 c 0,-58.679 -34.14,-106.25 -76.25,-106.25 -42.109,0 -76.25,47.571 -76.25,106.25 0,58.684 34.141,106.25 76.25,106.25 42.11,0 76.25,-47.566 76.25,-106.25 z"
         id="path100-1" /></clipPath><linearGradient
       x1="0"
       y1="0"
       x2="1"
       y2="0"
       gradientUnits="userSpaceOnUse"
       gradientTransform="matrix(15.25,0,0,-15.25,68.8281,56.599)"
       spreadMethod="pad"
       id="linearGradient102-0"><stop
         style="stop-opacity:1;stop-color:#68c0e4"
         offset="0"
         id="stop104-9" /><stop
         style="stop-opacity:1;stop-color:#b5d929"
         offset="0.308989"
         id="stop106-1" /><stop
         style="stop-opacity:1;stop-color:#f5b646"
         offset="0.713483"
         id="stop108-1" /><stop
         style="stop-opacity:1;stop-color:#b2e1e8"
         offset="1"
         id="stop110-0" /></linearGradient><clipPath
       clipPathUnits="userSpaceOnUse"
       id="clipPath118-8"><path
         inkscape:connector-curvature="0"
         d="M 0,1096.83 0,0 l 1363.8,0 0,1096.83 -1363.8,0 z"
         id="path120-2" /></clipPath><clipPath
       clipPathUnits="userSpaceOnUse"
       id="clipPath128-5"><path
         inkscape:connector-curvature="0"
         d="m 975.781,645.988 c 0,-58.679 -34.14,-106.25 -76.25,-106.25 -42.109,0 -76.25,47.571 -76.25,106.25 0,58.684 34.141,106.25 76.25,106.25 42.11,0 76.25,-47.566 76.25,-106.25 z"
         id="path130-9" /></clipPath><radialGradient
       fx="0"
       fy="0"
       cx="0"
       cy="0"
       r="1"
       gradientUnits="userSpaceOnUse"
       gradientTransform="matrix(9.24747,0,0,-9.24747,89.9531,64.599)"
       spreadMethod="pad"
       id="radialGradient132-3"><stop
         style="stop-opacity:1;stop-color:#f5ef60"
         offset="0"
         id="stop134-7" /><stop
         style="stop-opacity:1;stop-color:#e85b2a"
         offset="1"
         id="stop136-5" /></radialGradient><clipPath
       clipPathUnits="userSpaceOnUse"
       id="clipPath144-2"><path
         inkscape:connector-curvature="0"
         d="M 0,1096.83 0,0 l 1363.8,0 0,1096.83 -1363.8,0 z"
         id="path146-9" /></clipPath><clipPath
       clipPathUnits="userSpaceOnUse"
       id="clipPath154-4"><path
         inkscape:connector-curvature="0"
         d="m 1108.28,745.988 c 0,-58.679 -34.14,-106.25 -76.25,-106.25 -42.108,0 -76.249,47.571 -76.249,106.25 0,58.684 34.141,106.25 76.249,106.25 42.11,0 76.25,-47.566 76.25,-106.25 z"
         id="path156-7" /></clipPath><linearGradient
       x1="0"
       y1="0"
       x2="1"
       y2="0"
       gradientUnits="userSpaceOnUse"
       gradientTransform="matrix(15.25,0,0,-15.25,95.5781,74.599)"
       spreadMethod="pad"
       id="linearGradient158-7"><stop
         style="stop-opacity:1;stop-color:#ffffff"
         offset="0"
         id="stop160-8" /><stop
         style="stop-opacity:1;stop-color:#231f20"
         offset="1"
         id="stop162-1" /></linearGradient><clipPath
       clipPathUnits="userSpaceOnUse"
       id="clipPath170-3"><path
         inkscape:connector-curvature="0"
         d="M 0,1096.83 0,0 l 1363.8,0 0,1096.83 -1363.8,0 z"
         id="path172-7" /></clipPath><radialGradient
       inkscape:collect="always"
       xlink:href="#radialGradient132"
       id="radialGradient4811"
       cx="899.53101"
       cy="645.98798"
       fx="899.53101"
       fy="645.98798"
       r="76.25"
       gradientTransform="matrix(1,0,0,1.3934426,0,-254.15921)"
       gradientUnits="userSpaceOnUse" /><linearGradient
       inkscape:collect="always"
       xlink:href="#linearGradient102-0"
       id="linearGradient4819"
       x1="688.28101"
       y1="565.98798"
       x2="840.78101"
       y2="565.98798"
       gradientUnits="userSpaceOnUse" /><linearGradient
       inkscape:collect="always"
       xlink:href="#linearGradient4821"
       id="linearGradient4829"
       x1="953.7002"
       y1="745.98798"
       x2="1110.3608"
       y2="745.98798"
       gradientUnits="userSpaceOnUse"
       gradientTransform="translate(-6.6666663,3.6666598e-7)" /><linearGradient
       inkscape:collect="always"
       xlink:href="#linearGradient102-0"
       id="linearGradient4831"
       gradientUnits="userSpaceOnUse"
       x1="688.28101"
       y1="565.98798"
       x2="840.78101"
       y2="565.98798" /><radialGradient
       inkscape:collect="always"
       xlink:href="#radialGradient132"
       id="radialGradient4833"
       gradientUnits="userSpaceOnUse"
       gradientTransform="matrix(1,0,0,1.3934426,0,-254.15921)"
       cx="899.53101"
       cy="645.98798"
       fx="899.53101"
       fy="645.98798"
       r="76.25" /><linearGradient
       inkscape:collect="always"
       xlink:href="#linearGradient158-7"
       id="linearGradient4835"
       gradientUnits="userSpaceOnUse"
       gradientTransform="matrix(15.25,0,0,-15.25,95.5781,74.599)"
       spreadMethod="pad"
       x1="0"
       y1="0"
       x2="1"
       y2="0" /></defs><sodipodi:namedview
     pagecolor="#ffffff"
     bordercolor="#666666"
     borderopacity="1"
     objecttolerance="10"
     gridtolerance="10"
     guidetolerance="10"
     inkscape:pageopacity="0"
     inkscape:pageshadow="2"
     inkscape:window-width="1600"
     inkscape:window-height="848"
     id="namedview4"
     showgrid="false"
     inkscape:zoom="1.3485026"
     inkscape:cx="382.00251"
     inkscape:cy="178.42945"
     inkscape:window-x="-8"
     inkscape:window-y="-8"
     inkscape:window-maximized="1"
     inkscape:current-layer="g168" /><g
     id="g10"
     inkscape:groupmode="layer"
     inkscape:label="daniel_dissertation"
     transform="matrix(1.25,0,0,-1.25,0,332)"><g
       id="g12"
       transform="translate(158.659,456.001)"><g
         id="g14"
         transform="matrix(2.4,0,0,2.4,-155.34747,-455.26604)"><g
           id="g16"><g
             clip-path="url(#clipPath22-7)"
             id="g20"><g
               clip-path="url(#clipPath32-2)"
               id="g30"
               transform="matrix(0.1,0,0,0.1,-0.66666663,3.6666677e-8)"><path
                 id="path36"
                 style="fill:#ffffff;fill-opacity:1;fill-rule:nonzero;stroke:none"
                 d="m 875.348,595.285 c 43.718,14.387 46.601,65.777 11.886,91.406 -15.464,11.442 -81.238,22.762 -82.261,38.036 -2.368,35.605 31.898,81.816 39.308,117.675 16.496,79.578 -89.164,147.844 -130.781,61.368 -25.375,-52.868 -25.375,-118.766 -27.609,-183.329 -13.618,3.454 -27.164,7.036 -40.594,11.25 -61.613,19.563 -87.82,-77.019 -26.586,-96.39 18.851,-6.004 37.906,-10.863 57.016,-15.469 -10.868,-49.66 -34.008,-92.812 -86.418,-120.68 -9.079,-4.793 -15.407,-11.058 -19.438,-18.023 -71.973,16.555 -150.91,28.699 -213.742,-15.66 -0.836,-0.578 -1.473,-1.281 -2.305,-1.856 -15.211,17 -39.375,23.141 -62.004,10.547 -21.73,-12.019 -41.738,-26.461 -62.511,-40.015 -50.43,-32.852 -9.586,-111.028 40.336,-91.598 0,-0.508 -0.067,-1.02 -0.129,-1.531 -1.789,-32.024 28.89,-52.223 57.015,-49.094 1.086,-0.828 2.176,-1.531 3.324,-2.234 15.278,-21.926 49.665,-33.688 74.403,-16.172 7.285,0.449 14.379,2.496 20.515,6.777 28.766,20.195 41.743,46.785 63.86,72.801 12.336,14.511 35.668,18.605 58.676,19.246 3.777,-0.836 7.863,-1.344 12.211,-1.344 l 47.492,0 c 30.683,0 48.578,25.883 49.093,51.258 67.688,42.32 98.051,105.152 113.329,175.141 34.707,-8.051 72.035,-13.227 105.914,-2.11 z m 424.172,303.176 c 26.27,0 51.33,22.754 49.98,50.051 -0.51,11.695 -1.91,23.265 -2.49,34.965 -0.18,4.156 -0.89,8.175 -1.98,12.078 -0.19,1.855 -0.25,3.644 -0.51,5.435 -2.62,22.5 -13.36,41.8 -36.69,48.19 -19.36,5.37 -42.38,-2.17 -53.88,-19.04 -5.05,-0.39 -10.17,-0.71 -15.28,-0.9 -16.68,-0.51 -32.02,7.86 -47.88,12.78 -4.34,3.39 -8.75,6.65 -13.55,9.66 -54.78,34.32 -104.95,-52.223 -50.43,-86.36 0.9,-0.574 1.79,-1.277 2.68,-1.918 3.01,-3.769 6.78,-7.093 11.32,-9.781 20.58,-21.539 32.41,-54.648 53.37,-75.488 19.75,-19.688 50.82,-18.66 70.69,0 7.42,6.969 14.58,14.449 21.49,22.246 4.09,-1.09 8.43,-1.918 13.16,-1.918 z m 62.2,194.569 0,-982.893 -1272.0755,0 0,982.893 1272.0755,0"
                 inkscape:connector-curvature="0" /><path
                 id="path38"
                 style="fill:none;stroke:#231f20;stroke-width:4.16160011;stroke-linecap:round;stroke-linejoin:round;stroke-miterlimit:4;stroke-opacity:1;stroke-dasharray:none"
                 d="m 89.6445,110.137 1272.07,0 0,982.895 -1272.07,0 0,-982.895 z"
                 inkscape:connector-curvature="0" /><g
                 transform="scale(10,10)"
                 id="g40"><text
                   id="text42"
                   transform="matrix(0,1,1,0,5.81719,49.5039)"><tspan
                     id="tspan44"
                     sodipodi:role="line"
                     y="0"
                     x="0 4.275877 7.775877 10.882809 13.087399 16.587399"
                     style="font-size:7px;font-variant:normal;font-weight:normal;writing-mode:lr-tb;fill:#231f20;fill-opacity:1;fill-rule:nonzero;stroke:none;font-family:Times New Roman;-inkscape-font-specification:TimesNewRomanPSMT">Energy</tspan></text>
<text
                   id="text46"
                   transform="matrix(1,0,0,-1,46.5359,2.14688)"><tspan
                     id="tspan48"
                     sodipodi:role="line"
                     y="0"
                     x="0 5.0539999 8.5539999 12.054 15.554 17.5 20.608 22.938999 24.688999 30.912001 34.411999 39.858002 42.966 46.466 48.411999 51.911999 57.35313"
                     style="font-size:7px;font-variant:normal;font-weight:normal;writing-mode:lr-tb;fill:#231f20;fill-opacity:1;fill-rule:nonzero;stroke:none;font-family:Times New Roman;-inkscape-font-specification:TimesNewRomanPSMT">Angular Momentum</tspan></text>
</g><path
                 id="path50"
                 style="fill:none;stroke:#231f20;stroke-width:4.16160011;stroke-linecap:butt;stroke-linejoin:miter;stroke-miterlimit:10;stroke-opacity:1;stroke-dasharray:none"
                 d="m 192.031,110.988 0,26.25"
                 inkscape:connector-curvature="0" /><path
                 id="path52"
                 style="fill:none;stroke:#231f20;stroke-width:4.16160011;stroke-linecap:butt;stroke-linejoin:miter;stroke-miterlimit:10;stroke-opacity:1;stroke-dasharray:none"
                 d="m 1259.53,139.32 1.15,-28.332"
                 inkscape:connector-curvature="0" /><path
                 id="path54"
                 style="fill:none;stroke:#231f20;stroke-width:4.16160011;stroke-linecap:butt;stroke-linejoin:miter;stroke-miterlimit:10;stroke-opacity:1;stroke-dasharray:none"
                 d="m 1047.13,137.238 0,-26.25"
                 inkscape:connector-curvature="0" /><path
                 id="path56"
                 style="fill:none;stroke:#231f20;stroke-width:4.16160011;stroke-linecap:butt;stroke-linejoin:miter;stroke-miterlimit:10;stroke-opacity:1;stroke-dasharray:none"
                 d="m 833.281,137.238 0,-26.25"
                 inkscape:connector-curvature="0" /><path
                 id="path58"
                 style="fill:none;stroke:#231f20;stroke-width:4.16160011;stroke-linecap:butt;stroke-linejoin:miter;stroke-miterlimit:10;stroke-opacity:1;stroke-dasharray:none"
                 d="m 619.43,137.238 0,-26.25"
                 inkscape:connector-curvature="0" /><path
                 id="path60"
                 style="fill:none;stroke:#231f20;stroke-width:4.16160011;stroke-linecap:butt;stroke-linejoin:miter;stroke-miterlimit:10;stroke-opacity:1;stroke-dasharray:none"
                 d="m 405.883,137.238 0,-26.25"
                 inkscape:connector-curvature="0" /><path
                 id="path62"
                 style="fill:none;stroke:#231f20;stroke-width:4.16160011;stroke-linecap:butt;stroke-linejoin:miter;stroke-miterlimit:4;stroke-opacity:1;stroke-dasharray:none"
                 d="m 1361.19,153.488 -23.34,0"
                 inkscape:connector-curvature="0" /><path
                 id="path64"
                 style="fill:none;stroke:#231f20;stroke-width:4.16160011;stroke-linecap:butt;stroke-linejoin:miter;stroke-miterlimit:4;stroke-opacity:1;stroke-dasharray:none"
                 d="m 1327.85,625.16 33.34,0"
                 inkscape:connector-curvature="0" /><path
                 id="path66"
                 style="fill:none;stroke:#231f20;stroke-width:4.16160011;stroke-linecap:butt;stroke-linejoin:miter;stroke-miterlimit:4;stroke-opacity:1;stroke-dasharray:none"
                 d="m 1337.85,467.863 23.34,0"
                 inkscape:connector-curvature="0" /><path
                 id="path68"
                 style="fill:none;stroke:#231f20;stroke-width:4.16160011;stroke-linecap:butt;stroke-linejoin:miter;stroke-miterlimit:4;stroke-opacity:1;stroke-dasharray:none"
                 d="m 1327.85,310.797 33.34,0"
                 inkscape:connector-curvature="0" /><path
                 id="path70"
                 style="fill:none;stroke:#231f20;stroke-width:4.16160011;stroke-linecap:butt;stroke-linejoin:miter;stroke-miterlimit:4;stroke-opacity:1;stroke-dasharray:none"
                 d="M 552.617,336.629 C 433.188,207.57 265.355,118.488 87.0312,118.488"
                 inkscape:connector-curvature="0" /><path
                 id="path72"
                 style="fill:none;stroke:#231f20;stroke-width:4.16160011;stroke-linecap:butt;stroke-linejoin:miter;stroke-miterlimit:4;stroke-opacity:1;stroke-dasharray:none"
                 d="M 1361.73,678.629 C 1146.27,472.941 856.285,296.422 546.719,335.539"
                 inkscape:connector-curvature="0" /><path
                 id="path74"
                 style="fill:none;stroke:#231f20;stroke-width:4.16160011;stroke-linecap:butt;stroke-linejoin:miter;stroke-miterlimit:4;stroke-opacity:1;stroke-dasharray:none"
                 d="m 1194.48,867.758 c 55.02,-61.422 110.03,-122.848 165.05,-184.27"
                 inkscape:connector-curvature="0" /><path
                 id="path76"
                 style="fill:none;stroke:#231f20;stroke-width:4.16160011;stroke-linecap:butt;stroke-linejoin:miter;stroke-miterlimit:4;stroke-opacity:1;stroke-dasharray:none"
                 d="M 994.531,1090.99 C 1054.2,1024.38 1157.36,910.105 1217.03,843.488"
                 inkscape:connector-curvature="0" /><path
                 id="path78"
                 style="fill:none;stroke:#231f20;stroke-width:4.16160011;stroke-linecap:butt;stroke-linejoin:miter;stroke-miterlimit:4;stroke-opacity:1;stroke-dasharray:none"
                 d="m 532.773,343.328 c -5.679,-6.066 -11.468,-12.051 -17.363,-17.933"
                 inkscape:connector-curvature="0" /><path
                 id="path80"
                 style="fill:none;stroke:#231f20;stroke-width:4.16160011;stroke-linecap:butt;stroke-linejoin:miter;stroke-miterlimit:4;stroke-opacity:1;stroke-dasharray:48.3446, 19.3378;stroke-dashoffset:0"
                 d="M 501.547,311.918 C 405.523,221.023 283.793,155.402 152.617,137.082"
                 inkscape:connector-curvature="0" /><path
                 id="path82"
                 style="fill:none;stroke:#231f20;stroke-width:4.16160011;stroke-linecap:butt;stroke-linejoin:miter;stroke-miterlimit:4;stroke-opacity:1;stroke-dasharray:none"
                 d="m 142.965,135.824 c -8.262,-1 -16.559,-1.816 -24.883,-2.437"
                 inkscape:connector-curvature="0" /><path
                 id="path84"
                 style="fill:#231f20;fill-opacity:1;fill-rule:nonzero;stroke:none"
                 d="m 121.414,133.859 4.602,-6.418 -0.219,-0.171 -11.301,3.535 c -3.883,0.554 -7.766,1.109 -11.652,1.664 3.758,1.129 7.515,2.258 11.277,3.383 l 10.645,5.175 0.238,-0.089 -3.59,-7.079"
                 inkscape:connector-curvature="0" /><path
                 id="path86"
                 style="fill:none;stroke:#231f20;stroke-width:4.16160011;stroke-linecap:butt;stroke-linejoin:miter;stroke-miterlimit:4;stroke-opacity:1;stroke-dasharray:none"
                 d="m 1336.83,698.984 c -5.92,-5.832 -11.9,-11.636 -17.93,-17.414"
                 inkscape:connector-curvature="0" /><path
                 id="path88"
                 style="fill:none;stroke:#231f20;stroke-width:4.16160011;stroke-linecap:butt;stroke-linejoin:miter;stroke-miterlimit:4;stroke-opacity:1;stroke-dasharray:48.1366, 19.2546;stroke-dashoffset:0"
                 d="M 1304.9,668.34 C 1111.99,487.938 862.691,340.77 593.035,354.699"
                 inkscape:connector-curvature="0" /><path
                 id="path90"
                 style="fill:none;stroke:#231f20;stroke-width:4.16160011;stroke-linecap:butt;stroke-linejoin:miter;stroke-miterlimit:4;stroke-opacity:1;stroke-dasharray:none"
                 d="m 583.422,355.266 c -8.285,0.546 -16.59,1.246 -24.91,2.101"
                 inkscape:connector-curvature="0" /><path
                 id="path92"
                 style="fill:#231f20;fill-opacity:1;fill-rule:nonzero;stroke:none"
                 d="m 561.902,357.555 3.532,-7.067 -0.243,-0.133 -10.601,5.262 c -3.75,1.164 -7.5,2.321 -11.25,3.481 3.89,0.519 7.777,1.043 11.672,1.566 l 11.328,3.441 0.219,-0.132 -4.657,-6.418"
                 inkscape:connector-curvature="0" /></g><g
               clip-path="url(#clipPath98-9)"
               id="g96"
               transform="matrix(0.1,0,0,0.1,-0.66666663,3.6666677e-8)"
               style="fill:url(#linearGradient4819);fill-opacity:1"><path
                 id="path112"
                 style="fill:url(#linearGradient4831);fill-opacity:1;fill-rule:nonzero;stroke:none"
                 d="m 840.781,565.988 c 0,-58.679 -34.14,-106.25 -76.25,-106.25 -42.109,0 -76.25,47.571 -76.25,106.25 0,58.684 34.141,106.25 76.25,106.25 42.11,0 76.25,-47.566 76.25,-106.25"
                 inkscape:connector-curvature="0" /></g><g
               clip-path="url(#clipPath118-8)"
               id="g116"
               transform="matrix(0.1,0,0,0.1,-0.66666663,3.6666677e-8)"><path
                 id="path122"
                 style="fill:none;stroke:#231f20;stroke-width:4.16160011;stroke-linecap:butt;stroke-linejoin:miter;stroke-miterlimit:4;stroke-opacity:1;stroke-dasharray:10, 10;stroke-dashoffset:0"
                 d="m 840.781,565.988 c 0,-58.679 -34.14,-106.25 -76.25,-106.25 -42.109,0 -76.25,47.571 -76.25,106.25 0,58.684 34.141,106.25 76.25,106.25 42.11,0 76.25,-47.566 76.25,-106.25 z"
                 inkscape:connector-curvature="0" /></g><g
               clip-path="url(#clipPath128-5)"
               id="g126"
               transform="matrix(0.1,0,0,0.1,-0.66666663,3.6666677e-8)"
               style="fill:url(#radialGradient4811);fill-opacity:1"><path
                 id="path138"
                 style="fill:url(#radialGradient4833);fill-opacity:1;fill-rule:nonzero;stroke:none"
                 d="m 975.781,645.988 c 0,-58.679 -34.14,-106.25 -76.25,-106.25 -42.109,0 -76.25,47.571 -76.25,106.25 0,58.684 34.141,106.25 76.25,106.25 42.11,0 76.25,-47.566 76.25,-106.25"
                 inkscape:connector-curvature="0" /></g><g
               clip-path="url(#clipPath144-2)"
               id="g142"
               transform="matrix(0.1,0,0,0.1,-0.66666663,3.6666677e-8)"><path
                 id="path148"
                 style="fill:none;stroke:#231f20;stroke-width:4.16160011;stroke-linecap:butt;stroke-linejoin:miter;stroke-miterlimit:4;stroke-opacity:1;stroke-dasharray:10, 10;stroke-dashoffset:0"
                 d="m 975.781,645.988 c 0,-58.679 -34.14,-106.25 -76.25,-106.25 -42.109,0 -76.25,47.571 -76.25,106.25 0,58.684 34.141,106.25 76.25,106.25 42.11,0 76.25,-47.566 76.25,-106.25 z"
                 inkscape:connector-curvature="0" /></g><g
               clip-path="url(#clipPath154-4)"
               id="g152"
               transform="matrix(0.1,0,0,0.1,-0.66666663,3.6666677e-8)"><path
                 id="path164"
                 style="fill:url(#linearGradient4835);fill-opacity:1;fill-rule:nonzero;stroke:none"
                 d="m 1108.28,745.988 c 0,-58.679 -34.14,-106.25 -76.25,-106.25 -42.108,0 -76.249,47.571 -76.249,106.25 0,58.684 34.141,106.25 76.249,106.25 42.11,0 76.25,-47.566 76.25,-106.25"
                 inkscape:connector-curvature="0" /></g><g
               clip-path="url(#clipPath170-3)"
               id="g168"
               transform="scale(0.1,0.1)"><path
                 id="path174"
                 style="fill:url(#linearGradient4829);fill-opacity:1;stroke:#231f20;stroke-width:4.16160011;stroke-linecap:butt;stroke-linejoin:miter;stroke-miterlimit:4;stroke-opacity:1;stroke-dasharray:10, 10;stroke-dashoffset:0"
                 d="m 1101.6133,745.988 c 0,-58.679 -34.14,-106.25 -76.25,-106.25 -42.10797,0 -76.24897,47.571 -76.24897,106.25 0,58.684 34.141,106.25 76.24897,106.25 42.11,0 76.25,-47.566 76.25,-106.25 z"
                 inkscape:connector-curvature="0" /><path
                 id="path176"
                 style="fill:none;stroke:#231f20;stroke-width:4.16160011;stroke-linecap:round;stroke-linejoin:round;stroke-miterlimit:4;stroke-opacity:1;stroke-dasharray:none"
                 d="m 772.86433,495.988 -34.289,-74.617"
                 inkscape:connector-curvature="0" /><path
                 id="path178"
                 style="fill:#231f20;fill-opacity:1;fill-rule:nonzero;stroke:none"
                 d="m 740.38833,425.309 10.109,1.175 0.059,-0.351 -11.039,-10.531 c -3.055,-4.04 -6.102,-8.079 -9.153,-12.114 1.074,4.95 2.149,9.891 3.223,14.832 l 0.805,15.239 0.253,0.207 5.743,-8.457"
                 inkscape:connector-curvature="0" /><path
                 id="path180"
                 style="fill:none;stroke:#231f20;stroke-width:4.16160011;stroke-linecap:round;stroke-linejoin:round;stroke-miterlimit:4;stroke-opacity:1;stroke-dasharray:none"
                 d="m 834.11433,565.988 -5.172,-105.472"
                 inkscape:connector-curvature="0" /><path
                 id="path182"
                 style="fill:#231f20;fill-opacity:1;fill-rule:nonzero;stroke:none"
                 d="m 829.18533,465.363 10.023,5.446 0.203,-0.34 -7.086,-15.567 c -1.488,-5.468 -2.972,-10.945 -4.461,-16.414 -0.945,5.594 -1.89,11.184 -2.836,16.77 l -5.527,16.18 0.18,0.328 9.504,-6.403"
                 inkscape:connector-curvature="0" /><path
                 id="path184"
                 style="fill:none;stroke:#231f20;stroke-width:4.16160011;stroke-linecap:round;stroke-linejoin:round;stroke-miterlimit:4;stroke-opacity:1;stroke-dasharray:none"
                 d="m 905.36433,588.488 0,-110.449"
                 inkscape:connector-curvature="0" /><path
                 id="path186"
                 style="fill:#231f20;fill-opacity:1;fill-rule:nonzero;stroke:none"
                 d="m 905.36433,482.898 9.746,5.93 0.219,-0.332 -6.312,-15.894 c -1.215,-5.54 -2.438,-11.075 -3.653,-16.614 -1.219,5.539 -2.437,11.074 -3.656,16.614 l -6.309,15.894 0.161,0.332 9.804,-5.93"
                 inkscape:connector-curvature="0" /><path
                 id="path188"
                 style="fill:none;stroke:#231f20;stroke-width:4.16160011;stroke-linecap:round;stroke-linejoin:round;stroke-miterlimit:4;stroke-opacity:1;stroke-dasharray:none"
                 d="m 977.86433,655.988 -4.265,-127.957"
                 inkscape:connector-curvature="0" /><path
                 id="path190"
                 style="fill:#231f20;fill-opacity:1;fill-rule:nonzero;stroke:none"
                 d="m 973.76333,532.887 9.937,5.593 0.207,-0.335 -6.84,-15.676 c -1.398,-5.492 -2.8,-10.985 -4.203,-16.481 -1.035,5.578 -2.066,11.149 -3.101,16.727 l -5.778,16.094 0.172,0.328 9.606,-6.25"
                 inkscape:connector-curvature="0" /><path
                 id="path192"
                 style="fill:none;stroke:#231f20;stroke-width:4.16160011;stroke-linecap:round;stroke-linejoin:round;stroke-miterlimit:4;stroke-opacity:1;stroke-dasharray:none"
                 d="m 1045.3633,685.988 -8.6,-109.718"
                 inkscape:connector-curvature="0" /><path
                 id="path194"
                 style="fill:#231f20;fill-opacity:1;fill-rule:nonzero;stroke:none"
                 d="m 1035.3633,558.488 c -2.45,8.61 -6.93,19.407 -12.03,26.278 l 13.61,-6.164 14.4,3.964 c -6.11,-5.992 -12.22,-15.957 -15.98,-24.078"
                 inkscape:connector-curvature="0" /><g
                 transform="matrix(10,0,0,10,-6.6666663,3.6666677e-7)"
                 id="g196"><text
                   id="text198"
                   transform="matrix(1,0,0,-1,16.7031,49.5988)"><tspan
                     id="tspan200"
                     sodipodi:role="line"
                     y="0"
                     x="0 3.335 5.835 7.2249999 9.4449997 10.835 12.225 14.725 17.225 19.445"
                     style="font-size:5px;font-variant:normal;font-weight:normal;writing-mode:lr-tb;fill:#551414;fill-opacity:1;fill-rule:nonzero;stroke:none;font-family:Times New Roman;-inkscape-font-specification:TimesNewRomanPSMT">Rotational</tspan><tspan
                     id="tspan202"
                     sodipodi:role="line"
                     y="6"
                     x="0 3.335 5.5549998 8.0550003 10.555"
                     style="font-size:5px;font-variant:normal;font-weight:normal;writing-mode:lr-tb;fill:#551414;fill-opacity:1;fill-rule:nonzero;stroke:none;font-family:Times New Roman;-inkscape-font-specification:TimesNewRomanPSMT">Bands</tspan></text>
</g><path
                 id="path204"
                 style="fill:none;stroke:#231f20;stroke-width:4.16160011;stroke-linecap:butt;stroke-linejoin:miter;stroke-miterlimit:4;stroke-opacity:1;stroke-dasharray:none"
                 d="m 312.86433,448.488 4.68,-8.836"
                 inkscape:connector-curvature="0" /><path
                 id="path206"
                 style="fill:none;stroke:#231f20;stroke-width:4.16160011;stroke-linecap:butt;stroke-linejoin:miter;stroke-miterlimit:4;stroke-opacity:1;stroke-dasharray:19.1504, 19.1504;stroke-dashoffset:0"
                 d="m 326.50133,422.727 67.203,-126.938"
                 inkscape:connector-curvature="0" /><path
                 id="path208"
                 style="fill:none;stroke:#231f20;stroke-width:4.16160011;stroke-linecap:butt;stroke-linejoin:miter;stroke-miterlimit:4;stroke-opacity:1;stroke-dasharray:none"
                 d="m 398.18833,287.328 4.676,-8.84"
                 inkscape:connector-curvature="0" /><path
                 id="path210"
                 style="fill:none;stroke:#231f20;stroke-width:4.16160011;stroke-linecap:butt;stroke-linejoin:miter;stroke-miterlimit:4;stroke-opacity:1;stroke-dasharray:20, 20;stroke-dashoffset:0"
                 d="m 312.86433,448.488 335,-60"
                 inkscape:connector-curvature="0" /><g
                 transform="matrix(10,0,0,10,-6.6666663,3.6666677e-7)"
                 id="g212"><text
                   id="text214"
                   transform="matrix(1,0,0,-1,42.4531,70.0988)"><tspan
                     id="tspan216"
                     sodipodi:role="line"
                     y="0"
                     x="0 2.78 4.1700001 6.3899999 7.7800002 9.1700001 11.115 12.505 13.895 16.115 18.334999"
                     style="font-size:5px;font-variant:normal;font-weight:normal;writing-mode:lr-tb;fill:#543c9e;fill-opacity:1;fill-rule:nonzero;stroke:none;font-family:Times New Roman;-inkscape-font-specification:TimesNewRomanPSMT">Statistical</tspan></text>
<text
                   id="text218"
                   transform="matrix(1,0,0,-1,42.4531,64.0988)"><tspan
                     id="tspan220"
                     y="0"
                     x="0"
                     style="font-size:5px;font-variant:normal;font-weight:normal;writing-mode:lr-tb;fill:#543c9e;fill-opacity:1;fill-rule:nonzero;stroke:none;font-family:Symbol;-inkscape-font-specification:Symbol">γ</tspan></text>
<text
                   id="text222"
                   transform="matrix(1,0,0,-1,44.50896,64.0988)"><tspan
                     id="tspan224"
                     sodipodi:role="line"
                     y="0"
                     x="0 1.665 3.3299999 5.5500002 8.0500002"
                     style="font-size:5px;font-variant:normal;font-weight:normal;writing-mode:lr-tb;fill:#543c9e;fill-opacity:1;fill-rule:nonzero;stroke:none;font-family:Times New Roman;-inkscape-font-specification:TimesNewRomanPSMT">-rays</tspan></text>
</g><path
                 id="path226"
                 style="fill:none;stroke:#231f20;stroke-width:4.16160011;stroke-linecap:butt;stroke-linejoin:miter;stroke-miterlimit:4;stroke-opacity:1;stroke-dasharray:20, 20;stroke-dashoffset:0"
                 d="m 570.36433,655.988 155,-230"
                 inkscape:connector-curvature="0" /><path
                 id="path228"
                 style="fill:none;stroke:#231f20;stroke-width:4.16160011;stroke-linecap:butt;stroke-linejoin:miter;stroke-miterlimit:4;stroke-opacity:1;stroke-dasharray:50, 20;stroke-dashoffset:0"
                 d="m 757.86433,953.488 0,-358.34"
                 inkscape:connector-curvature="0" /><path
                 id="path230"
                 style="fill:#231f20;fill-opacity:1;fill-rule:nonzero;stroke:none"
                 d="m 757.86433,597.168 4.047,2.461 0.094,-0.137 -2.621,-6.601 c -0.508,-2.301 -1.012,-4.602 -1.52,-6.903 -0.508,2.301 -1.011,4.602 -1.519,6.903 l -2.621,6.601 0.07,0.137 4.07,-2.461"
                 inkscape:connector-curvature="0" /><path
                 id="path232"
                 style="fill:none;stroke:#231f20;stroke-width:4.16160011;stroke-linecap:butt;stroke-linejoin:miter;stroke-miterlimit:4;stroke-opacity:1;stroke-dasharray:50, 20;stroke-dashoffset:0"
                 d="m 890.36433,955.988 0,-278.676"
                 inkscape:connector-curvature="0" /><path
                 id="path234"
                 style="fill:#231f20;fill-opacity:1;fill-rule:nonzero;stroke:none"
                 d="m 890.36433,679.254 3.899,2.371 0.086,-0.133 -2.524,-6.355 c -0.484,-2.219 -0.972,-4.43 -1.461,-6.649 -0.488,2.219 -0.976,4.43 -1.465,6.649 l -2.519,6.355 0.062,0.133 3.922,-2.371"
                 inkscape:connector-curvature="0" /><path
                 id="path236"
                 style="fill:none;stroke:#231f20;stroke-width:4.16160011;stroke-linecap:butt;stroke-linejoin:miter;stroke-miterlimit:4;stroke-opacity:1;stroke-dasharray:50, 20;stroke-dashoffset:0"
                 d="m 1022.8633,965.988 0,-178.125"
                 inkscape:connector-curvature="0" /><path
                 id="path238"
                 style="fill:#231f20;fill-opacity:1;fill-rule:nonzero;stroke:none"
                 d="m 1022.8633,790.477 5.25,3.195 0.12,-0.184 -3.4,-8.554 c -0.66,-2.981 -1.31,-5.961 -1.97,-8.946 -0.66,2.985 -1.31,5.965 -1.97,8.946 l -3.39,8.554 0.08,0.184 5.28,-3.195"
                 inkscape:connector-curvature="0" /><g
                 transform="matrix(10,0,0,10,-6.6666663,3.6666677e-7)"
                 id="g240"><text
                   id="text242"
                   transform="matrix(1,0,0,-1,50.7031,89.8488)"><tspan
                     id="tspan244"
                     sodipodi:role="line"
                     y="0"
                     x="0 3.6099999 5.8299999 8.3299999 9.7200003 11.385 13.885"
                     style="font-size:5px;font-variant:normal;font-weight:normal;writing-mode:lr-tb;fill:#1e2252;fill-opacity:1;fill-rule:nonzero;stroke:none;font-family:Times New Roman;-inkscape-font-specification:TimesNewRomanPSMT">Neutron</tspan><tspan
                     id="tspan246"
                     sodipodi:role="line"
                     y="6"
                     x="0 3.0550001 5.5549998 7.7750001 10.275 12.775 14.44 16.66 18.049999 19.440001 21.940001"
                     style="font-size:5px;font-variant:normal;font-weight:normal;writing-mode:lr-tb;fill:#1e2252;fill-opacity:1;fill-rule:nonzero;stroke:none;font-family:Times New Roman;-inkscape-font-specification:TimesNewRomanPSMT">Evaporation</tspan></text>
</g><g
                 transform="matrix(10,0,0,10,-6.6666663,3.6666677e-7)"
                 id="g248"><text
                   id="text250"
                   transform="matrix(1,0,0,-1,74.4531,53.8488)"><tspan
                     id="tspan252"
                     sodipodi:role="line"
                     y="0"
                     x="0 2.7807629"
                     style="font-size:5px;font-variant:normal;font-weight:normal;writing-mode:lr-tb;fill:#231f20;fill-opacity:1;fill-rule:nonzero;stroke:none;font-family:Arial;-inkscape-font-specification:ArialMT">5n</tspan><tspan
                     id="tspan254"
                     sodipodi:role="line"
                     y="-8.5"
                     x="13.75 16.530764"
                     style="font-size:5px;font-variant:normal;font-weight:normal;writing-mode:lr-tb;fill:#231f20;fill-opacity:1;fill-rule:nonzero;stroke:none;font-family:Arial;-inkscape-font-specification:ArialMT">4n</tspan><tspan
                     id="tspan256"
                     sodipodi:role="line"
                     y="-18.25"
                     x="26.75 29.530756"
                     style="font-size:5px;font-variant:normal;font-weight:normal;writing-mode:lr-tb;fill:#231f20;fill-opacity:1;fill-rule:nonzero;stroke:none;font-family:Arial;-inkscape-font-specification:ArialMT">3n</tspan></text>
</g><g
                 transform="matrix(10,0,0,10,-6.6666663,3.6666677e-7)"
                 id="g258"><text
                   id="text260"
                   transform="matrix(1,0,0,-1,108.453,19.0988)"><tspan
                     id="tspan262"
                     sodipodi:role="line"
                     y="0"
                     x="0 3.6099999 6.1100001 7.3600001 10.14 11.53 13.75 15.14 17.360001"
                     style="font-size:5px;font-variant:normal;font-weight:normal;writing-mode:lr-tb;fill:#88251c;fill-opacity:1;fill-rule:nonzero;stroke:none;font-family:Times New Roman;-inkscape-font-specification:TimesNewRomanPSMT">No States</tspan></text>
</g><g
                 transform="matrix(10,0,0,10,-6.6666663,3.6666677e-7)"
                 id="g264"><text
                   id="text266"
                   transform="matrix(0.662729,-0.748859,-0.748859,-0.662729,114.75,97.1273)"><tspan
                     id="tspan268"
                     sodipodi:role="line"
                     y="0"
                     x="0 2.7811379 5.2811422 7.2268763 8.6160269 11.116031"
                     style="font-size:5.00000858px;font-variant:normal;font-weight:normal;writing-mode:lr-tb;fill:#231f20;fill-opacity:1;fill-rule:nonzero;stroke:none;font-family:Times New Roman;-inkscape-font-specification:TimesNewRomanPSMT">Fusion</tspan></text>
<text
                   id="text270"
                   transform="matrix(1,0,0,-1,13.2031,101.599)"><tspan
                     id="tspan272"
                     y="0"
                     x="0"
                     style="font-size:5px;font-variant:normal;font-weight:normal;writing-mode:lr-tb;fill:#231f20;fill-opacity:1;fill-rule:nonzero;stroke:none;font-family:Arial;-inkscape-font-specification:ArialMT">E</tspan></text>
<text
                   id="text274"
                   transform="matrix(1,0,0,-1,16.53826,99.93416)"><tspan
                     id="tspan276"
                     sodipodi:role="line"
                     y="0"
                     x="0 1.6207401 3.0782399"
                     style="font-size:2.91499996px;font-variant:normal;font-weight:normal;writing-mode:lr-tb;fill:#231f20;fill-opacity:1;fill-rule:nonzero;stroke:none;font-family:Arial;-inkscape-font-specification:ArialMT">exc</tspan></text>
</g><path
                 id="path278"
                 style="fill:none;stroke:#231f20;stroke-width:4.16160011;stroke-linecap:butt;stroke-linejoin:miter;stroke-miterlimit:4;stroke-opacity:1;stroke-dasharray:none"
                 d="m 1085.3633,970.988 -999.998767,0"
                 inkscape:connector-curvature="0" /></g></g></g></g></g></g></svg>