<?xml version="1.0" encoding="UTF-8" standalone="no"?>
<!-- Created with Inkscape (http://www.inkscape.org/) -->

<svg
   xmlns:dc="http://purl.org/dc/elements/1.1/"
   xmlns:cc="http://creativecommons.org/ns#"
   xmlns:rdf="http://www.w3.org/1999/02/22-rdf-syntax-ns#"
   xmlns:svg="http://www.w3.org/2000/svg"
   xmlns="http://www.w3.org/2000/svg"
   xmlns:sodipodi="http://sodipodi.sourceforge.net/DTD/sodipodi-0.dtd"
   xmlns:inkscape="http://www.inkscape.org/namespaces/inkscape"
   id="svg2"
   version="1.1"
   inkscape:version="0.48.4 r9939"
   width="862"
   height="373"
   xml:space="preserve"
   sodipodi:docname="smth_bg.ps"><metadata
     id="metadata8"><rdf:RDF><cc:Work
         rdf:about=""><dc:format>image/svg+xml</dc:format><dc:type
           rdf:resource="http://purl.org/dc/dcmitype/StillImage" /><dc:title></dc:title></cc:Work></rdf:RDF></metadata><defs
     id="defs6" /><sodipodi:namedview
     pagecolor="#ffffff"
     bordercolor="#666666"
     borderopacity="1"
     objecttolerance="10"
     gridtolerance="10"
     guidetolerance="10"
     inkscape:pageopacity="0"
     inkscape:pageshadow="2"
     inkscape:window-width="1600"
     inkscape:window-height="848"
     id="namedview4"
     showgrid="false"
     inkscape:zoom="0.67425131"
     inkscape:cx="396.93923"
     inkscape:cy="305.95808"
     inkscape:window-x="-8"
     inkscape:window-y="-8"
     inkscape:window-maximized="1"
     inkscape:current-layer="g10" /><g
     id="g10"
     inkscape:groupmode="layer"
     inkscape:label="ink_ext_XXXXXX"
     transform="matrix(1.25,0,0,-1.25,0,373)"><g
       id="g12"
       transform="matrix(0,-0.1,0.1,0,-43.516816,466.25114)"><path
         d="m 4101.48,936.742 0,4.973 -0.95,0 0,4.973 -2.96,0 0,4.968 -15.87,0 0,4.973 -72.82,0 0,4.973 32.26,0 0,4.972 29.16,0 0,4.973 1.75,0 0,4.969 2.65,0 0,4.972 3.95,0 0,4.973 -1.2,0 0,4.973 -0.93,0 0,4.972 -2.47,0 0,4.974 -7.21,0 0,4.97 -55.68,0 0,4.97 -10.27,0 0,4.97 23.75,0 0,4.98 -84.58,0 0,4.97 55.44,0 0,4.97 39.86,0 0,4.97 14.77,0 0,4.97 -6.32,0 0,4.98 -3.98,0 0,4.97 -16.63,0 0,4.97 -40.94,0 0,4.97 22,0 0,4.97 2.61,0 0,4.97 13.34,0 0,4.98 -5.22,0 0,4.97 -63.8,0 0,4.97 -61.18,0 0,4.97 65.4,0 0,4.97 30.27,0 0,4.98 -15.23,0 0,4.97 -100.86,0 0,4.97 3.41,0 0,4.97 93.23,0 0,4.97 -27.2,0 0,4.98 -13.92,0 0,4.97 -2.18,0 0,4.97 36.38,0 0,4.97 -10.4,0 0,4.97 -9.03,0 0,4.98 -0.17,0 0,4.97 -7.35,0 0,4.97 -98.45,0 0,4.97 -233.93,0 0,4.97 201.97,0 0,4.97 -7.61,0 0,4.98 31.95,0 0,4.97 -125.46,0 0,4.97 -397.51,0 0,4.97 338.32,0 0,4.97 56.29,0 0,4.98 -260.73,0 0,4.97 379.54,0 0,4.97"
         style="fill:none;stroke:#ff0000;stroke-width:4.14326;stroke-linecap:round;stroke-linejoin:round;stroke-miterlimit:10;stroke-opacity:1;stroke-dasharray:none"
         id="path14"
         inkscape:connector-curvature="0" /><path
         d="m 3816.74,1215.17 67.62,0 0,4.97 -75.41,0 0,4.97 -40.15,0 0,4.98 126.37,0 0,4.97 -1.39,0 0,4.97 -28.67,0 0,4.97 33.52,0 0,4.97 -27.93,0 0,4.98 -230.03,0 0,4.97 47.04,0 0,4.97 209.78,0 0,4.97 13.05,0 0,4.97 -58.81,0 0,4.97 -89.81,0 0,4.98 45.46,0 0,4.97 -236.15,0 0,4.97 -116.99,0 0,4.97 372.59,0 0,4.97 27.59,0 0,4.98 26.31,0 0,4.97 -53.3,0 0,4.97 -467.78,0 0,4.97 -32.42,0 0,4.97 443.77,0 0,4.98 -43.76,0 0,4.97 -33.37,0 0,4.97 150.07,0 0,4.97 -29.65,0 0,4.97 35.3,0 0,4.98 -9.4,0 0,4.97 -110.17,0 0,4.97 -9.47,0 0,4.97 -97.99,0 0,4.97 181.27,0 0,4.97 67.47,0 0,4.98 7.69,0 0,4.97 -25.46,0 0,4.97 -133.95,0 0,4.97 76.75,0 0,4.97 -29.56,0 0,4.98 -73.54,0 0,4.97 107.64,0 0,4.97 -6.75,0 0,4.97 2.02,0 0,4.97 57.18,0 0,4.98 -25.89,0 0,4.97 -199.38,0 0,4.97 30.21,0 0,4.97 114.33,0 0,4.97 -31.7,0 0,4.98 -96.93,0 0,4.97 87.65,0 0,4.97 -74.06,0 0,4.97 119.79,0 0,4.97 40.6,0 0,4.98 -184.65,0 0,4.97"
         style="fill:none;stroke:#ff0000;stroke-width:4.14326;stroke-linecap:round;stroke-linejoin:round;stroke-miterlimit:10;stroke-opacity:1;stroke-dasharray:none"
         id="path16"
         inkscape:connector-curvature="0" /><path
         d="m 3633.29,1493.6 -160.07,0 0,4.97 202.11,0 0,4.97 36.35,0 0,4.97 -99.35,0 0,4.97 -144.85,0 0,4.98 174.25,0 0,4.97 127.11,0 0,4.97 45.85,0 0,4.97 -10.53,0 0,4.97 -52.49,0 0,4.98 -29.25,0 0,4.97 32.38,0 0,4.97 -13.12,0 0,4.97 -38.28,0 0,4.97 -102.88,0 0,4.98 -68.3,0 0,4.97 -200.88,0 0,4.97 217.06,0 0,4.97 215.51,0 0,4.97 -10.71,0 0,4.98 -128.77,0 0,4.97 7.58,0 0,4.97 -172.71,0 0,4.97 -1425.99,0 0,4.97 -304.28,0 0,4.97 1642.91,0 0,4.98 335.46,0 0,4.97 -2.24,0 0,4.97 23.22,0 0,4.97 -97.34,0 0,4.97 -10.45,0 0,4.98 127.99,0 0,4.97 46.22,0 0,4.97 -85.85,0 0,4.97 50.92,0 0,4.97 44.48,0 0,4.98 -78.95,0 0,4.97 13.88,0 0,4.97 62.67,0 0,4.97 -80.07,0 0,4.97 -58.98,0 0,4.98 53.12,0 0,4.97 -144.61,0 0,4.97 -20.75,0 0,4.97 80.17,0 0,4.97 -114.25,0 0,4.97 -0.75,0 0,4.98 165.44,0 0,4.97 33.13,0 0,4.97 -135.01,0 0,4.97 9.2,0 0,4.97 -29.79,0 0,4.98 -141.14,0 0,4.97 170.31,0 0,4.97 96.1,0 0,4.97 14.38,0 0,4.97"
         style="fill:none;stroke:#ff0000;stroke-width:4.14326;stroke-linecap:round;stroke-linejoin:round;stroke-miterlimit:10;stroke-opacity:1;stroke-dasharray:none"
         id="path18"
         inkscape:connector-curvature="0" /><path
         d="m 3698.45,1772.02 -71.1,0 0,4.98 -21.63,0 0,4.97 113.59,0 0,4.97 49.1,0 0,4.97 -28.53,0 0,4.97 -7.65,0 0,4.98 -54.64,0 0,4.97 39,0 0,4.97 7.9,0 0,4.97 50.11,0 0,4.97 4.87,0 0,4.97 -23.76,0 0,4.98 5.63,0 0,4.97 17.96,0 0,4.97 5.51,0 0,4.97 23.14,0 0,4.97 -41.28,0 0,4.98 -38.68,0 0,4.97 21.5,0 0,4.97 -36.79,0 0,4.97 28.16,0 0,4.97 2.19,0 0,4.98 -55.25,0 0,4.97 19.47,0 0,4.97 70.67,0 0,4.97 22.2,0 0,4.97 10.75,0 0,4.98 1.41,0 0,4.97 -51.19,0 0,4.97 -40,0 0,4.97 -4.49,0 0,4.97 7.2,0 0,4.98 5.14,0 0,4.97 7.85,0 0,4.97 -30.06,0 0,4.97 -1.94,0 0,4.97 19.01,0 0,4.97 21.18,0 0,4.98 9.46,0 0,4.97 -8.57,0 0,4.97 0.06,0 0,4.97 -79.18,0 0,4.97 20.43,0 0,4.98 58.38,0 0,4.97 53.32,0 0,4.97 17.53,0 0,4.97 -106.71,0 0,4.97 -267.06,0 0,4.98 -10.36,0 0,4.97 173.88,0 0,4.97 193.01,0 0,4.97 59.37,0 0,4.97 9.33,0 0,4.98 7.08,0 0,4.97 -0.58,0 0,4.97 -12.39,0 0,4.97"
         style="fill:none;stroke:#ff0000;stroke-width:4.14326;stroke-linecap:round;stroke-linejoin:round;stroke-miterlimit:10;stroke-opacity:1;stroke-dasharray:none"
         id="path20"
         inkscape:connector-curvature="0" /><path
         d="m 3862,2050.45 -26.2,0 0,4.97 -46.66,0 0,4.97 -32.54,0 0,4.98 1.18,0 0,4.97 18.77,0 0,4.97 -43.17,0 0,4.97 6.98,0 0,4.97 67.78,0 0,4.98 31.18,0 0,4.97 -13.12,0 0,4.97 -0.56,0 0,4.97 1.62,0 0,4.97 -26.6,0 0,4.98 6.96,0 0,4.97 28.59,0 0,4.97 7.6,0 0,4.97 31.37,0 0,4.97 6.86,0 0,4.98 -13.34,0 0,4.97 -47.11,0 0,4.97 -21.55,0 0,4.97 -60.55,0 0,4.97 -134.64,0 0,4.97 -9.9,0 0,4.98 44.29,0 0,4.97 -55.27,0 0,4.97 -34.66,0 0,4.97 86.53,0 0,4.97 75.2,0 0,4.98 28.05,0 0,4.97 -11.52,0 0,4.97 -12.11,0 0,4.97 32.02,0 0,4.97 39.84,0 0,4.98 16.37,0 0,4.97 16.22,0 0,4.97 28.46,0 0,4.97 14.77,0 0,4.97 9.18,0 0,4.98 3.13,0 0,4.97 -6.18,0 0,4.97 -17.31,0 0,4.97 -10.28,0 0,4.97 25.67,0 0,4.97 19.22,0 0,4.98 -4.41,0 0,4.97 -1.68,0 0,4.97 -4.28,0 0,4.97 16.46,0 0,4.97 20.1,0 0,4.98 -1.08,0 0,4.97 -15.95,0 0,4.97 -47.21,0 0,4.97 -90.51,0 0,4.97 -267.01,0 0,4.98 -658.08,0 0,4.97"
         style="fill:none;stroke:#ff0000;stroke-width:4.14326;stroke-linecap:round;stroke-linejoin:round;stroke-miterlimit:10;stroke-opacity:1;stroke-dasharray:none"
         id="path22"
         inkscape:connector-curvature="0" /><path
         d="m 2832.92,2328.88 260.4,0 0,4.97 567.38,0 0,4.97 153.28,0 0,4.97 72.61,0 0,4.98 26.31,0 0,4.97 17.14,0 0,4.97 12.51,0 0,4.97 -0.69,0 0,4.97 -7.23,0 0,4.98 -18.83,0 0,4.97 -43,0 0,4.97 -60.72,0 0,4.97 -51.28,0 0,4.97 0.81,0 0,4.97 6.86,0 0,4.98 58.57,0 0,4.97 36.89,0 0,4.97 -33.79,0 0,4.97 -79.74,0 0,4.97 18.19,0 0,4.98 62.44,0 0,4.97 44.52,0 0,4.97 33.25,0 0,4.97 3.94,0 0,4.97 5.76,0 0,4.98 17.69,0 0,4.96 4.99,0 0,4.98 -1.22,0 0,4.97 -4.19,0 0,4.97 -44.2,0 0,4.98 -96.27,0 0,4.97 -36.24,-0.01 0,4.98 -57.15,0 0,4.97 -90.82,0 0,4.97 111.1,0 0,4.97 144.47,0 0,4.98 55.79,0 0,4.97 12.08,0 0,4.97 2.61,0 0,4.97 13.24,0 0,4.97 0.27,0 0,4.98 -24.49,0 0,4.97 -71.03,0 0,4.97 -44.11,0 0,4.97 75.41,0 0,4.97 31.43,0 0,4.98 1.22,0 0,4.96 24.67,0 0,4.98 25.73,0 0,4.97 -6.94,0 0,4.97 -22.68,0 0,4.98 -17.95,0 0,4.96 17.63,0 0,4.98 10.59,0 0,4.97 2.14,0 0,4.97 13.48,0 0,4.97"
         style="fill:none;stroke:#ff0000;stroke-width:4.14326;stroke-linecap:round;stroke-linejoin:round;stroke-miterlimit:10;stroke-opacity:1;stroke-dasharray:none"
         id="path24"
         inkscape:connector-curvature="0" /><path
         d="m 3965.75,2607.3 -6.82,0 0,4.97 -33.97,0 0,4.98 18.52,0 0,4.97 36.96,0 0,4.97 9.98,0 0,4.97 -6.19,0 0,4.97 -11.25,0 0,4.98 -11.41,0 0,4.97 1.01,0 0,4.97 9.2,0 0,4.97 -11.37,0 0,4.98 -23.31,0 0,4.96 15.83,0 0,4.98 16.88,0 0,4.97 2.84,0 0,4.97 -32.51,0 0,4.98 -39.07,0 0,4.96 35.66,0 0,4.98 14.64,0 0,4.97 -45.8,0 0,4.97 -14.67,0 0,4.97 53.9,0 0,4.97 35.54,0 0,4.98 4.53,0 0,4.97 -11.83,0 0,4.97 -9.42,0 0,4.97 -0.48,0 0,4.97 6.49,0 0,4.98 -18.05,0 0,4.97 -43.17,0 0,4.97 -30.37,0 0,4.97 12.96,0 0,4.97 0.19,0 0,4.98 -26.02,0 0,4.97 -23.65,0 0,4.97 5.44,0 0,4.97 19.1,0 0,4.98 18.58,0 0,4.96 -23.09,0 0,4.98 -141.25,0 0,4.97 -199.99,0 0,4.97 108.8,0 0,4.98 194.67,0 0,4.96 86.74,0 0,4.98 30.18,0 0,4.97 -9.79,0 0,4.97 -30.15,0 0,4.97 -9.3,0 0,4.97 -1.05,0 0,4.98 9.69,0 0,4.97 33.5,0 0,4.97 -4.5,0 0,4.97 -30.26,0 0,4.97 2.44,0 0,4.98 31.82,0 0,4.97 24.01,0 0,4.97"
         style="fill:none;stroke:#ff0000;stroke-width:4.14326;stroke-linecap:round;stroke-linejoin:round;stroke-miterlimit:10;stroke-opacity:1;stroke-dasharray:none"
         id="path26"
         inkscape:connector-curvature="0" /><path
         d="m 3957.11,2885.73 -1.63,0 0,4.97 -45.79,0 0,4.97 -72.98,0 0,4.97 24.84,0 0,4.98 75.63,0 0,4.97 27.41,0 0,4.97 3.71,0 0,4.97 4.49,0 0,4.97 -0.6,0 0,4.98 -4.23,0 0,4.97 -15.59,0 0,4.97 9.96,0 0,4.97 25.23,0 0,4.97 7.05,0 0,4.98 -4.7,0 0,4.97 9.25,0 0,4.97 -7.62,0 0,4.97 -17.77,0 0,4.97 -0.19,0 0,4.98 11.15,0 0,4.97 3.02,0 0,4.97 -8.06,0 0,4.97 2.72,0 0,4.97 9.69,0 0,4.97 6.03,0 0,4.98 5.53,0 0,4.97 10.38,0 0,4.97 6.28,0 0,4.97 0.39,0 0,4.97 -3.44,0 0,4.98 -3.02,0 0,4.97 1.43,0 0,4.97 -0.15,0 0,4.97 -9.61,0 0,4.97 -49.6,0 0,4.97 -58.42,0 0,4.97 16.58,0 0,4.98 48.97,0 0,4.97 8.31,0 0,4.97 -11.94,0 0,4.97 7.05,0 0,4.97 29.87,0 0,4.98 18.17,0 0,4.97 6.96,0 0,4.97 4.56,0 0,4.97 1.51,0 0,4.97 -3.77,0 0,4.98 -0.42,0 0,4.97 5.12,0 0,4.97 -3.71,0 0,4.97 -10.44,0 0,4.97 -0.64,0 0,4.98 3.85,0 0,4.96 3.38,0 0,4.98 2.3,0 0,4.97 -12.12,0 0,4.97"
         style="fill:none;stroke:#ff0000;stroke-width:4.14326;stroke-linecap:round;stroke-linejoin:round;stroke-miterlimit:10;stroke-opacity:1;stroke-dasharray:none"
         id="path28"
         inkscape:connector-curvature="0" /><path
         d="m 4011.49,3164.15 -44.5,0 0,4.97 -38.18,0 0,4.97 33.11,0 0,4.98 37.18,0 0,4.97 5.91,0 0,4.97 -0.89,0 0,4.97 9.32,0 0,4.97 12.88,0 0,4.98 5.81,0 0,4.97 -2.76,0 0,4.97 -1.64,0 0,4.97 3.63,0 0,4.97 3.34,0 0,4.98 -4.69,0 0,4.97 -2.75,-0.01 0,4.98 -3.3,0 0,4.97 1.16,0 0,4.97 2.63,0 0,4.97 -1.09,0 0,4.97 -3.88,0 0,4.98 -5.26,0 0,4.97 -4.47,0 0,4.97 -4.15,0 0,4.97 1.45,0 0,4.97 -3.6,0 0,4.98 -9.84,0 0,4.97 5.32,0 0,4.97 16.2,0 0,4.97 14.07,0 0,4.97 5.61,0 0,4.97 1.18,0 0,4.98 -0.72,0 0,4.97 -2.28,0 0,4.97 -0.4,0 0,4.97 2.72,0 0,4.97 5.49,0 0,4.97 -3.71,0 0,4.98 -24.19,0 0,4.97 -33.44,0 0,4.97 -4.27,0 0,4.97 23.93,0 0,4.97 18.27,0 0,4.97 14.65,0 0,4.98 13.48,0 0,4.97 5.95,0 0,4.97 5.14,0 0,4.97 5.2,0 0,4.97 0.22,0 0,4.98 -1.53,0 0,4.97 -4.93,0 0,4.97 -0.54,0 0,4.97 6.61,0 0,4.97 3.85,0 0,4.98 -2.3,0 0,4.97 -3.02,0 0,4.97 -1,0 0,4.97"
         style="fill:none;stroke:#ff0000;stroke-width:4.14326;stroke-linecap:round;stroke-linejoin:round;stroke-miterlimit:10;stroke-opacity:1;stroke-dasharray:none"
         id="path30"
         inkscape:connector-curvature="0" /><path
         d="m 4062.47,3442.57 -1.3,0 0,4.97 -1.76,0 0,4.97 5.63,0 0,4.97 5.6,0 0,4.98 0.82,0 0,4.97 -0.16,0 0,4.97 -1.49,0 0,4.97 -3.21,0 0,4.97 -2.34,0 0,4.98 2.26,0 0,4.97 3.97,0 0,4.97 5.82,0 0,4.97 3.92,0 0,4.97 0.66,0 0,4.98 -1.39,0 0,4.97 -0.76,-0.01 0,4.98 1.3,0 0,4.97 -0.06,0 0,4.97 -4.18,0 0,4.98 -5.97,0 0,4.96 -1.76,0 0,4.98 6.96,0 0,4.97 4.45,0 0,4.97 -2.84,0 0,4.97 -1.11,0 0,4.97 5.9,0 0,4.98 8.31,0 0,4.97 4.41,0 0,4.97 2.82,0 0,4.97 1.51,0 0,4.97 0.15,0 0,4.98 -0.19,0 0,4.97 -1.51,0 0,4.97 -1.91,0 0,4.97 -0.85,0 0,4.97 -0.29,0 0,4.97 1.57,0 0,4.97 2.26,0 0,4.98 2.76,0 0,4.97 0.93,0 0,4.97 -1.12,0 0,4.97 -3.67,0 0,4.97 -12.09,0 0,4.98 -30.13,0 0,4.97 -19.96,0 0,4.97 12.36,0 0,4.97 27.1,0 0,4.97 13.84,0 0,4.97 3.89,0 0,4.98 0.27,0 0,4.97 0.27,0 0,4.97 0.17,0 0,4.97 0.85,0 0,4.97 -2.16,0 0,4.98 -2.13,0 0,4.97 -2.45,0 0,4.97"
         style="fill:none;stroke:#ff0000;stroke-width:4.14326;stroke-linecap:round;stroke-linejoin:round;stroke-miterlimit:10;stroke-opacity:1;stroke-dasharray:none"
         id="path32"
         inkscape:connector-curvature="0" /><path
         d="m 4086.44,3720.99 -2.94,0 0,4.97 -9.63,0 0,4.97 -7.07,0 0,4.97 7.57,0 0,4.98 14.06,0 0,4.97 7.86,0 0,4.97 2.77,0 0,4.97 2.49,0 0,4.97 3.52,0 0,4.97 2.65,0 0,4.98 -0.68,0 0,4.97 1.09,0 0,4.97 3.69,0 0,4.97 2.55,0 0,4.97 0.74,0 0,4.98 0.77,0 0,4.97 -0.27,0 0,4.97 1.43,0 0,4.97 0.98,0 0,4.97 1.44,0 0,4.98 1.21,0 0,4.96 0.43,0 0,4.98 -0.08,0 0,4.97 -0.91,0 0,4.97 -0.48,0 0,4.97 -1.47,0 0,4.97 0.56,0 0,4.98 2.71,0 0,4.97 1.72,0 0,4.97 -0.89,0 0,4.97 -4.83,0 0,4.97 -7.1,0 0,4.98 -1.78,0 0,4.97 5.7,0 0,4.97 6.77,0 0,4.97 3.98,0 0,4.97 1.82,0 0,4.98 0.75,0 0,4.97 0.97,-0.01 0,4.98 0.81,0 0,4.97 0.99,0 0,4.97 0.89,0 0,4.97 0.23,0 0,4.97 0.66,0 0,4.98 -0.35,0 0,4.97 0.39,0 0,4.97 0.71,0 0,4.97 0.43,0 0,4.97 0.27,0 0,4.98 0.39,0 0,4.97 -0.59,0 0,4.97 -0.15,0 0,4.97 0.77,0 0,4.97 0.49,0 0,4.97 0.46,0 0,4.98 1.33,0 0,4.97"
         style="fill:none;stroke:#ff0000;stroke-width:4.14326;stroke-linecap:round;stroke-linejoin:round;stroke-miterlimit:10;stroke-opacity:1;stroke-dasharray:none"
         id="path34"
         inkscape:connector-curvature="0" /><path
         d="m 4136.27,3999.41 -0.5,0 0,4.97 0.33,0 0,4.97 0.66,0 0,4.97 0.38,0 0,4.97 -0.15,0 0,4.98 0.12,0 0,4.97 -0.66,0 0,4.97 0.37,0 0,4.97 1.27,0 0,4.97 1.24,0 0,4.98 0.42,0 0,4.97 -0.77,0 0,4.97 -2.61,0 0,4.97 -7.83,0 0,4.97 -11.52,0 0,4.97 -5.97,0 0,4.98 8.46,0 0,4.97 12.1,0 0,4.97 6.75,0 0,4.97 2.73,0 0,4.97 1.31,0 0,4.98 1.24,0 0,4.97 1.43,0 0,4.97 -0.12,0 0,4.97 0.39,0 0,4.97 0.14,0 0,4.97 0.11,0 0,4.97 0.48,0 0,4.98 -0.19,0 0,4.97 0.48,0 0,4.97 0.51,0 0,4.97 0.4,0 0,4.97 -0.02,0 0,4.98 0.16,0 0,4.97 0.17,0 0,4.97 -0.25,0 0,4.97 0.76,0 0,4.97 0.75,0 0,9.95 0.23,-0.01 0,4.98 0.16,0 0,4.97 0.5,0 0,4.97 0.33,0 0,4.98 -0.62,-0.01 0,4.97 -0.52,0 0,4.98 -1.55,0 0,4.97 -1.64,0 0,4.97 -0.58,0 0,4.97 1.43,0 0,4.97 2.32,0 0,4.98 0.98,0 0,4.97 0.66,0 0,4.97 0.7,0 0,4.97 0.65,0 0,4.97 -0.13,0 0,4.98 -0.43,0 0,4.97"
         style="fill:none;stroke:#ff0000;stroke-width:4.14326;stroke-linecap:round;stroke-linejoin:round;stroke-miterlimit:10;stroke-opacity:1;stroke-dasharray:none"
         id="path36"
         inkscape:connector-curvature="0" /><path
         d="m 4151.33,4277.83 0.12,0 0,4.97 0.23,0 0,4.97 0.25,0 0,4.97 0.06,0 0,4.97 -0.52,0 0,4.98 -0.52,-0.01 0,4.98 -0.97,0 0,4.97 0.37,0 0,4.97 0.13,0 0,4.97 0.74,0 0,4.97 -0.33,0 0,4.98 0.31,0 0,4.97 -0.08,0 0,4.97 -0.37,0 0,4.97 -0.98,0 0,4.97 -1.7,0 0,4.98 -1.69,0 0,4.97 0.58,0 0,4.97 1.84,0 0,4.97 1.47,0 0,4.97 1.51,0 0,4.97 0.17,0 0,4.98 0.25,0 0,4.97 -0.66,0 0,4.97 -0.11,0 0,4.97 0.44,0 0,4.97 0.51,0 0,4.98 0.32,-0.01 0,4.98 -0.13,0 0,4.97 0.66,0 0,4.97 1.04,0 0,4.97 1.03,0 0,4.97 0.4,0 0,4.97 0.5,0 0,4.98 0.47,0 0,4.97 0.13,0 0,4.97 -0.35,0 0,4.97 0.1,0 0,4.97 0.83,0 0,4.98 0.62,0 0,4.97 1.07,0 0,4.97 0.34,0 0,4.97 -0.02,0 0,4.97 0.04,0 0,4.98 0.06,-0.01 0,4.97 -0.25,0 0,4.98 0.52,0 0,4.97 0.19,0 0,4.97 0.16,0 0,4.98 0.39,-0.01 0,4.97 0.15,0 0,4.98 0.14,0 0,4.97 -0.39,0 0,4.97 0,0 0,4.97 0.5,0 0,4.97 0.56,0 0,4.98"
         style="fill:none;stroke:#ff0000;stroke-width:4.14326;stroke-linecap:round;stroke-linejoin:round;stroke-miterlimit:10;stroke-opacity:1;stroke-dasharray:none"
         id="path38"
         inkscape:connector-curvature="0" /><path
         d="m 4161.46,4556.25 0.06,0 0,4.97 0.27,0 0,4.97 0.43,0 0,4.97 0.52,0 0,4.97 0.21,0 0,4.98 0.21,0 0,4.97 -0.15,-0.01 0,4.98 0.52,0 0,4.97 -0.17,0 0,4.97 0.35,0 0,4.97 0.25,0 0,4.97 -0.08,0 0,4.98 0.25,0 0,4.97 0.08,0 0,4.97 0.19,0 0,4.97 0.12,0 0,4.97 -0.2,0 0,4.98 0.24,0 0,4.97 -0.2,0 0,4.97 -1.25,0 0,4.97 -0.93,0 0,4.97 -0.04,0 0,4.98 0.02,0 0,4.97 -0.25,0 0,4.97 0.39,0 0,4.97 0.61,0 0,4.97 0.12,0 0,4.97 -0.27,0 0,4.98 -0.06,-0.01 0,4.98 0.75,0 0,4.97 -0.11,0 0,4.97 -0.08,0 0,4.97 0.79,0 0,4.97 0.83,0 0,4.98 1.24,0 0,4.97 0.64,0 0,4.97 0.21,0 0,4.97 0.23,0 0,4.97 0.16,0 0,4.97 0.04,0 0,4.98 0.05,0 0,4.97 0.01,0 0,4.97 0.31,0 0,4.97 0.3,0 0,4.97 -0.15,0 0,4.98 0.08,-0.01 0,4.98 0.19,0 0,19.89 0.02,-0.01 0,4.97 0.06,0 0,4.98 0.13,0 0,4.97 0.39,0 0,4.97 0.14,0 0,4.97 0.15,0 0,4.97"
         style="fill:none;stroke:#ff0000;stroke-width:4.14326;stroke-linecap:round;stroke-linejoin:round;stroke-miterlimit:10;stroke-opacity:1;stroke-dasharray:none"
         id="path40"
         inkscape:connector-curvature="0" /><path
         d="m 4169.08,4834.66 0.37,0 0,4.98 0.21,0 0,4.97 0.14,0 0,4.97 0.11,0 0,4.97 -0.12,0 0,4.97 0.18,0 0,4.98 -0.2,0 0,4.97 0.2,-0.01 0,4.98 -0.02,0 0,4.97 -0.08,0 0,4.97 0.12,0 0,4.98 -0.14,-0.01 0,4.97 -0.11,0 0,4.98 -0.37,0 0,4.97 -0.37,0 0,4.97 -0.29,0 0,4.97 -0.08,0 0,4.97 -0.29,0 0,4.98 -0.17,0 0,4.97 -0.04,0 0,4.97 -0.11,0 0,4.97 -0.16,0 0,9.95 -0.11,0 0,4.97 0.11,0 0,4.97 -0.04,0 0,4.97 0.06,0 0,4.97 0.14,0 0,4.98 0.5,0 0,4.97 0.52,-0.01 0,4.98 -0.06,0 0,4.97 0.06,0 0,4.97 0.35,0 0,4.97 0.31,0 0,4.97 0.23,0 0,4.98 0.58,0 0,4.97 0.31,0 0,4.97 0.38,0 0,4.97 0.12,0 0,4.97 0.29,0 0,4.98 0.18,0 0,4.97 0.19,0 0,4.97 -0.14,0 0,4.97 -0.07,0 0,4.97 -0.1,0 0,4.97 -0.35,0 0,4.98 0.89,-0.01 0,4.98 0.31,0 0,4.97 0.48,0 0,4.97 -0.02,0 0,4.97 0.43,0 0,4.98 0.08,-0.01 0,4.98 0.06,0 0,9.94 0.11,0 0,4.97 -0.29,0 0,4.97"
         style="fill:none;stroke:#ff0000;stroke-width:4.14326;stroke-linecap:round;stroke-linejoin:round;stroke-miterlimit:10;stroke-opacity:1;stroke-dasharray:none"
         id="path42"
         inkscape:connector-curvature="0" /><path
         d="m 4173.37,5113.08 -0.25,0 0,4.97 0.06,0 0,4.98 0.29,0 0,4.97 0.6,0 0,4.97 0.23,0 0,4.97 0.31,0 0,4.97 -0.04,0 0,4.98 0.14,0 0,4.97 0.36,0 0,4.97 -0.02,0 0,4.97 0.1,0 0,4.97 0.02,0 0,4.98 0.31,-0.01 0,9.95 0.19,0 0,4.97 -0.27,0 0,4.97 0.23,0 0,4.98 0.16,-0.01 0,4.97 -0.12,0 0,4.98 0.27,0 0,4.97 0.08,0 0,4.97 0.23,0 0,4.97 0.23,0 0,4.97 -0.07,0 0,4.98 0.15,0 0,4.97 0.06,0 0,9.94 0.15,0 0,4.97 0.08,0 0,4.98 -0.12,0 0,4.97 0.14,-0.01 0,4.98 0.27,0 0,4.97 -0.15,0 0,4.97 0.13,0 0,4.98 0.02,-0.01 0,4.97 0.12,0 0,4.98 0.03,0 0,4.97 0.06,0 0,4.97 0.16,0 0,4.97 0.08,0 0,4.97 0.13,0 0,4.98 -0.06,0 0,4.97 -0.04,0 0,4.97 0.04,0 0,4.97 0.14,0 0,4.97 0.11,0 0,4.98 0.02,0 0,4.97 0.1,-0.01 0,4.98 0.15,0 0,4.97 -0.07,0 0,4.97 0.1,0 0,4.97 0.07,0 0,4.98 -0.02,-0.01 0,4.98 0.06,0 0,4.97 0.19,0 0,9.94"
         style="fill:none;stroke:#ff0000;stroke-width:4.14326;stroke-linecap:round;stroke-linejoin:round;stroke-miterlimit:10;stroke-opacity:1;stroke-dasharray:none"
         id="path44"
         inkscape:connector-curvature="0" /><path
         d="m 4178.51,5391.5 0.14,0 0,4.97 0.19,0 0,4.98 -0.02,0 0,4.97 0.12,0 0,4.97 -0.21,0 0,4.97 0.21,0 0,4.97 -0.19,0 0,4.97 0.15,0 0,4.98 -0.08,0 0,4.97 0.12,0 0,4.97 -0.04,0 0,4.97 0.08,0 0,4.97 0.09,0 0,4.98 -0.05,-0.01 0,4.98 0.07,0 0,4.97 -0.07,0 0,4.97 -0.06,0 0,4.97 0.04,0 0,4.98 -0.12,-0.01 0,4.97 0.12,0 0,4.98 0.13,0 0,9.94 0.1,0 0,4.97 0.11,0 0,4.97 0.12,0 0,4.98 -0.15,0 0,4.97 0.21,0 0,4.97 0.06,0 0,4.97 0.03,0 0,4.97 0.1,0 0,4.98 -0.07,0 0,4.97 0.05,0 0,4.97 0.08,0 0,9.94 0.08,0 0,4.98 0.4,-0.01 0,4.97 -0.17,0 0,4.98 0.29,0 0,4.97 0.06,0 0,4.97 0.11,0 0,4.98 0.04,-0.01 0,4.97 0.16,0 0,4.98 0.09,0 0,4.97 -0.03,0 0,4.97 0.15,0 0,4.97 -0.04,0 0,4.97 0.14,0 0,4.98 -0.16,0 0,4.97 0.06,-0.01 0,4.98 0.15,0 0,9.94 -0.06,0 0,4.98 0.1,0 0,4.97 -0.09,-0.01 0,4.98 0.07,0 0,4.97 0.18,0 0,4.97"
         style="fill:none;stroke:#ff0000;stroke-width:4.14326;stroke-linecap:round;stroke-linejoin:round;stroke-miterlimit:10;stroke-opacity:1;stroke-dasharray:none"
         id="path46"
         inkscape:connector-curvature="0" /><path
         d="m 4181.3,5669.92 0,4.97 0.11,0 0,4.97 0.1,0 0,4.98 0.06,0 0,4.97 -0.02,0 0,4.97 0.11,0 0,4.97 -0.05,0 0,9.95 0.02,0 0,4.97 0.13,0 0,4.97 -0.06,0 0,4.97 0.14,0 0,9.94 -0.02,0 0,4.98 0.13,-0.01 0,4.98 -0.02,0 0,4.97 0.16,0 0,4.97 0.06,0 0,4.97 0.02,0 0,4.98 -0.02,-0.01 0,4.98 0.21,0 0,4.97 -0.13,0 0,4.97 0.09,0 0,4.97 0.02,0 0,4.97 0.12,0 0,4.97 0.09,0 0,4.98 -0.07,0 0,4.97 -0.1,0 0,4.97 0.12,0 0,4.97 0.02,0 0,4.97 -0.08,0 0,4.98 0.04,0 0,4.97 0.13,0 0,9.94 -0.04,0 0,4.97 0.06,0 0,4.98 0.14,-0.01 0,4.98 0.02,0 0,4.97 -0.1,0 0,4.97 0.02,0 0,4.97 0.04,0 0,4.98 0.04,-0.01 0,4.97 0.13,0 0,4.98 -0.04,0 0,4.97 -0.06,0 0,4.97 0.04,0 0,4.97 0.16,0 0,4.97 -0.1,0 0,4.98 0.08,0 0,4.97 0.09,0 0,4.97 0.06,0 0,4.97 0.02,0 0,4.97 0.04,0 0,4.98 0.21,0 0,4.97 -0.21,-0.01 0,4.98 0.27,0 0,4.97"
         style="fill:none;stroke:#ff0000;stroke-width:4.14326;stroke-linecap:round;stroke-linejoin:round;stroke-miterlimit:10;stroke-opacity:1;stroke-dasharray:none"
         id="path48"
         inkscape:connector-curvature="0" /><path
         d="m 4183.48,5948.34 0.06,0 0,4.97 -0.08,0 0,4.98 0.17,-0.01 0,4.97 -0.07,0 0,4.98 0.07,0 0,4.97 0.2,0 0,4.97 0.04,0 0,4.97 -0.02,0 0,9.95 0.19,0 0,4.97 -0.15,0 0,4.97 0.23,0 0,4.97 -0.1,0 0,4.97 0.1,0 0,4.98 -0.04,0 0,4.97 0.06,-0.01 0,14.92 -0.06,0 0,4.97 0.08,0 0,4.98 -0.1,-0.01 0,4.98 0.16,0 0,4.97 -0.02,0 0,4.97 -0.06,0 0,4.97 0,0 0,4.97 0.21,0 0,4.98 -0.02,0 0,4.97 -0.02,0 0,4.97 0.02,0 0,4.97 0.06,0 0,4.97 -0.04,0 0,4.97 -0.02,0 0,4.98 0.04,0 0,4.97 -0.15,0 0,4.97 0.03,0 0,4.97 -0.19,0 0,4.97 -0.17,0 0,4.98 -0.29,-0.01 0,4.98 -0.1,0 0,4.97 -0.23,0 0,4.97 -0.14,0 0,4.97 -0.15,0 0,4.98 -0.04,-0.01 0,4.98 -0.04,0 0,4.97 0.06,0 0,4.97 0.19,0 0,4.97 0.08,0 0,4.97 0.13,0 0,4.97 -0.03,0 0,4.98 0.13,0 0,4.97 0.18,0 0,9.94 0.21,0 0,9.95 0.15,0 0,4.97 0.18,0 0,4.97"
         style="fill:none;stroke:#ff0000;stroke-width:4.14326;stroke-linecap:round;stroke-linejoin:round;stroke-miterlimit:10;stroke-opacity:1;stroke-dasharray:none"
         id="path50"
         inkscape:connector-curvature="0" /><path
         d="m 4184.18,6226.76 0.29,0 0,4.97 0.13,0 0,4.97 0.27,0 0,4.98 0.29,-0.01 0,4.97 0.29,0 0,4.98 0.12,0 0,4.97 0.06,0 0,4.97 0.11,0 0,4.98 0.1,-0.01 0,4.97 0.12,0 0,9.95 0.21,0 0,4.97 -0.04,0 0,4.97 0.08,0 0,4.97 0.06,0 0,4.98 -0.04,0 0,4.97 0.07,-0.01 0,4.98 0.08,0 0,4.97 0.04,0 0,4.97 0.06,0 0,4.98 -0.04,0 0,4.97 0.04,-0.01 0,4.98 0.15,0 0,9.94 0.04,0 0,4.97 0.06,0 0,4.97 0.02,0 0,4.98 -0.08,0 0,4.97 0.04,0 0,4.97 0.1,0 0,4.97 -0.02,0 0,4.97 0.19,0 0,4.98 -0.04,0 0,4.97 0.1,0 0,4.97 -0.06,0 0,4.97 0.02,0 0,4.97 0.08,0 0,4.97 0.08,0 0,4.98 0.03,-0.01 0,4.98 0.02,0 0,4.97 -0.05,0 0,4.97 0.19,0 0,4.97 0.04,0 0,4.98 -0.02,-0.01 0,4.98 0.09,0 0,4.97 -0.09,0 0,4.97 -0.04,0 0,4.97 0.08,0 0,4.97 0.11,0 0,4.98 0.02,0 0,4.97 -0.02,0 0,4.97 0.04,0 0,4.97 0.04,0 0,4.97 0.04,0 0,4.97 -0.04,0 0,9.95"
         style="fill:none;stroke:#ff0000;stroke-width:4.14326;stroke-linecap:round;stroke-linejoin:round;stroke-miterlimit:10;stroke-opacity:1;stroke-dasharray:none"
         id="path52"
         inkscape:connector-curvature="0" /><path
         d="m 4187.6,6505.18 0,4.97 0.1,0 0,4.97 0.11,0 0,9.95 0.04,-0.01 0,4.98 0.04,0 0,4.97 0.02,0 0,9.94 0.11,0 0,4.98 -0.02,-0.01 0,4.97 0.02,0 0,4.98 0.12,0 0,4.97 -0.02,0 0,4.97 0.04,0 0,4.97 0.08,0 0,4.97 -0.04,0 0,4.98 0.04,0 0,4.97 0.13,0 0,4.97 -0.05,0 0,9.94 0.05,0 0,9.95 0.04,-0.01 0,9.95 0.02,0 0,9.95 -0.11,-0.01 0,4.97 -0.02,0 0,4.98 0.09,0 0,9.94 0.08,0 0,4.97 -0.08,0 0,4.97 0.06,0 0,4.98 0.02,0 0,4.97 -0.1,0 0,4.97 0.12,0 0,9.94 -0.1,0 0,4.98 0.14,0 0,4.97 -0.04,-0.01 0,4.98 0.21,0 0,4.97 -0.15,0 0,4.97 0.09,0 0,4.97 0.1,0 0,4.98 -0.04,-0.01 0,4.98 -0.08,0 0,4.97 0.24,0 0,4.97 -0.1,0 0,4.97 0.13,0 0,4.97 0.02,0 0,4.98 0.04,0 0,4.97 0.06,0 0,4.97 0,0 0,4.97 0.06,0 0,4.97 -0.06,0 0,4.98 0.06,0 0,4.97"
         style="fill:none;stroke:#ff0000;stroke-width:4.14326;stroke-linecap:round;stroke-linejoin:round;stroke-miterlimit:10;stroke-opacity:1;stroke-dasharray:none"
         id="path54"
         inkscape:connector-curvature="0" /><path
         d="m 4189.07,6783.6 0.04,0 0,4.97 0.02,0 0,9.94 0.03,0 0,4.97 0.04,0 0,4.98 0.1,-0.01 0,4.98 -0.1,0 0,4.97 0.01,0 0,9.94 0.11,0 0,4.98 -0.12,-0.01 0,4.98 0.04,0 0,4.97 -0.03,0 0,4.97 -0.03,0 0,4.97 0.12,0 0,9.94 -0.04,0 0,4.98 0.04,0 0,4.97 0.06,0 0,4.97 0.02,0 0,4.97 -0.04,0 0,4.97 0.21,0 0,4.98 -0.1,0 0,4.97 0.01,0 0,4.97 9.99,0 0,14.92 0,-0.01 0,44.75 0,0 0,19.89 0,-0.01 0,24.87 0,-0.01 0,19.89 0,0 0,19.89 0,0 0,14.92"
         style="fill:none;stroke:#ff0000;stroke-width:4.14326;stroke-linecap:round;stroke-linejoin:round;stroke-miterlimit:10;stroke-opacity:1;stroke-dasharray:none"
         id="path56"
         inkscape:connector-curvature="0" /><path
         d="m 4199.45,7062.02 0,89.49"
         style="fill:none;stroke:#ff0000;stroke-width:4.14326;stroke-linecap:round;stroke-linejoin:round;stroke-miterlimit:10;stroke-opacity:1;stroke-dasharray:none"
         id="path58"
         inkscape:connector-curvature="0" /><path
         d="m 4199.45,936.742 0,6214.888"
         style="fill:none;stroke:#000000;stroke-width:7.00004005;stroke-linecap:round;stroke-linejoin:round;stroke-miterlimit:10;stroke-opacity:1;stroke-dasharray:none"
         id="path60"
         inkscape:connector-curvature="0" /><path
         d="m 4199.45,1182.85 -41.43,0"
         style="fill:none;stroke:#000000;stroke-width:7.00004005;stroke-linecap:round;stroke-linejoin:round;stroke-miterlimit:10;stroke-opacity:1;stroke-dasharray:none"
         id="path62"
         inkscape:connector-curvature="0" /><path
         d="m 4199.45,1680.04 -41.43,0"
         style="fill:none;stroke:#000000;stroke-width:7.00004005;stroke-linecap:round;stroke-linejoin:round;stroke-miterlimit:10;stroke-opacity:1;stroke-dasharray:none"
         id="path64"
         inkscape:connector-curvature="0" /><path
         d="m 4199.45,2177.23 -41.43,0"
         style="fill:none;stroke:#000000;stroke-width:7.00004005;stroke-linecap:round;stroke-linejoin:round;stroke-miterlimit:10;stroke-opacity:1;stroke-dasharray:none"
         id="path66"
         inkscape:connector-curvature="0" /><path
         d="m 4199.45,2674.43 -41.43,0"
         style="fill:none;stroke:#000000;stroke-width:7.00004005;stroke-linecap:round;stroke-linejoin:round;stroke-miterlimit:10;stroke-opacity:1;stroke-dasharray:none"
         id="path68"
         inkscape:connector-curvature="0" /><path
         d="m 4199.45,3171.62 -41.43,0"
         style="fill:none;stroke:#000000;stroke-width:7.00004005;stroke-linecap:round;stroke-linejoin:round;stroke-miterlimit:10;stroke-opacity:1;stroke-dasharray:none"
         id="path70"
         inkscape:connector-curvature="0" /><path
         d="m 4199.45,3668.81 -41.43,0"
         style="fill:none;stroke:#000000;stroke-width:7.00004005;stroke-linecap:round;stroke-linejoin:round;stroke-miterlimit:10;stroke-opacity:1;stroke-dasharray:none"
         id="path72"
         inkscape:connector-curvature="0" /><path
         d="m 4199.45,4166 -41.43,0"
         style="fill:none;stroke:#000000;stroke-width:7.00004005;stroke-linecap:round;stroke-linejoin:round;stroke-miterlimit:10;stroke-opacity:1;stroke-dasharray:none"
         id="path74"
         inkscape:connector-curvature="0" /><path
         d="m 4199.45,4663.19 -41.43,0"
         style="fill:none;stroke:#000000;stroke-width:7.00004005;stroke-linecap:round;stroke-linejoin:round;stroke-miterlimit:10;stroke-opacity:1;stroke-dasharray:none"
         id="path76"
         inkscape:connector-curvature="0" /><path
         d="m 4199.45,5160.38 -41.43,0"
         style="fill:none;stroke:#000000;stroke-width:7.00004005;stroke-linecap:round;stroke-linejoin:round;stroke-miterlimit:10;stroke-opacity:1;stroke-dasharray:none"
         id="path78"
         inkscape:connector-curvature="0" /><path
         d="m 4199.45,5657.57 -41.43,0"
         style="fill:none;stroke:#000000;stroke-width:7.00004005;stroke-linecap:round;stroke-linejoin:round;stroke-miterlimit:10;stroke-opacity:1;stroke-dasharray:none"
         id="path80"
         inkscape:connector-curvature="0" /><path
         d="m 4199.45,6154.76 -41.43,0"
         style="fill:none;stroke:#000000;stroke-width:7.00004005;stroke-linecap:round;stroke-linejoin:round;stroke-miterlimit:10;stroke-opacity:1;stroke-dasharray:none"
         id="path82"
         inkscape:connector-curvature="0" /><path
         d="m 4199.45,6651.95 -41.43,0"
         style="fill:none;stroke:#000000;stroke-width:7.00004005;stroke-linecap:round;stroke-linejoin:round;stroke-miterlimit:10;stroke-opacity:1;stroke-dasharray:none"
         id="path84"
         inkscape:connector-curvature="0" /><path
         d="m 4199.45,7149.14 -41.43,0"
         style="fill:none;stroke:#000000;stroke-width:7.00004005;stroke-linecap:round;stroke-linejoin:round;stroke-miterlimit:10;stroke-opacity:1;stroke-dasharray:none"
         id="path86"
         inkscape:connector-curvature="0" /><path
         d="m 4272.84,1068.26 -4.78,0 -9.44,4.67 -4.68,4.77 -4.77,9.45 0,18.99 4.77,9.45 4.68,4.67 9.44,4.78 9.55,0 9.44,-4.78 14.22,-9.44 47.34,-47.34 0,66.33"
         style="fill:none;stroke:#000000;stroke-width:8.94944;stroke-linecap:round;stroke-linejoin:round;stroke-miterlimit:10;stroke-opacity:1;stroke-dasharray:none"
         id="path88"
         inkscape:connector-curvature="0" /><path
         d="m 4249.17,1178.13 4.77,-14.22 14.12,-9.45 23.77,-4.78 14.12,0 23.76,4.78 14.13,9.45 4.77,14.22 0,9.44 -4.77,14.22 -14.13,9.45 -23.76,4.77 -14.12,0 -23.77,-4.77 -14.12,-9.45 -4.77,-14.22 0,-9.44"
         style="fill:none;stroke:#000000;stroke-width:8.94944;stroke-linecap:round;stroke-linejoin:round;stroke-miterlimit:10;stroke-opacity:1;stroke-dasharray:none"
         id="path90"
         inkscape:connector-curvature="0" /><path
         d="m 4249.17,1264.34 4.77,-14.21 14.12,-9.45 23.77,-4.77 14.12,0 23.76,4.77 14.13,9.45 4.77,14.21 0,9.45 -4.77,14.22 -14.13,9.45 -23.76,4.77 -14.12,0 -23.77,-4.77 -14.12,-9.45 -4.77,-14.22 0,-9.45"
         style="fill:none;stroke:#000000;stroke-width:8.94944;stroke-linecap:round;stroke-linejoin:round;stroke-miterlimit:10;stroke-opacity:1;stroke-dasharray:none"
         id="path92"
         inkscape:connector-curvature="0" /><path
         d="m 4263.39,2117.03 -9.45,-4.67 -4.77,-14.22 0,-9.45 4.77,-14.22 14.12,-9.45 23.77,-4.77 23.67,0 18.89,4.77 9.45,9.45 4.77,14.22 0,4.67 -4.77,14.22 -9.45,9.45 -14.22,4.77 -4.67,0 -14.23,-4.77 -9.44,-9.45 -4.78,-14.22 0,-4.67 4.78,-14.22 9.44,-9.45 14.23,-4.77"
         style="fill:none;stroke:#000000;stroke-width:8.94944;stroke-linecap:round;stroke-linejoin:round;stroke-miterlimit:10;stroke-opacity:1;stroke-dasharray:none"
         id="path94"
         inkscape:connector-curvature="0" /><path
         d="m 4249.17,2170.13 4.77,-14.22 14.12,-9.45 23.77,-4.78 14.12,0 23.76,4.78 14.13,9.45 4.77,14.22 0,9.44 -4.77,14.22 -14.13,9.45 -23.76,4.77 -14.12,0 -23.77,-4.77 -14.12,-9.45 -4.77,-14.22 0,-9.44"
         style="fill:none;stroke:#000000;stroke-width:8.94944;stroke-linecap:round;stroke-linejoin:round;stroke-miterlimit:10;stroke-opacity:1;stroke-dasharray:none"
         id="path96"
         inkscape:connector-curvature="0" /><path
         d="m 4249.17,2256.34 4.77,-14.21 14.12,-9.45 23.77,-4.77 14.12,0 23.76,4.77 14.13,9.45 4.77,14.21 0,9.45 -4.77,14.22 -14.13,9.45 -23.76,4.77 -14.12,0 -23.77,-4.77 -14.12,-9.45 -4.77,-14.22 0,-9.45"
         style="fill:none;stroke:#000000;stroke-width:8.94944;stroke-linecap:round;stroke-linejoin:round;stroke-miterlimit:10;stroke-opacity:1;stroke-dasharray:none"
         id="path98"
         inkscape:connector-curvature="0" /><path
         d="m 4268.06,3027.97 -4.67,9.45 -14.22,14.22 99.44,0"
         style="fill:none;stroke:#000000;stroke-width:8.94944;stroke-linecap:round;stroke-linejoin:round;stroke-miterlimit:10;stroke-opacity:1;stroke-dasharray:none"
         id="path100"
         inkscape:connector-curvature="0" /><path
         d="m 4249.17,3104.95 4.77,-14.22 14.12,-9.45 23.77,-4.77 14.12,0 23.76,4.77 14.13,9.45 4.77,14.22 0,9.44 -4.77,14.22 -14.13,9.45 -23.76,4.77 -14.12,0 -23.77,-4.77 -14.12,-9.45 -4.77,-14.22 0,-9.44"
         style="fill:none;stroke:#000000;stroke-width:8.94944;stroke-linecap:round;stroke-linejoin:round;stroke-miterlimit:10;stroke-opacity:1;stroke-dasharray:none"
         id="path102"
         inkscape:connector-curvature="0" /><path
         d="m 4249.17,3191.15 4.77,-14.22 14.12,-9.45 23.77,-4.77 14.12,0 23.76,4.77 14.13,9.45 4.77,14.22 0,9.44 -4.77,14.22 -14.13,9.45 -23.76,4.78 -14.12,0 -23.77,-4.78 -14.12,-9.45 -4.77,-14.22 0,-9.44"
         style="fill:none;stroke:#000000;stroke-width:8.94944;stroke-linecap:round;stroke-linejoin:round;stroke-miterlimit:10;stroke-opacity:1;stroke-dasharray:none"
         id="path104"
         inkscape:connector-curvature="0" /><path
         d="m 4249.17,3277.37 4.77,-14.22 14.12,-9.45 23.77,-4.77 14.12,0 23.76,4.77 14.13,9.45 4.77,14.22 0,9.45 -4.77,14.22 -14.13,9.44 -23.76,4.77 -14.12,0 -23.77,-4.77 -14.12,-9.44 -4.77,-14.22 0,-9.45"
         style="fill:none;stroke:#000000;stroke-width:8.94944;stroke-linecap:round;stroke-linejoin:round;stroke-miterlimit:10;stroke-opacity:1;stroke-dasharray:none"
         id="path106"
         inkscape:connector-curvature="0" /><path
         d="m 4268.06,4020.03 -4.67,9.45 -14.22,14.22 99.44,0"
         style="fill:none;stroke:#000000;stroke-width:8.94944;stroke-linecap:round;stroke-linejoin:round;stroke-miterlimit:10;stroke-opacity:1;stroke-dasharray:none"
         id="path108"
         inkscape:connector-curvature="0" /><path
         d="m 4315.5,4139.55 0,-71 -66.33,47.33 99.44,0"
         style="fill:none;stroke:#000000;stroke-width:8.94944;stroke-linecap:round;stroke-linejoin:round;stroke-miterlimit:10;stroke-opacity:1;stroke-dasharray:none"
         id="path110"
         inkscape:connector-curvature="0" /><path
         d="m 4249.17,4187.87 4.77,-14.22 14.12,-9.45 23.77,-4.77 14.12,0 23.76,4.77 14.13,9.45 4.77,14.22 0,9.45 -4.77,14.22 -14.13,9.44 -23.76,4.78 -14.12,0 -23.77,-4.78 -14.12,-9.44 -4.77,-14.22 0,-9.45"
         style="fill:none;stroke:#000000;stroke-width:8.94944;stroke-linecap:round;stroke-linejoin:round;stroke-miterlimit:10;stroke-opacity:1;stroke-dasharray:none"
         id="path112"
         inkscape:connector-curvature="0" /><path
         d="m 4249.17,4274.09 4.77,-14.22 14.12,-9.44 23.77,-4.78 14.12,0 23.76,4.78 14.13,9.44 4.77,14.22 0,9.45 -4.77,14.22 -14.13,9.45 -23.76,4.77 -14.12,0 -23.77,-4.77 -14.12,-9.45 -4.77,-14.22 0,-9.45"
         style="fill:none;stroke:#000000;stroke-width:8.94944;stroke-linecap:round;stroke-linejoin:round;stroke-miterlimit:10;stroke-opacity:1;stroke-dasharray:none"
         id="path114"
         inkscape:connector-curvature="0" /><path
         d="m 4268.06,5016.73 -4.67,9.45 -14.22,14.22 99.44,0"
         style="fill:none;stroke:#000000;stroke-width:8.94944;stroke-linecap:round;stroke-linejoin:round;stroke-miterlimit:10;stroke-opacity:1;stroke-dasharray:none"
         id="path116"
         inkscape:connector-curvature="0" /><path
         d="m 4249.17,5088.94 4.77,-14.22 9.45,-4.67 9.45,0 9.44,4.67 4.77,9.44 4.78,19 4.67,14.22 9.45,9.44 9.55,4.78 14.21,0 9.45,-4.78 4.68,-4.77 4.77,-14.12 0,-18.99 -4.77,-14.22 -4.68,-4.67 -9.45,-4.78 -14.21,0 -9.55,4.78 -9.45,9.44 -4.67,14.22 -4.78,18.9 -4.77,9.44 -9.44,4.77 -9.45,0 -9.45,-4.77 -4.77,-14.12 0,-18.99"
         style="fill:none;stroke:#000000;stroke-width:8.94944;stroke-linecap:round;stroke-linejoin:round;stroke-miterlimit:10;stroke-opacity:1;stroke-dasharray:none"
         id="path118"
         inkscape:connector-curvature="0" /><path
         d="m 4249.17,5179.91 4.77,-14.22 14.12,-9.44 23.77,-4.78 14.12,0 23.76,4.78 14.13,9.44 4.77,14.22 0,9.45 -4.77,14.22 -14.13,9.45 -23.76,4.77 -14.12,0 -23.77,-4.77 -14.12,-9.45 -4.77,-14.22 0,-9.45"
         style="fill:none;stroke:#000000;stroke-width:8.94944;stroke-linecap:round;stroke-linejoin:round;stroke-miterlimit:10;stroke-opacity:1;stroke-dasharray:none"
         id="path120"
         inkscape:connector-curvature="0" /><path
         d="m 4249.17,5266.13 4.77,-14.22 14.12,-9.44 23.77,-4.77 14.12,0 23.76,4.77 14.13,9.44 4.77,14.22 0,9.45 -4.77,14.22 -14.13,9.45 -23.76,4.77 -14.12,0 -23.77,-4.77 -14.12,-9.45 -4.77,-14.22 0,-9.45"
         style="fill:none;stroke:#000000;stroke-width:8.94944;stroke-linecap:round;stroke-linejoin:round;stroke-miterlimit:10;stroke-opacity:1;stroke-dasharray:none"
         id="path122"
         inkscape:connector-curvature="0" /><path
         d="m 4272.84,5997.06 -4.78,0 -9.44,4.67 -4.68,4.77 -4.77,9.45 0,19 4.77,9.44 4.68,4.68 9.44,4.77 9.55,0 9.44,-4.77 14.22,-9.45 47.34,-47.33 0,66.32"
         style="fill:none;stroke:#000000;stroke-width:8.94944;stroke-linecap:round;stroke-linejoin:round;stroke-miterlimit:10;stroke-opacity:1;stroke-dasharray:none"
         id="path124"
         inkscape:connector-curvature="0" /><path
         d="m 4272.84,6083.26 -4.78,0 -9.44,4.67 -4.68,4.78 -4.77,9.44 0,18.99 4.77,9.45 4.68,4.68 9.44,4.77 9.55,0 9.44,-4.77 14.22,-9.45 47.34,-47.34 0,66.33"
         style="fill:none;stroke:#000000;stroke-width:8.94944;stroke-linecap:round;stroke-linejoin:round;stroke-miterlimit:10;stroke-opacity:1;stroke-dasharray:none"
         id="path126"
         inkscape:connector-curvature="0" /><path
         d="m 4249.17,6193.15 4.77,-14.22 14.12,-9.45 23.77,-4.77 14.12,0 23.76,4.77 14.13,9.45 4.77,14.22 0,9.44 -4.77,14.22 -14.13,9.45 -23.76,4.77 -14.12,0 -23.77,-4.77 -14.12,-9.45 -4.77,-14.22 0,-9.44"
         style="fill:none;stroke:#000000;stroke-width:8.94944;stroke-linecap:round;stroke-linejoin:round;stroke-miterlimit:10;stroke-opacity:1;stroke-dasharray:none"
         id="path128"
         inkscape:connector-curvature="0" /><path
         d="m 4249.17,6279.37 4.77,-14.22 14.12,-9.45 23.77,-4.77 14.12,0 23.76,4.77 14.13,9.45 4.77,14.22 0,9.45 -4.77,14.22 -14.13,9.44 -23.76,4.77 -14.12,0 -23.77,-4.77 -14.12,-9.44 -4.77,-14.22 0,-9.45"
         style="fill:none;stroke:#000000;stroke-width:8.94944;stroke-linecap:round;stroke-linejoin:round;stroke-miterlimit:10;stroke-opacity:1;stroke-dasharray:none"
         id="path130"
         inkscape:connector-curvature="0" /><path
         d="m 4272.84,6993.82 -4.78,0 -9.44,4.68 -4.68,4.77 -4.77,9.45 0,18.99 4.77,9.45 4.68,4.67 9.44,4.77 9.55,0 9.44,-4.77 14.22,-9.45 47.34,-47.33 0,66.33"
         style="fill:none;stroke:#000000;stroke-width:8.94944;stroke-linecap:round;stroke-linejoin:round;stroke-miterlimit:10;stroke-opacity:1;stroke-dasharray:none"
         id="path132"
         inkscape:connector-curvature="0" /><path
         d="m 4263.39,7132.05 -9.45,-4.67 -4.77,-14.22 0,-9.45 4.77,-14.22 14.12,-9.44 23.77,-4.78 23.67,0 18.89,4.78 9.45,9.44 4.77,14.22 0,4.68 -4.77,14.22 -9.45,9.44 -14.22,4.77 -4.67,0 -14.23,-4.77 -9.44,-9.44 -4.78,-14.22 0,-4.68 4.78,-14.22 9.44,-9.44 14.23,-4.78"
         style="fill:none;stroke:#000000;stroke-width:8.94944;stroke-linecap:round;stroke-linejoin:round;stroke-miterlimit:10;stroke-opacity:1;stroke-dasharray:none"
         id="path134"
         inkscape:connector-curvature="0" /><path
         d="m 4249.17,7185.15 4.77,-14.22 14.12,-9.45 23.77,-4.77 14.12,0 23.76,4.77 14.13,9.45 4.77,14.22 0,9.44 -4.77,14.22 -14.13,9.45 -23.76,4.78 -14.12,0 -23.77,-4.78 -14.12,-9.45 -4.77,-14.22 0,-9.44"
         style="fill:none;stroke:#000000;stroke-width:8.94944;stroke-linecap:round;stroke-linejoin:round;stroke-miterlimit:10;stroke-opacity:1;stroke-dasharray:none"
         id="path136"
         inkscape:connector-curvature="0" /><path
         d="m 4249.17,7271.35 4.77,-14.22 14.12,-9.45 23.77,-4.77 14.12,0 23.76,4.77 14.13,9.45 4.77,14.22 0,9.44 -4.77,14.23 -14.13,9.44 -23.76,4.77 -14.12,0 -23.77,-4.77 -14.12,-9.44 -4.77,-14.23 0,-9.44"
         style="fill:none;stroke:#000000;stroke-width:8.94944;stroke-linecap:round;stroke-linejoin:round;stroke-miterlimit:10;stroke-opacity:1;stroke-dasharray:none"
         id="path138"
         inkscape:connector-curvature="0" /><path
         d="m 4427.33,3790.79 0,-76.95 124.3,0 0,76.95"
         style="fill:none;stroke:#000000;stroke-width:11.1868;stroke-linecap:round;stroke-linejoin:round;stroke-miterlimit:10;stroke-opacity:1;stroke-dasharray:none"
         id="path140"
         inkscape:connector-curvature="0" /><path
         d="m 4486.5,3713.84 0,47.36"
         style="fill:none;stroke:#000000;stroke-width:11.1868;stroke-linecap:round;stroke-linejoin:round;stroke-miterlimit:10;stroke-opacity:1;stroke-dasharray:none"
         id="path142"
         inkscape:connector-curvature="0" /><path
         d="m 4575.64,3811.91 -8.27,8.27 -4.16,8.27 0,4.16 4.16,8.27 4.19,4.18 12.34,4.19 16.62,0 20.71,-4.19"
         style="fill:none;stroke:#000000;stroke-width:7.83076;stroke-linecap:round;stroke-linejoin:round;stroke-miterlimit:10;stroke-opacity:1;stroke-dasharray:none"
         id="path144"
         inkscape:connector-curvature="0" /><path
         d="m 4563.21,3878.21 12.43,-4.17 8.26,-4.1 37.33,-24.88 16.54,-8.26 12.44,-4.19"
         style="fill:none;stroke:#000000;stroke-width:7.83076;stroke-linecap:round;stroke-linejoin:round;stroke-miterlimit:10;stroke-opacity:1;stroke-dasharray:none"
         id="path146"
         inkscape:connector-curvature="0" /><path
         d="m 4403.71,4002.88 11.81,-11.81 17.78,-11.81 23.61,-11.81 29.59,-5.96 23.74,0 29.58,5.96 23.62,11.81 17.77,11.81 11.81,11.81"
         style="fill:none;stroke:#000000;stroke-width:11.1868;stroke-linecap:round;stroke-linejoin:round;stroke-miterlimit:10;stroke-opacity:1;stroke-dasharray:none"
         id="path148"
         inkscape:connector-curvature="0" /><path
         d="m 4427.33,4033.95 124.3,0"
         style="fill:none;stroke:#000000;stroke-width:11.1868;stroke-linecap:round;stroke-linejoin:round;stroke-miterlimit:10;stroke-opacity:1;stroke-dasharray:none"
         id="path150"
         inkscape:connector-curvature="0" /><path
         d="m 4468.72,4093.12 59.29,-59.17"
         style="fill:none;stroke:#000000;stroke-width:11.1868;stroke-linecap:round;stroke-linejoin:round;stroke-miterlimit:10;stroke-opacity:1;stroke-dasharray:none"
         id="path152"
         inkscape:connector-curvature="0" /><path
         d="m 4504.27,4057.57 47.36,41.52"
         style="fill:none;stroke:#000000;stroke-width:11.1868;stroke-linecap:round;stroke-linejoin:round;stroke-miterlimit:10;stroke-opacity:1;stroke-dasharray:none"
         id="path154"
         inkscape:connector-curvature="0" /><path
         d="m 4504.27,4123.95 0,70.97 -11.81,0 -11.81,-5.84 -5.96,-5.97 -5.97,-11.81 0,-17.77 5.97,-11.81 11.81,-11.81 17.77,-5.96 11.81,0 17.77,5.96 11.81,11.81 5.97,11.81 0,17.77 -5.97,11.81 -11.81,11.81"
         style="fill:none;stroke:#000000;stroke-width:11.1868;stroke-linecap:round;stroke-linejoin:round;stroke-miterlimit:10;stroke-opacity:1;stroke-dasharray:none"
         id="path156"
         inkscape:connector-curvature="0" /><path
         d="m 4427.33,4219.78 124.3,47.36 -124.3,47.35"
         style="fill:none;stroke:#000000;stroke-width:11.1868;stroke-linecap:round;stroke-linejoin:round;stroke-miterlimit:10;stroke-opacity:1;stroke-dasharray:none"
         id="path158"
         inkscape:connector-curvature="0" /><path
         d="m 4403.71,4339.35 11.81,11.81 17.78,11.81 23.61,11.93 29.59,5.84 23.74,0 29.58,-5.84 23.62,-11.93 17.77,-11.81 11.81,-11.81"
         style="fill:none;stroke:#000000;stroke-width:11.1868;stroke-linecap:round;stroke-linejoin:round;stroke-miterlimit:10;stroke-opacity:1;stroke-dasharray:none"
         id="path160"
         inkscape:connector-curvature="0" /><path
         d="m 1713.5,936.742 0,6214.888"
         style="fill:none;stroke:#000000;stroke-width:7.00004005;stroke-linecap:round;stroke-linejoin:round;stroke-miterlimit:10;stroke-opacity:1;stroke-dasharray:none"
         id="path162"
         inkscape:connector-curvature="0" /><path
         d="m 1713.5,1182.85 41.43,0"
         style="fill:none;stroke:#000000;stroke-width:7.00004005;stroke-linecap:round;stroke-linejoin:round;stroke-miterlimit:10;stroke-opacity:1;stroke-dasharray:none"
         id="path164"
         inkscape:connector-curvature="0" /><path
         d="m 1713.5,1680.04 41.43,0"
         style="fill:none;stroke:#000000;stroke-width:7.00004005;stroke-linecap:round;stroke-linejoin:round;stroke-miterlimit:10;stroke-opacity:1;stroke-dasharray:none"
         id="path166"
         inkscape:connector-curvature="0" /><path
         d="m 1713.5,2177.23 41.43,0"
         style="fill:none;stroke:#000000;stroke-width:7.00004005;stroke-linecap:round;stroke-linejoin:round;stroke-miterlimit:10;stroke-opacity:1;stroke-dasharray:none"
         id="path168"
         inkscape:connector-curvature="0" /><path
         d="m 1713.5,2674.43 41.43,0"
         style="fill:none;stroke:#000000;stroke-width:7.00004005;stroke-linecap:round;stroke-linejoin:round;stroke-miterlimit:10;stroke-opacity:1;stroke-dasharray:none"
         id="path170"
         inkscape:connector-curvature="0" /><path
         d="m 1713.5,3171.62 41.43,0"
         style="fill:none;stroke:#000000;stroke-width:7.00004005;stroke-linecap:round;stroke-linejoin:round;stroke-miterlimit:10;stroke-opacity:1;stroke-dasharray:none"
         id="path172"
         inkscape:connector-curvature="0" /><path
         d="m 1713.5,3668.81 41.43,0"
         style="fill:none;stroke:#000000;stroke-width:7.00004005;stroke-linecap:round;stroke-linejoin:round;stroke-miterlimit:10;stroke-opacity:1;stroke-dasharray:none"
         id="path174"
         inkscape:connector-curvature="0" /><path
         d="m 1713.5,4166 41.43,0"
         style="fill:none;stroke:#000000;stroke-width:7.00004005;stroke-linecap:round;stroke-linejoin:round;stroke-miterlimit:10;stroke-opacity:1;stroke-dasharray:none"
         id="path176"
         inkscape:connector-curvature="0" /><path
         d="m 1713.5,4663.19 41.43,0"
         style="fill:none;stroke:#000000;stroke-width:7.00004005;stroke-linecap:round;stroke-linejoin:round;stroke-miterlimit:10;stroke-opacity:1;stroke-dasharray:none"
         id="path178"
         inkscape:connector-curvature="0" /><path
         d="m 1713.5,5160.38 41.43,0"
         style="fill:none;stroke:#000000;stroke-width:7.00004005;stroke-linecap:round;stroke-linejoin:round;stroke-miterlimit:10;stroke-opacity:1;stroke-dasharray:none"
         id="path180"
         inkscape:connector-curvature="0" /><path
         d="m 1713.5,5657.57 41.43,0"
         style="fill:none;stroke:#000000;stroke-width:7.00004005;stroke-linecap:round;stroke-linejoin:round;stroke-miterlimit:10;stroke-opacity:1;stroke-dasharray:none"
         id="path182"
         inkscape:connector-curvature="0" /><path
         d="m 1713.5,6154.76 41.43,0"
         style="fill:none;stroke:#000000;stroke-width:7.00004005;stroke-linecap:round;stroke-linejoin:round;stroke-miterlimit:10;stroke-opacity:1;stroke-dasharray:none"
         id="path184"
         inkscape:connector-curvature="0" /><path
         d="m 1713.5,6651.95 41.43,0"
         style="fill:none;stroke:#000000;stroke-width:7.00004005;stroke-linecap:round;stroke-linejoin:round;stroke-miterlimit:10;stroke-opacity:1;stroke-dasharray:none"
         id="path186"
         inkscape:connector-curvature="0" /><path
         d="m 1713.5,7149.14 41.43,0"
         style="fill:none;stroke:#000000;stroke-width:7.00004005;stroke-linecap:round;stroke-linejoin:round;stroke-miterlimit:10;stroke-opacity:1;stroke-dasharray:none"
         id="path188"
         inkscape:connector-curvature="0" /><path
         d="m 4199.45,936.742 -2485.95,0"
         style="fill:none;stroke:#000000;stroke-width:7.00004005;stroke-linecap:round;stroke-linejoin:round;stroke-miterlimit:10;stroke-opacity:1;stroke-dasharray:none"
         id="path190"
         inkscape:connector-curvature="0" /><path
         d="m 3844.38,936.742 0,41.434"
         style="fill:none;stroke:#000000;stroke-width:7.00004005;stroke-linecap:round;stroke-linejoin:round;stroke-miterlimit:10;stroke-opacity:1;stroke-dasharray:none"
         id="path192"
         inkscape:connector-curvature="0" /><path
         d="m 3489.09,936.742 0,41.434"
         style="fill:none;stroke:#000000;stroke-width:7.00004005;stroke-linecap:round;stroke-linejoin:round;stroke-miterlimit:10;stroke-opacity:1;stroke-dasharray:none"
         id="path194"
         inkscape:connector-curvature="0" /><path
         d="m 3134.01,936.742 0,41.434"
         style="fill:none;stroke:#000000;stroke-width:7.00004005;stroke-linecap:round;stroke-linejoin:round;stroke-miterlimit:10;stroke-opacity:1;stroke-dasharray:none"
         id="path196"
         inkscape:connector-curvature="0" /><path
         d="m 2778.93,936.742 0,41.434"
         style="fill:none;stroke:#000000;stroke-width:7.00004005;stroke-linecap:round;stroke-linejoin:round;stroke-miterlimit:10;stroke-opacity:1;stroke-dasharray:none"
         id="path198"
         inkscape:connector-curvature="0" /><path
         d="m 2423.86,936.742 0,41.434"
         style="fill:none;stroke:#000000;stroke-width:7.00004005;stroke-linecap:round;stroke-linejoin:round;stroke-miterlimit:10;stroke-opacity:1;stroke-dasharray:none"
         id="path200"
         inkscape:connector-curvature="0" /><path
         d="m 2068.57,936.742 0,41.434"
         style="fill:none;stroke:#000000;stroke-width:7.00004005;stroke-linecap:round;stroke-linejoin:round;stroke-miterlimit:10;stroke-opacity:1;stroke-dasharray:none"
         id="path202"
         inkscape:connector-curvature="0" /><path
         d="m 3794.65,877.488 0,-47.332 42.66,-4.672 -4.77,4.672 -4.77,14.219 0,14.223 4.77,14.218 9.45,9.446 14.22,4.773 9.44,0 14.22,-4.773 9.45,-9.446 4.77,-14.218 0,-14.223 -4.77,-14.219 -4.68,-4.672 -9.44,-4.773"
         style="fill:none;stroke:#000000;stroke-width:8.94944;stroke-linecap:round;stroke-linejoin:round;stroke-miterlimit:10;stroke-opacity:1;stroke-dasharray:none"
         id="path204"
         inkscape:connector-curvature="0" /><path
         d="m 3103.18,755.02 -4.67,9.445 -14.22,14.219 99.44,0"
         style="fill:none;stroke:#000000;stroke-width:8.94944;stroke-linecap:round;stroke-linejoin:round;stroke-miterlimit:10;stroke-opacity:1;stroke-dasharray:none"
         id="path206"
         inkscape:connector-curvature="0" /><path
         d="m 3084.29,860.316 0,-47.332 42.66,-4.675 -4.77,4.675 -4.77,14.219 0,14.219 4.77,14.219 9.45,9.449 14.21,4.769 9.45,0 14.22,-4.769 9.45,-9.449 4.77,-14.219 0,-14.219 -4.77,-14.219 -4.67,-4.675 -9.45,-4.774"
         style="fill:none;stroke:#000000;stroke-width:8.94944;stroke-linecap:round;stroke-linejoin:round;stroke-miterlimit:10;stroke-opacity:1;stroke-dasharray:none"
         id="path208"
         inkscape:connector-curvature="0" /><path
         d="m 2397.8,740.941 -4.77,0 -9.45,4.672 -4.67,4.774 -4.77,9.445 0,18.992 4.77,9.449 4.67,4.672 9.45,4.774 9.55,0 9.44,-4.774 14.22,-9.445 47.33,-47.332 0,66.324"
         style="fill:none;stroke:#000000;stroke-width:8.94944;stroke-linecap:round;stroke-linejoin:round;stroke-miterlimit:10;stroke-opacity:1;stroke-dasharray:none"
         id="path210"
         inkscape:connector-curvature="0" /><path
         d="m 2374.14,879.168 0,-47.332 42.66,-4.676 -4.78,4.676 -4.77,14.219 0,14.218 4.77,14.219 9.45,9.449 14.22,4.774 9.45,0 14.22,-4.774 9.44,-9.449 4.77,-14.219 0,-14.218 -4.77,-14.219 -4.67,-4.676 -9.45,-4.773"
         style="fill:none;stroke:#000000;stroke-width:8.94944;stroke-linecap:round;stroke-linejoin:round;stroke-miterlimit:10;stroke-opacity:1;stroke-dasharray:none"
         id="path212"
         inkscape:connector-curvature="0" /><path
         d="m 3800.83,531.281 5.84,-11.808 11.93,-11.809 11.81,-5.965 23.62,0 11.93,5.965 11.81,11.809 5.84,11.808 5.96,17.778 0,29.582 -5.96,17.773 -5.84,11.809 -11.81,11.808 -11.93,5.965 -23.62,0 -11.81,-5.965 -11.93,-11.808 -5.84,-11.809"
         style="fill:none;stroke:#000000;stroke-width:11.1868;stroke-linecap:round;stroke-linejoin:round;stroke-miterlimit:10;stroke-opacity:1;stroke-dasharray:none"
         id="path214"
         inkscape:connector-curvature="0" /><path
         d="m 3746.39,543.09 11.8,5.969 11.81,11.808 5.97,17.774 0,11.808 -5.97,17.774 -11.81,11.808 -11.8,5.965 -17.78,0 -11.81,-5.965 -11.81,-11.808 -5.96,-17.774 0,-11.808 5.96,-17.774 11.81,-11.808 11.81,-5.969 17.78,0 z"
         style="fill:none;stroke:#000000;stroke-width:11.1868;stroke-linecap:round;stroke-linejoin:round;stroke-miterlimit:10;stroke-opacity:1;stroke-dasharray:none"
         id="path216"
         inkscape:connector-curvature="0" /><path
         d="m 3667.95,543.09 0,59.289 -5.96,17.652 -11.81,5.965 -17.78,0 -11.81,-5.965 -17.77,-17.652"
         style="fill:none;stroke:#000000;stroke-width:11.1868;stroke-linecap:round;stroke-linejoin:round;stroke-miterlimit:10;stroke-opacity:1;stroke-dasharray:none"
         id="path218"
         inkscape:connector-curvature="0" /><path
         d="m 3602.82,543.09 0,82.906"
         style="fill:none;stroke:#000000;stroke-width:11.1868;stroke-linecap:round;stroke-linejoin:round;stroke-miterlimit:10;stroke-opacity:1;stroke-dasharray:none"
         id="path220"
         inkscape:connector-curvature="0" /><path
         d="m 3565.53,543.09 0,82.906"
         style="fill:none;stroke:#000000;stroke-width:11.1868;stroke-linecap:round;stroke-linejoin:round;stroke-miterlimit:10;stroke-opacity:1;stroke-dasharray:none"
         id="path222"
         inkscape:connector-curvature="0" /><path
         d="m 3565.53,566.832 -17.77,-17.773 -11.81,-5.969 -17.77,0 -11.81,5.969 -5.97,17.773 0,59.164"
         style="fill:none;stroke:#000000;stroke-width:11.1868;stroke-linecap:round;stroke-linejoin:round;stroke-miterlimit:10;stroke-opacity:1;stroke-dasharray:none"
         id="path224"
         inkscape:connector-curvature="0" /><path
         d="m 3451.55,501.699 0,100.68 -5.84,17.652 -11.93,5.965 -11.81,0"
         style="fill:none;stroke:#000000;stroke-width:11.1868;stroke-linecap:round;stroke-linejoin:round;stroke-miterlimit:10;stroke-opacity:1;stroke-dasharray:none"
         id="path226"
         inkscape:connector-curvature="0" /><path
         d="m 3469.32,543.09 -41.39,0"
         style="fill:none;stroke:#000000;stroke-width:11.1868;stroke-linecap:round;stroke-linejoin:round;stroke-miterlimit:10;stroke-opacity:1;stroke-dasharray:none"
         id="path228"
         inkscape:connector-curvature="0" /><path
         d="m 3331.98,560.867 5.96,-11.808 17.78,-5.969 17.77,0 17.65,5.969 5.97,11.808 -5.97,11.805 -11.81,5.969 -29.58,5.964 -11.81,5.844 -5.96,11.93 0,5.844 5.96,11.808 17.78,5.965 17.77,0 17.65,-5.965 5.97,-11.808"
         style="fill:none;stroke:#000000;stroke-width:11.1868;stroke-linecap:round;stroke-linejoin:round;stroke-miterlimit:10;stroke-opacity:1;stroke-dasharray:none"
         id="path230"
         inkscape:connector-curvature="0" /><path
         d="m 3238.75,543.09 0,124.297"
         style="fill:none;stroke:#000000;stroke-width:11.1868;stroke-linecap:round;stroke-linejoin:round;stroke-miterlimit:10;stroke-opacity:1;stroke-dasharray:none"
         id="path232"
         inkscape:connector-curvature="0" /><path
         d="m 3238.75,560.867 -11.8,-11.808 -11.81,-5.969 -17.78,0 -11.93,5.969 -11.81,11.808 -5.84,17.774 0,11.808 5.84,17.774 11.81,11.808 11.93,5.965 17.78,0 11.81,-5.965 11.8,-11.808"
         style="fill:none;stroke:#000000;stroke-width:11.1868;stroke-linecap:round;stroke-linejoin:round;stroke-miterlimit:10;stroke-opacity:1;stroke-dasharray:none"
         id="path234"
         inkscape:connector-curvature="0" /><path
         d="m 3142.92,578.641 -70.97,0 0,-11.809 5.84,-11.809 5.96,-5.964 11.81,-5.969 17.78,0 11.8,5.969 11.81,11.808 5.97,17.774 0,11.808 -5.97,17.774 -11.81,11.808 -11.8,5.965 -17.78,0 -11.81,-5.965 -11.8,-11.808"
         style="fill:none;stroke:#000000;stroke-width:11.1868;stroke-linecap:round;stroke-linejoin:round;stroke-miterlimit:10;stroke-opacity:1;stroke-dasharray:none"
         id="path236"
         inkscape:connector-curvature="0" /><path
         d="m 3040.87,543.09 0,82.906"
         style="fill:none;stroke:#000000;stroke-width:11.1868;stroke-linecap:round;stroke-linejoin:round;stroke-miterlimit:10;stroke-opacity:1;stroke-dasharray:none"
         id="path238"
         inkscape:connector-curvature="0" /><path
         d="m 3040.87,578.641 -5.96,-17.774 -11.81,-11.808 -11.81,-5.969 -17.78,0"
         style="fill:none;stroke:#000000;stroke-width:11.1868;stroke-linecap:round;stroke-linejoin:round;stroke-miterlimit:10;stroke-opacity:1;stroke-dasharray:none"
         id="path240"
         inkscape:connector-curvature="0" /><path
         d="m 2900.54,531.281 0,-5.965 -5.84,-11.808 -5.97,-5.844 -11.81,-5.965 -23.74,0 -11.81,5.965 -5.84,5.844 -5.96,11.808 0,11.934 5.96,11.809 11.81,17.773 59.16,59.164 -82.9,0"
         style="fill:none;stroke:#000000;stroke-width:11.1868;stroke-linecap:round;stroke-linejoin:round;stroke-miterlimit:10;stroke-opacity:1;stroke-dasharray:none"
         id="path242"
         inkscape:connector-curvature="0" /><path
         d="m 2730.38,501.699 0,124.297"
         style="fill:none;stroke:#000000;stroke-width:11.1868;stroke-linecap:round;stroke-linejoin:round;stroke-miterlimit:10;stroke-opacity:1;stroke-dasharray:none"
         id="path244"
         inkscape:connector-curvature="0" /><path
         d="m 2671.21,543.09 59.17,59.289"
         style="fill:none;stroke:#000000;stroke-width:11.1868;stroke-linecap:round;stroke-linejoin:round;stroke-miterlimit:10;stroke-opacity:1;stroke-dasharray:none"
         id="path246"
         inkscape:connector-curvature="0" /><path
         d="m 2706.76,578.641 -41.52,47.355"
         style="fill:none;stroke:#000000;stroke-width:11.1868;stroke-linecap:round;stroke-linejoin:round;stroke-miterlimit:10;stroke-opacity:1;stroke-dasharray:none"
         id="path248"
         inkscape:connector-curvature="0" /><path
         d="m 2640.38,578.641 -70.97,0 0,-11.809 5.84,-11.809 5.97,-5.964 11.81,-5.969 17.77,0 11.81,5.969 11.81,11.808 5.96,17.774 0,11.808 -5.96,17.774 -11.81,11.808 -11.81,5.965 -17.77,0 -11.81,-5.965 -11.81,-11.808"
         style="fill:none;stroke:#000000;stroke-width:11.1868;stroke-linecap:round;stroke-linejoin:round;stroke-miterlimit:10;stroke-opacity:1;stroke-dasharray:none"
         id="path250"
         inkscape:connector-curvature="0" /><path
         d="m 2544.55,501.699 -47.36,124.297 -47.35,-124.297"
         style="fill:none;stroke:#000000;stroke-width:11.1868;stroke-linecap:round;stroke-linejoin:round;stroke-miterlimit:10;stroke-opacity:1;stroke-dasharray:none"
         id="path252"
         inkscape:connector-curvature="0" /><path
         d="m 2362.82,520.84 -95.58,95.586"
         style="fill:none;stroke:#000000;stroke-width:11.1868;stroke-linecap:round;stroke-linejoin:round;stroke-miterlimit:10;stroke-opacity:1;stroke-dasharray:none"
         id="path254"
         inkscape:connector-curvature="0" /><path
         d="m 2267.24,520.84 95.58,95.586"
         style="fill:none;stroke:#000000;stroke-width:11.1868;stroke-linecap:round;stroke-linejoin:round;stroke-miterlimit:10;stroke-opacity:1;stroke-dasharray:none"
         id="path256"
         inkscape:connector-curvature="0" /><path
         d="m 2242.38,525.316 -11.81,-5.843 -17.77,-17.774 0,124.297"
         style="fill:none;stroke:#000000;stroke-width:11.1868;stroke-linecap:round;stroke-linejoin:round;stroke-miterlimit:10;stroke-opacity:1;stroke-dasharray:none"
         id="path258"
         inkscape:connector-curvature="0" /><path
         d="m 2146.18,501.699 17.77,5.965 11.81,17.652 5.96,29.707 0,17.649 -5.96,29.707 -11.81,17.652 -17.77,5.965 -11.81,0 -17.78,-5.965 -11.8,-17.652 -5.97,-29.707 0,-17.649 5.97,-29.707 11.8,-17.652 17.78,-5.965 11.81,0"
         style="fill:none;stroke:#000000;stroke-width:11.1868;stroke-linecap:round;stroke-linejoin:round;stroke-miterlimit:10;stroke-opacity:1;stroke-dasharray:none"
         id="path260"
         inkscape:connector-curvature="0" /><path
         d="m 2056.98,469.383 12.44,4.176 4.09,8.265 0,8.266 -4.09,8.265 -8.26,4.176 -16.62,4.176 -12.45,4.09 -8.26,8.266 -4.18,8.355 0,12.441 4.18,8.266 4.17,4.09 12.36,4.176 16.62,0 12.44,-4.176 4.09,-4.09 4.18,-8.266 0,-12.441 -4.18,-8.355 -8.26,-8.266 -12.45,-4.09 -16.53,-4.176 -8.27,-4.176 -4.17,-8.265 0,-8.266 4.17,-8.265 12.36,-4.176 16.62,0"
         style="fill:none;stroke:#000000;stroke-width:7.83076;stroke-linecap:round;stroke-linejoin:round;stroke-miterlimit:10;stroke-opacity:1;stroke-dasharray:none"
         id="path262"
         inkscape:connector-curvature="0" /><path
         d="m 4199.45,7151.63 -2485.95,0"
         style="fill:none;stroke:#000000;stroke-width:7.00004005;stroke-linecap:round;stroke-linejoin:round;stroke-miterlimit:10;stroke-opacity:1;stroke-dasharray:none"
         id="path264"
         inkscape:connector-curvature="0" /><path
         d="m 3844.38,7151.63 0,-41.43"
         style="fill:none;stroke:#000000;stroke-width:7.00004005;stroke-linecap:round;stroke-linejoin:round;stroke-miterlimit:10;stroke-opacity:1;stroke-dasharray:none"
         id="path266"
         inkscape:connector-curvature="0" /><path
         d="m 3489.09,7151.63 0,-41.43"
         style="fill:none;stroke:#000000;stroke-width:7.00004005;stroke-linecap:round;stroke-linejoin:round;stroke-miterlimit:10;stroke-opacity:1;stroke-dasharray:none"
         id="path268"
         inkscape:connector-curvature="0" /><path
         d="m 3134.01,7151.63 0,-41.43"
         style="fill:none;stroke:#000000;stroke-width:7.00004005;stroke-linecap:round;stroke-linejoin:round;stroke-miterlimit:10;stroke-opacity:1;stroke-dasharray:none"
         id="path270"
         inkscape:connector-curvature="0" /><path
         d="m 2778.93,7151.63 0,-41.43"
         style="fill:none;stroke:#000000;stroke-width:7.00004005;stroke-linecap:round;stroke-linejoin:round;stroke-miterlimit:10;stroke-opacity:1;stroke-dasharray:none"
         id="path272"
         inkscape:connector-curvature="0" /><path
         d="m 2423.86,7151.63 0,-41.43"
         style="fill:none;stroke:#000000;stroke-width:7.00004005;stroke-linecap:round;stroke-linejoin:round;stroke-miterlimit:10;stroke-opacity:1;stroke-dasharray:none"
         id="path274"
         inkscape:connector-curvature="0" /><path
         d="m 2068.57,7151.63 0,-41.43"
         style="fill:none;stroke:#000000;stroke-width:7.00004005;stroke-linecap:round;stroke-linejoin:round;stroke-miterlimit:10;stroke-opacity:1;stroke-dasharray:none"
         id="path276"
         inkscape:connector-curvature="0" /><path
         d="m 4101.67,936.742 0,4.973 -2.3,0 0,4.973 -2.32,0 0,4.968 -2.3,0 0,4.973 -2.32,0 0,4.973 -2.3,0 0,4.972 -2.28,0 0,4.973 -2.28,0 0,4.969 -2.3,0 0,4.972 -2.27,0 0,4.973 -2.29,0 0,4.973 -2.29,0 0,4.972 -2.28,0 0,4.974 -2.28,0 0,4.97 -2.2,0 0,4.97 -2.19,0 0,4.97 -2.18,0 0,4.98 -2.19,0 0,4.97 -2.2,0 0,4.97 -2.17,0 0,4.97 -2.2,0 0,4.97 -2.2,0 0,4.98 -2.17,0 0,4.97 -2.18,0 0,4.97 -2.07,0 0,4.97 -2.07,0 0,4.97 -2.07,0 0,4.97 -2.07,0 0,4.98 -2.07,0 0,4.97 -2.08,0 0,4.97 -2.07,0 0,4.97 -2.09,0 0,4.97 -2.07,0 0,4.98 -2.07,0 0,4.97 -1.93,0 0,4.97 -1.93,0 0,4.97 -1.93,0 0,4.97 -1.94,0 0,4.98 -1.93,0 0,4.97 -1.93,0 0,4.97 -1.94,0 0,4.97 -1.93,0 0,4.97 -1.93,0 0,4.98 -1.92,0 0,4.97 -1.78,0 0,4.97 -1.78,0 0,4.97 -1.79,0 0,4.97 -1.76,0 0,4.97 -1.78,0 0,4.98 -1.78,0 0,4.97 -1.76,0 0,4.97 -1.7,0 0,4.97 -1.7,0 0,4.97 -1.7,0 0,4.98 -1.68,0 0,4.97 -1.69,0 0,4.97"
         style="fill:none;stroke:#000000;stroke-width:4.14326;stroke-linecap:round;stroke-linejoin:round;stroke-miterlimit:10;stroke-opacity:1;stroke-dasharray:none"
         id="path278"
         inkscape:connector-curvature="0" /><path
         d="m 3989.04,1215.17 -1.62,0 0,4.97 -1.62,0 0,4.97 -1.61,0 0,4.98 -1.53,0 0,4.97 -1.52,0 0,4.97 -1.53,0 0,4.97 -1.53,0 0,4.97 -1.54,0 0,4.98 -1.51,0 0,4.97 -1.45,0 0,4.97 -1.45,0 0,4.97 -1.45,0 0,4.97 -1.43,0 0,4.97 -1.45,0 0,4.98 -1.45,0 0,4.97 -1.45,0 0,4.97 -1.43,0 0,4.97 -1.45,0 0,4.97 -1.26,0 0,4.98 -1.29,0 0,4.97 -1.26,0 0,4.97 -1.26,0 0,4.97 -1.27,0 0,4.97 -1.28,0 0,4.98 -1.27,0 0,4.97 -1.26,0 0,4.97 -1.28,0 0,4.97 -1.08,0 0,4.97 -1.1,0 0,4.98 -1.08,0 0,4.97 -1.1,0 0,4.97 -1.07,0 0,4.97 -1.02,0 0,4.97 -1.01,0 0,4.97 -1.02,0 0,4.98 -1.01,0 0,4.97 -1,0 0,4.97 -1.01,0 0,4.97 -1.02,0 0,4.97 -1.01,0 0,4.98 -1,0 0,4.97 -1.01,0 0,4.97 -0.85,0 0,4.97 -0.85,0 0,4.97 -0.85,0 0,4.98 -0.85,0 0,4.97 -0.85,0 0,4.97 -0.85,0 0,4.97 -0.85,0 0,4.97 -0.76,0 0,4.98 -0.77,0 0,4.97 -0.79,0 0,4.97 -0.76,0 0,4.97 -0.77,0 0,4.97 -0.77,0 0,4.98 -0.78,0 0,4.97"
         style="fill:none;stroke:#000000;stroke-width:4.14326;stroke-linecap:round;stroke-linejoin:round;stroke-miterlimit:10;stroke-opacity:1;stroke-dasharray:none"
         id="path280"
         inkscape:connector-curvature="0" /><path
         d="m 3923.7,1493.6 -0.77,0 0,4.97 -0.62,0 0,4.97 -0.62,0 0,4.97 -0.62,0 0,4.97 -0.61,0 0,4.98 -0.62,0 0,4.97 -0.55,0 0,4.97 -0.54,0 0,4.97 -0.57,0 0,4.97 -0.53,0 0,4.98 -0.56,0 0,4.97 -0.54,0 0,4.97 -0.56,0 0,4.97 -0.54,0 0,4.97 -0.56,0 0,4.98 -0.54,0 0,4.97 -0.41,0 0,4.97 -0.42,0 0,4.97 -0.41,0 0,4.97 -0.4,0 0,4.98 -0.41,0 0,4.97 -0.41,0 0,4.97 -0.42,0 0,4.97 -0.39,0 0,4.97 -0.42,0 0,4.97 -0.41,0 0,4.98 -0.27,0 0,4.97 -0.29,0 0,4.97 -0.27,0 0,4.97 -0.29,0 0,4.97 -0.27,0 0,4.98 -0.29,0 0,4.97 -0.27,0 0,4.97 -0.26,0 0,4.97 -0.29,0 0,4.97 -0.27,0 0,4.98 -0.17,0 0,4.97 -0.15,0 0,4.97 -0.16,0 0,4.97 -0.17,0 0,4.97 -0.14,0 0,4.98 -0.17,0 0,4.97 -0.14,0 0,4.97 -0.17,0 0,4.97 -0.14,0 0,4.97 -0.17,0 0,4.97 -0.04,0 0,4.98 -0.04,0 0,4.97 -0.07,0 0,4.97 -0.04,0 0,4.97 -0.04,0 0,19.89 0.03,0 0,9.94"
         style="fill:none;stroke:#000000;stroke-width:4.14326;stroke-linecap:round;stroke-linejoin:round;stroke-miterlimit:10;stroke-opacity:1;stroke-dasharray:none"
         id="path282"
         inkscape:connector-curvature="0" /><path
         d="m 3905.7,1772.02 0.03,0 0,4.98 0.07,0 0,4.97 0.04,0 0,4.97 0.06,0 0,4.97 0.04,0 0,4.97 0.11,0 0,4.98 0.08,0 0,4.97 0.1,0 0,4.97 0.09,0 0,4.97 0.1,0 0,4.97 0.14,0 0,4.97 0.13,0 0,4.98 0.14,0 0,4.97 0.15,0 0,4.97 0.12,0 0,4.97 0.19,0 0,4.97 0.16,0 0,4.98 0.19,0 0,4.97 0.19,0 0,4.97 0.16,0 0,4.97 0.23,0 0,4.97 0.21,0 0,4.98 0.23,0 0,4.97 0.2,0 0,4.97 0.21,0 0,4.97 0.27,0 0,4.97 0.25,0 0,4.98 0.25,0 0,4.97 0.25,0 0,4.97 0.24,0 0,4.97 0.3,0 0,4.97 0.28,0 0,4.98 0.29,0 0,4.97 0.29,0 0,4.97 0.3,0 0,4.97 0.3,0 0,4.97 0.32,0 0,4.97 0.33,0 0,4.98 0.31,0 0,4.97 0.33,0 0,4.97 0.33,0 0,4.97 0.35,0 0,4.97 0.35,0 0,4.98 0.36,0 0,4.97 0.35,0 0,4.97 0.37,0 0,4.97 0.37,0 0,4.97 0.38,0 0,4.98 0.39,0 0,4.97 0.37,0 0,4.97 0.4,0 0,4.97 0.41,0 0,4.97 0.4,0 0,4.98 0.41,0 0,4.97 0.4,0 0,4.97 0.43,0 0,4.97"
         style="fill:none;stroke:#000000;stroke-width:4.14326;stroke-linecap:round;stroke-linejoin:round;stroke-miterlimit:10;stroke-opacity:1;stroke-dasharray:none"
         id="path284"
         inkscape:connector-curvature="0" /><path
         d="m 3919.45,2050.45 0.41,0 0,4.97 0.44,0 0,4.97 0.43,0 0,4.98 0.42,0 0,4.97 0.45,0 0,4.97 0.46,0 0,4.97 0.44,0 0,4.97 0.45,0 0,4.98 0.46,0 0,4.97 0.45,0 0,4.97 0.48,0 0,4.97 0.48,0 0,4.97 0.45,0 0,4.98 0.48,0 0,4.97 0.49,0 0,4.97 0.48,0 0,4.97 0.5,0 0,4.97 0.49,0 0,4.98 0.48,0 0,4.97 0.52,0 0,4.97 0.5,0 0,4.97 0.51,0 0,4.97 0.5,0 0,4.97 0.52,0 0,4.98 0.52,0 0,4.97 0.51,0 0,4.97 0.54,0 0,4.97 0.52,0 0,4.97 0.52,0 0,4.98 0.54,0 0,4.97 0.54,0 0,4.97 0.53,0 0,4.97 0.54,0 0,4.97 0.54,0 0,4.98 0.56,0 0,4.97 0.56,0 0,4.97 0.56,0 0,4.97 0.54,0 0,4.97 0.56,0 0,4.98 0.56,0 0,4.97 0.58,0 0,4.97 0.56,0 0,4.97 0.58,0 0,4.97 0.56,0 0,4.97 0.58,0 0,4.98 0.58,0 0,4.97 0.56,0 0,4.97 0.58,0 0,4.97 0.58,0 0,4.97 0.58,0 0,4.98 0.58,0 0,4.97 0.56,0 0,4.97 0.58,0 0,4.97 0.58,0 0,4.97 0.58,0 0,4.98 0.58,0 0,4.97"
         style="fill:none;stroke:#000000;stroke-width:4.14326;stroke-linecap:round;stroke-linejoin:round;stroke-miterlimit:10;stroke-opacity:1;stroke-dasharray:none"
         id="path286"
         inkscape:connector-curvature="0" /><path
         d="m 3948.58,2328.88 0.58,0 0,4.97 0.55,0 0,4.97 0.59,0 0,4.97 0.58,0 0,4.98 0.58,0 0,4.97 0.58,0 0,4.97 0.55,0 0,4.97 0.59,0 0,4.97 0.57,0 0,4.98 0.59,0 0,4.97 0.57,0 0,4.97 0.59,0 0,4.97 0.55,0 0,4.97 0.59,0 0,4.97 0.57,0 0,4.98 0.59,0 0,4.97 0.58,0 0,4.97 0.57,0 0,4.97 0.57,0 0,4.97 0.57,0 0,4.98 0.59,0 0,4.97 0.57,0 0,4.97 0.59,0 0,4.97 0.55,0 0,4.97 0.58,0 0,4.98 0.58,0 0,4.96 0.58,0 0,4.98 0.58,0 0,4.97 0.58,0 0,4.97 0.59,0 0,4.98 0.57,0 0,4.97 0.56,-0.01 0,4.98 0.58,0 0,4.97 0.58,0 0,4.97 0.58,0 0,4.97 0.58,0 0,4.98 0.58,0 0,4.97 0.58,0 0,4.97 0.58,0 0,4.97 0.58,0 0,4.97 0.58,0 0,4.98 0.58,0 0,4.97 0.57,0 0,4.97 0.57,0 0,4.97 0.59,0 0,4.97 0.57,0 0,4.98 0.59,0 0,4.96 0.57,0 0,4.98 0.59,0 0,4.97 0.57,0 0,4.97 0.59,0 0,4.98 0.57,0 0,4.96 0.56,0 0,4.98 0.58,0 0,4.97 0.58,0 0,4.97 0.58,0 0,4.97"
         style="fill:none;stroke:#000000;stroke-width:4.14326;stroke-linecap:round;stroke-linejoin:round;stroke-miterlimit:10;stroke-opacity:1;stroke-dasharray:none"
         id="path288"
         inkscape:connector-curvature="0" /><path
         d="m 3980.89,2607.3 0.56,0 0,4.97 0.56,0 0,4.98 0.58,0 0,4.97 0.56,0 0,4.97 0.52,0 0,4.97 0.47,0 0,4.97 0.5,0 0,4.98 0.5,0 0,4.97 0.5,0 0,4.97 0.52,0 0,4.97 0.49,0 0,4.98 0.5,0 0,4.96 0.5,0 0,4.98 0.49,0 0,4.97 0.52,0 0,4.97 0.5,0 0,4.98 0.52,0 0,4.96 0.5,0 0,4.98 0.51,0 0,4.97 0.5,0 0,4.97 0.52,0 0,4.97 0.52,0 0,4.97 0.51,0 0,4.98 0.52,0 0,4.97 0.52,0 0,4.97 0.52,0 0,4.97 0.52,0 0,4.97 0.51,0 0,4.98 0.54,0 0,4.97 0.52,0 0,4.97 0.52,0 0,4.97 0.54,0 0,4.97 0.53,0 0,4.98 0.52,0 0,4.97 0.54,0 0,4.97 0.52,0 0,4.97 0.54,0 0,4.98 0.54,0 0,4.96 0.54,0 0,4.98 0.53,0 0,4.97 0.54,0 0,4.97 0.56,0 0,4.98 0.54,0 0,4.96 0.54,0 0,4.98 0.56,0 0,4.97 0.54,0 0,4.97 0.56,0 0,4.97 0.54,0 0,4.97 0.55,0 0,4.98 0.56,0 0,4.97 0.54,0 0,4.97 0.56,0 0,4.97 0.56,0 0,4.97 0.56,0 0,4.98 0.56,0 0,4.97 0.56,0 0,4.97"
         style="fill:none;stroke:#000000;stroke-width:4.14326;stroke-linecap:round;stroke-linejoin:round;stroke-miterlimit:10;stroke-opacity:1;stroke-dasharray:none"
         id="path290"
         inkscape:connector-curvature="0" /><path
         d="m 4010.54,2885.73 0.58,0 0,4.97 0.56,0 0,4.97 0.56,0 0,4.97 0.58,0 0,4.98 0.56,0 0,4.97 0.58,0 0,4.97 0.58,0 0,4.97 0.56,0 0,4.97 0.58,0 0,4.98 0.58,0 0,4.97 0.58,0 0,4.97 0.55,0 0,4.97 0.59,0 0,4.97 0.57,0 0,4.98 0.59,0 0,4.97 0.6,0 0,4.97 0.58,0 0,4.97 0.58,0 0,4.97 0.58,0 0,4.98 0.6,0 0,4.97 0.58,0 0,4.97 0.6,0 0,4.97 0.58,0 0,4.97 0.6,0 0,4.97 0.58,0 0,4.98 0.6,0 0,4.97 0.58,0 0,4.97 0.6,0 0,4.97 0.6,0 0,4.97 0.6,0 0,4.98 0.6,0 0,4.97 0.6,0 0,4.97 0.59,0 0,4.97 0.6,0 0,4.97 0.59,0 0,4.97 0.63,0 0,4.97 0.6,0 0,4.98 0.6,0 0,4.97 0.6,0 0,4.97 0.6,0 0,4.97 0.6,0 0,4.97 0.62,0 0,4.98 0.6,0 0,4.97 0.62,0 0,4.97 0.6,0 0,4.97 0.61,0 0,4.97 0.62,0 0,4.98 0.62,0 0,4.97 0.6,0 0,4.97 0.62,0 0,4.97 0.6,0 0,4.97 0.62,0 0,4.98 0.62,0 0,4.96 0.61,0 0,4.98 0.62,0 0,4.97 0.62,0 0,4.97"
         style="fill:none;stroke:#000000;stroke-width:4.14326;stroke-linecap:round;stroke-linejoin:round;stroke-miterlimit:10;stroke-opacity:1;stroke-dasharray:none"
         id="path292"
         inkscape:connector-curvature="0" /><path
         d="m 4043.81,3164.15 0.62,0 0,4.97 0.62,0 0,4.97 0.62,0 0,4.98 0.63,0 0,4.97 0.62,0 0,4.97 0.62,0 0,4.97 0.62,0 0,4.97 0.62,0 0,4.98 0.62,0 0,4.97 0.62,0 0,4.97 0.62,0 0,4.97 0.63,0 0,4.97 0.62,0 0,4.98 0.64,0 0,4.97 0.62,-0.01 0,4.98 0.62,0 0,4.97 0.62,0 0,4.97 0.63,0 0,4.97 0.62,0 0,4.97 0.64,0 0,4.98 0.62,0 0,4.97 0.62,0 0,4.97 0.62,0 0,4.97 0.63,0 0,4.97 0.62,0 0,4.98 0.64,0 0,4.97 0.62,0 0,4.97 0.62,0 0,4.97 0.62,0 0,4.97 0.63,0 0,4.97 0.62,0 0,4.98 0.64,0 0,4.97 0.62,0 0,4.97 0.62,0 0,4.97 0.62,0 0,4.97 0.63,0 0,4.97 0.62,0 0,4.98 0.64,0 0,4.97 0.62,0 0,4.97 0.62,0 0,4.97 0.62,0 0,4.97 0.63,0 0,4.97 0.62,0 0,4.98 0.64,0 0,4.97 0.62,0 0,4.97 0.62,0 0,4.97 0.62,0 0,4.97 0.63,0 0,4.98 0.62,0 0,4.97 0.64,0 0,4.97 0.62,0 0,4.97 0.62,0 0,4.97 0.62,0 0,4.98 0.63,0 0,4.97 0.64,0 0,4.97 0.62,0 0,4.97"
         style="fill:none;stroke:#000000;stroke-width:4.14326;stroke-linecap:round;stroke-linejoin:round;stroke-miterlimit:10;stroke-opacity:1;stroke-dasharray:none"
         id="path294"
         inkscape:connector-curvature="0" /><path
         d="m 4078.78,3442.57 0.62,0 0,4.97 0.62,0 0,4.97 0.62,0 0,4.97 0.65,0 0,4.98 0.62,0 0,4.97 0.62,0 0,4.97 0.62,0 0,4.97 0.62,0 0,4.97 0.64,0 0,4.98 0.63,0 0,4.97 0.62,0 0,4.97 0.62,0 0,4.97 0.62,0 0,4.97 0.62,0 0,4.98 0.64,0 0,4.97 0.63,-0.01 0,4.98 0.62,0 0,4.97 0.62,0 0,4.97 0.62,0 0,4.98 0.64,0 0,4.96 0.62,0 0,4.98 0.63,0 0,4.97 0.62,0 0,4.97 0.62,0 0,4.97 0.62,0 0,4.97 0.6,0 0,4.98 0.6,0 0,4.97 0.52,0 0,4.97 0.54,0 0,4.97 0.52,0 0,4.97 0.51,0 0,4.98 0.52,0 0,4.97 0.5,0 0,4.97 0.52,0 0,4.97 0.49,0 0,4.97 0.5,0 0,4.97 0.49,0 0,4.97 0.5,0 0,4.98 0.5,0 0,4.97 0.5,0 0,4.97 0.5,0 0,4.97 0.49,0 0,4.97 0.5,0 0,4.98 0.5,0 0,4.97 0.5,0 0,4.97 0.51,0 0,4.97 0.5,0 0,4.97 0.5,0 0,4.97 0.49,0 0,4.98 0.5,0 0,4.97 0.5,0 0,4.97 0.5,0 0,4.97 0.49,0 0,4.97 0.5,0 0,4.98 0.5,0 0,4.97 0.49,0 0,4.97"
         style="fill:none;stroke:#000000;stroke-width:4.14326;stroke-linecap:round;stroke-linejoin:round;stroke-miterlimit:10;stroke-opacity:1;stroke-dasharray:none"
         id="path296"
         inkscape:connector-curvature="0" /><path
         d="m 4110.18,3720.99 0.5,0 0,4.97 0.5,0 0,4.97 0.5,0 0,4.97 0.49,0 0,4.98 0.5,0 0,4.97 0.5,0 0,4.97 0.49,0 0,4.97 0.5,0 0,4.97 0.52,0 0,4.97 0.5,0 0,4.98 0.5,0 0,4.97 0.49,0 0,4.97 0.5,0 0,4.97 0.49,0 0,4.97 0.5,0 0,4.98 0.5,0 0,4.97 0.5,0 0,4.97 0.49,0 0,4.97 0.5,0 0,4.97 0.5,0 0,4.98 0.49,0 0,4.96 0.5,0 0,4.98 0.5,0 0,4.97 0.5,0 0,4.97 0.49,0 0,4.97 0.5,0 0,4.97 0.52,0 0,4.98 0.5,0 0,4.97 0.49,0 0,4.97 0.5,0 0,4.97 0.5,0 0,4.97 0.5,0 0,4.98 0.49,0 0,4.97 0.5,0 0,4.97 0.5,0 0,4.97 0.5,0 0,4.97 0.47,0 0,4.98 0.48,0 0,4.97 0.47,-0.01 0,4.98 0.5,0 0,4.97 0.46,0 0,4.97 0.39,0 0,4.97 0.39,0 0,4.97 0.4,0 0,4.98 0.39,0 0,4.97 0.4,0 0,4.97 0.37,0 0,4.97 0.37,0 0,4.97 0.37,0 0,4.98 0.37,0 0,4.97 0.38,0 0,4.97 0.37,0 0,4.97 0.38,0 0,4.97 0.37,0 0,4.97 0.37,0 0,4.98 0.37,0 0,4.97"
         style="fill:none;stroke:#000000;stroke-width:4.14326;stroke-linecap:round;stroke-linejoin:round;stroke-miterlimit:10;stroke-opacity:1;stroke-dasharray:none"
         id="path298"
         inkscape:connector-curvature="0" /><path
         d="m 4136.2,3999.41 0.38,0 0,4.97 0.37,0 0,4.97 0.37,0 0,4.97 0.38,0 0,4.97 0.37,0 0,4.98 0.37,0 0,4.97 0.35,0 0,4.97 0.38,0 0,4.97 0.37,0 0,4.97 0.37,0 0,4.98 0.38,0 0,4.97 0.37,0 0,4.97 0.37,0 0,4.97 0.37,0 0,4.97 0.38,0 0,4.97 0.35,0 0,4.98 0.37,0 0,4.97 0.38,0 0,4.97 0.35,0 0,4.97 0.37,0 0,4.97 0.31,0 0,4.98 0.33,0 0,4.97 0.33,0 0,4.97 0.31,0 0,4.97 0.32,0 0,4.97 0.28,0 0,4.97 0.27,0 0,4.97 0.27,0 0,4.98 0.29,0 0,4.97 0.27,0 0,4.97 0.25,0 0,4.97 0.27,0 0,4.97 0.25,0 0,4.98 0.27,0 0,4.97 0.25,0 0,4.97 0.25,0 0,4.97 0.24,0 0,4.97 0.25,0 0,4.98 0.23,0 0,4.97 0.25,-0.01 0,4.98 0.19,0 0,4.97 0.18,0 0,4.97 0.19,0 0,4.98 0.19,-0.01 0,4.97 0.18,0 0,4.98 0.19,0 0,4.97 0.18,0 0,4.97 0.19,0 0,4.97 0.17,0 0,4.97 0.18,0 0,4.98 0.19,0 0,4.97 0.17,0 0,4.97 0.18,0 0,4.97 0.19,0 0,4.97 0.16,0 0,4.98 0.19,0 0,4.97"
         style="fill:none;stroke:#000000;stroke-width:4.14326;stroke-linecap:round;stroke-linejoin:round;stroke-miterlimit:10;stroke-opacity:1;stroke-dasharray:none"
         id="path300"
         inkscape:connector-curvature="0" /><path
         d="m 4152.01,4277.83 0.19,0 0,4.97 0.16,0 0,4.97 0.19,0 0,4.97 0.18,0 0,4.97 0.17,0 0,4.98 0.19,-0.01 0,4.98 0.18,0 0,4.97 0.17,0 0,4.97 0.19,0 0,4.97 0.18,0 0,4.97 0.17,0 0,4.98 0.18,0 0,4.97 0.19,0 0,4.97 0.17,0 0,4.97 0.18,0 0,4.97 0.19,0 0,4.98 0.16,0 0,4.97 0.19,0 0,4.97 0.19,0 0,4.97 0.16,0 0,4.97 0.19,0 0,4.97 0.19,0 0,4.98 0.16,0 0,4.97 0.19,0 0,4.97 0.18,0 0,4.97 0.19,0 0,4.97 0.17,0 0,4.98 0.18,-0.01 0,4.98 0.19,0 0,4.97 0.17,0 0,4.97 0.18,0 0,4.97 0.19,0 0,4.97 0.16,0 0,4.97 0.19,0 0,4.98 0.19,0 0,4.97 0.16,0 0,4.97 0.19,0 0,4.97 0.19,0 0,4.97 0.16,0 0,4.98 0.19,0 0,4.97 0.19,0 0,4.97 0.16,0 0,4.97 0.19,0 0,4.97 0.19,0 0,4.98 0.16,-0.01 0,4.97 0.19,0 0,4.98 0.18,0 0,4.97 0.17,0 0,4.97 0.19,0 0,4.98 0.18,-0.01 0,4.97 0.17,0 0,4.98 0.18,0 0,4.97 0.19,0 0,4.97 0.17,0 0,4.97 0.18,0 0,4.97 0.17,0 0,4.98"
         style="fill:none;stroke:#000000;stroke-width:4.14326;stroke-linecap:round;stroke-linejoin:round;stroke-miterlimit:10;stroke-opacity:1;stroke-dasharray:none"
         id="path302"
         inkscape:connector-curvature="0" /><path
         d="m 4162.06,4556.25 0.19,0 0,4.97 0.16,0 0,4.97 0.19,0 0,4.97 0.14,0 0,4.97 0.17,0 0,4.98 0.14,0 0,4.97 0.17,-0.01 0,4.98 0.14,0 0,4.97 0.15,0 0,4.97 0.14,0 0,4.97 0.15,0 0,4.97 0.14,0 0,4.98 0.13,0 0,4.97 0.14,0 0,4.97 0.13,0 0,4.97 0.12,0 0,4.97 0.13,0 0,4.98 0.12,0 0,4.97 0.12,0 0,4.97 0.13,0 0,4.97 0.12,0 0,4.97 0.13,0 0,4.98 0.12,0 0,4.97 0.13,0 0,4.97 0.12,0 0,4.97 0.12,0 0,4.97 0.13,0 0,4.97 0.12,0 0,4.98 0.13,-0.01 0,4.98 0.12,0 0,4.97 0.12,0 0,4.97 0.13,0 0,4.97 0.12,0 0,4.97 0.13,0 0,4.98 0.12,0 0,4.97 0.13,0 0,4.97 0.12,0 0,4.97 0.13,0 0,4.97 0.12,0 0,4.97 0.13,0 0,4.98 0.12,0 0,4.97 0.1,0 0,4.97 0.13,0 0,4.97 0.12,0 0,4.97 0.12,0 0,4.98 0.13,-0.01 0,4.98 0.12,0 0,4.97 0.13,0 0,4.97 0.12,0 0,4.97 0.13,0 0,4.98 0.12,-0.01 0,4.97 0.12,0 0,4.98 0.13,0 0,4.97 0.12,0 0,4.97 0.11,0 0,4.97 0.12,0 0,4.97"
         style="fill:none;stroke:#000000;stroke-width:4.14326;stroke-linecap:round;stroke-linejoin:round;stroke-miterlimit:10;stroke-opacity:1;stroke-dasharray:none"
         id="path304"
         inkscape:connector-curvature="0" /><path
         d="m 4169.39,4834.66 0.13,0 0,4.98 0.1,0 0,4.97 0.08,0 0,4.97 0.1,0 0,4.97 0.09,0 0,4.97 0.1,0 0,4.98 0.08,0 0,4.97 0.09,-0.01 0,4.98 0.1,0 0,4.97 0.08,0 0,4.97 0.09,0 0,4.98 0.08,-0.01 0,4.97 0.1,0 0,4.98 0.09,0 0,4.97 0.08,0 0,4.97 0.08,0 0,4.97 0.1,0 0,4.97 0.09,0 0,4.98 0.08,0 0,4.97 0.08,0 0,4.97 0.11,0 0,4.97 0.08,0 0,4.97 0.08,0 0,4.98 0.09,0 0,4.97 0.08,0 0,4.97 0.1,0 0,4.97 0.09,0 0,4.97 0.08,0 0,4.98 0.08,0 0,4.97 0.11,-0.01 0,4.98 0.08,0 0,4.97 0.08,0 0,4.97 0.09,0 0,4.97 0.1,0 0,4.97 0.08,0 0,4.98 0.08,0 0,4.97 0.09,0 0,4.97 0.08,0 0,4.97 0.1,0 0,4.97 0.09,0 0,4.98 0.08,0 0,4.97 0.08,0 0,4.97 0.11,0 0,4.97 0.08,0 0,4.97 0.08,0 0,4.97 0.08,0 0,4.98 0.11,-0.01 0,4.98 0.08,0 0,4.97 0.08,0 0,4.97 0.08,0 0,4.97 0.09,0 0,4.98 0.1,-0.01 0,4.98 0.08,0 0,4.97 0.09,0 0,4.97 0.08,0 0,4.97 0.1,0 0,4.97"
         style="fill:none;stroke:#000000;stroke-width:4.14326;stroke-linecap:round;stroke-linejoin:round;stroke-miterlimit:10;stroke-opacity:1;stroke-dasharray:none"
         id="path306"
         inkscape:connector-curvature="0" /><path
         d="m 4174.38,5113.08 0.08,0 0,4.97 0.09,0 0,4.98 0.08,0 0,4.97 0.1,0 0,4.97 0.09,0 0,4.97 0.08,0 0,4.97 0.08,0 0,4.98 0.09,0 0,4.97 0.1,0 0,4.97 0.08,0 0,4.97 0.09,0 0,4.97 0.08,0 0,4.98 0.1,-0.01 0,4.97 0.09,0 0,4.98 0.08,0 0,4.97 0.08,0 0,4.97 0.09,0 0,4.98 0.1,-0.01 0,4.97 0.08,0 0,4.98 0.09,0 0,4.97 0.08,0 0,4.97 0.08,0 0,4.97 0.06,0 0,4.97 0.08,0 0,4.98 0.09,0 0,4.97 0.06,0 0,4.97 0.08,0 0,4.97 0.07,0 0,4.97 0.08,0 0,4.98 0.06,0 0,4.97 0.08,-0.01 0,4.98 0.07,0 0,4.97 0.08,0 0,4.97 0.06,0 0,4.98 0.08,-0.01 0,4.97 0.06,0 0,4.98 0.09,0 0,4.97 0.06,0 0,4.97 0.06,0 0,4.97 0.06,0 0,4.97 0.09,0 0,4.98 0.06,0 0,4.97 0.06,0 0,4.97 0.06,0 0,4.97 0.09,0 0,4.97 0.06,0 0,4.98 0.06,0 0,4.97 0.06,-0.01 0,4.98 0.07,0 0,4.97 0.08,0 0,4.97 0.06,0 0,4.97 0.06,0 0,4.98 0.07,-0.01 0,4.98 0.06,0 0,4.97 0.06,0 0,4.97 0.06,0 0,4.97"
         style="fill:none;stroke:#000000;stroke-width:4.14326;stroke-linecap:round;stroke-linejoin:round;stroke-miterlimit:10;stroke-opacity:1;stroke-dasharray:none"
         id="path308"
         inkscape:connector-curvature="0" /><path
         d="m 4178.63,5391.5 0.06,0 0,4.97 0.04,0 0,4.98 0.07,0 0,4.97 0.04,0 0,4.97 0.06,0 0,4.97 0.04,0 0,4.97 0.06,0 0,4.97 0.05,0 0,4.98 0.06,0 0,4.97 0.04,0 0,4.97 0.06,0 0,4.97 0.04,0 0,4.97 0.06,0 0,4.98 0.05,-0.01 0,4.98 0.06,0 0,4.97 0.04,0 0,4.97 0.04,0 0,4.97 0.06,0 0,4.98 0.05,-0.01 0,4.97 0.06,0 0,4.98 0.04,0 0,4.97 0.06,0 0,4.97 0.04,0 0,4.97 0.07,0 0,4.97 0.03,0 0,4.98 0.07,0 0,4.97 0.04,0 0,4.97 0.04,0 0,4.97 0.06,0 0,4.97 0.04,0 0,4.98 0.07,0 0,4.97 0.04,0 0,4.97 0.06,0 0,4.97 0.04,0 0,4.97 0.06,0 0,4.98 0.04,-0.01 0,4.97 0.07,0 0,4.98 0.04,0 0,4.97 0.04,0 0,4.97 0.06,0 0,4.98 0.04,-0.01 0,4.97 0.05,0 0,4.98 0.06,0 0,4.97 0.04,0 0,4.97 0.04,0 0,4.97 0.04,0 0,4.97 0.04,0 0,4.98 0.05,0 0,4.97 0.06,-0.01 0,4.98 0.04,0 0,4.97 0.04,0 0,4.97 0.04,0 0,4.98 0.04,0 0,4.97 0.04,-0.01 0,4.98 0.04,0 0,4.97 0.05,0 0,4.97"
         style="fill:none;stroke:#000000;stroke-width:4.14326;stroke-linecap:round;stroke-linejoin:round;stroke-miterlimit:10;stroke-opacity:1;stroke-dasharray:none"
         id="path310"
         inkscape:connector-curvature="0" /><path
         d="m 4181.39,5669.92 0.04,0 0,4.97 0.04,0 0,4.97 0.04,0 0,4.98 0.04,0 0,4.97 0.04,0 0,4.97 0.04,0 0,4.97 0.05,0 0,4.97 0.04,0 0,4.98 0.04,0 0,4.97 0.06,0 0,4.97 0.04,0 0,4.97 0.04,0 0,4.97 0.05,0 0,4.97 0.04,0 0,4.98 0.04,-0.01 0,4.98 0.04,0 0,4.97 0.04,0 0,4.97 0.04,0 0,4.97 0.05,0 0,4.98 0.03,-0.01 0,4.98 0.05,0 0,4.97 0.04,0 0,4.97 0.04,0 0,4.97 0.04,0 0,4.97 0.04,0 0,4.97 0.04,0 0,4.98 0.04,0 0,4.97 0.05,0 0,4.97 0.02,0 0,4.97 0.04,0 0,4.97 0.04,0 0,4.98 0.04,0 0,4.97 0.04,0 0,4.97 0.04,0 0,4.97 0.05,0 0,4.97 0.02,0 0,4.98 0.04,-0.01 0,4.98 0.04,0 0,4.97 0.04,0 0,4.97 0.04,0 0,4.97 0.04,0 0,4.98 0.05,-0.01 0,4.97 0.02,0 0,4.98 0.04,0 0,4.97 0.04,0 0,4.97 0.04,0 0,4.97 0.04,0 0,4.97 0.04,0 0,4.98 0.05,0 0,4.97 0.01,0 0,4.97 0.05,0 0,4.97 0.04,0 0,4.97 0.04,0 0,4.98 0.04,0 0,4.97 0.04,-0.01 0,4.98 0.03,0 0,4.97"
         style="fill:none;stroke:#000000;stroke-width:4.14326;stroke-linecap:round;stroke-linejoin:round;stroke-miterlimit:10;stroke-opacity:1;stroke-dasharray:none"
         id="path312"
         inkscape:connector-curvature="0" /><path
         d="m 4183.63,5948.34 0.03,0 0,4.97 0.05,0 0,4.98 0.04,-0.01 0,4.97 0.04,0 0,4.98 0.04,0 0,4.97 0.04,0 0,4.97 0.02,0 0,4.97 0.04,0 0,4.97 0.05,0 0,4.98 0.04,0 0,4.97 0.04,0 0,4.97 0.02,0 0,4.97 0.04,0 0,4.97 0.04,0 0,4.98 0.04,0 0,4.97 0.05,-0.01 0,4.98 0.04,0 0,4.97 0.02,0 0,4.97 0.04,0 0,4.97 0.04,0 0,4.98 0.04,-0.01 0,4.98 0.04,0 0,4.97 0.02,0 0,4.97 0.05,0 0,4.97 0.04,0 0,4.97 0.04,0 0,4.98 0.04,0 0,4.97 0.04,0 0,4.97 0.02,0 0,4.97 0.04,0 0,4.97 0.04,0 0,4.97 0.04,0 0,4.98 0.05,0 0,4.97 0.02,0 0,4.97 0.04,0 0,4.97 0.04,0 0,4.97 0.04,0 0,4.98 0.04,-0.01 0,4.98 0.04,0 0,4.97 0.03,0 0,4.97 0.04,0 0,4.97 0.04,0 0,4.98 0.04,-0.01 0,4.98 0.04,0 0,4.97 0.02,0 0,4.97 0.04,0 0,4.97 0.05,0 0,4.97 0.04,0 0,4.97 0.04,0 0,4.98 0.04,0 0,4.97 0.02,0 0,4.97 0.04,0 0,4.97 0.04,0 0,4.97 0.05,0 0,4.98 0.03,0 0,4.97 0.03,0 0,4.97"
         style="fill:none;stroke:#000000;stroke-width:4.14326;stroke-linecap:round;stroke-linejoin:round;stroke-miterlimit:10;stroke-opacity:1;stroke-dasharray:none"
         id="path314"
         inkscape:connector-curvature="0" /><path
         d="m 4185.74,6226.76 0.04,0 0,4.97 0.04,0 0,4.97 0.04,0 0,4.98 0.04,-0.01 0,4.97 0.05,0 0,4.98 0.01,0 0,4.97 0.04,0 0,4.97 0.05,0 0,4.98 0.04,-0.01 0,4.97 0.04,0 0,4.98 0.02,0 0,4.97 0.04,0 0,4.97 0.04,0 0,4.97 0.04,0 0,4.97 0.05,0 0,4.98 0.04,0 0,4.97 0.02,-0.01 0,4.98 0.04,0 0,4.97 0.04,0 0,4.97 0.04,0 0,4.98 0.04,0 0,4.97 0.03,-0.01 0,4.98 0.04,0 0,4.97 0.04,0 0,4.97 0.04,0 0,4.97 0.04,0 0,4.97 0.04,0 0,4.98 0.02,0 0,4.97 0.05,0 0,4.97 0.04,0 0,4.97 0.04,0 0,4.97 0.04,0 0,4.98 0.02,0 0,4.97 0.04,0 0,4.97 0.04,0 0,4.97 0.05,0 0,4.97 0.03,0 0,4.97 0.05,0 0,4.98 0.02,-0.01 0,4.98 0.04,0 0,4.97 0.04,0 0,4.97 0.04,0 0,4.97 0.02,0 0,4.98 0.04,-0.01 0,4.98 0.02,0 0,4.97 0.05,0 0,4.97 0.02,0 0,4.97 0.04,0 0,4.97 0.02,0 0,4.98 0.04,0 0,4.97 0.02,0 0,4.97 0.04,0 0,4.97 0.02,0 0,4.97 0.04,0 0,4.97 0.03,0 0,4.98 0.04,0 0,4.97"
         style="fill:none;stroke:#000000;stroke-width:4.14326;stroke-linecap:round;stroke-linejoin:round;stroke-miterlimit:10;stroke-opacity:1;stroke-dasharray:none"
         id="path316"
         inkscape:connector-curvature="0" /><path
         d="m 4187.77,6505.18 0.02,0 0,4.97 0.04,0 0,4.97 0.02,0 0,4.97 0.04,0 0,4.98 0.02,-0.01 0,4.98 0.04,0 0,4.97 0.02,0 0,4.97 0.05,0 0,4.97 0.02,0 0,4.98 0.01,-0.01 0,4.97 0.05,0 0,4.98 0.02,0 0,4.97 0.04,0 0,4.97 0.02,0 0,4.97 0.04,0 0,4.97 0.02,0 0,4.98 0.03,0 0,4.97 0.02,0 0,4.97 0.01,0 0,4.97 0.05,0 0,4.97 0.02,0 0,4.98 0.02,0 0,4.97 0.02,-0.01 0,4.98 0.02,0 0,4.97 0.02,0 0,4.97 0.02,0 0,4.98 0.02,-0.01 0,4.97 0.02,0 0,4.98 0.04,0 0,4.97 0.02,0 0,4.97 0.02,0 0,4.97 0.03,0 0,4.97 0.02,0 0,4.98 0.02,0 0,4.97 0.02,0 0,4.97 0.02,0 0,4.97 0.02,0 0,4.97 0.04,0 0,4.98 0.02,0 0,4.97 0.02,-0.01 0,4.98 0.02,0 0,4.97 0.02,0 0,4.97 0.02,0 0,4.97 0.03,0 0,4.98 0.02,-0.01 0,4.98 0.02,0 0,4.97 0.04,0 0,4.97 0.02,0 0,4.97 0.02,0 0,4.97 0.02,0 0,4.98 0.02,0 0,4.97 0.02,0 0,4.97 0.02,0 0,4.97 0.02,0 0,4.97 0.02,0 0,4.98 0.03,0 0,4.97"
         style="fill:none;stroke:#000000;stroke-width:4.14326;stroke-linecap:round;stroke-linejoin:round;stroke-miterlimit:10;stroke-opacity:1;stroke-dasharray:none"
         id="path318"
         inkscape:connector-curvature="0" /><path
         d="m 4189.16,6783.6 0.04,0 0,4.97 0.01,0 0,4.97 0.03,0 0,4.97 0.02,0 0,4.97 0.02,0 0,4.98 0.02,-0.01 0,4.98 -0.1,0 0,4.97 0.01,0 0,9.94 0.11,0 0,4.98 -0.12,-0.01 0,4.98 0.04,0 0,4.97 -0.03,0 0,4.97 -0.03,0 0,4.97 0.12,0 0,9.94 -0.04,0 0,4.98 0.04,0 0,4.97 0.06,0 0,4.97 0.02,0 0,4.97 -0.04,0 0,4.97 0.21,0 0,4.98 -0.1,0 0,4.97 0.01,0 0,4.97 9.99,0 0,14.92 0,-0.01 0,44.75 0,0 0,19.89 0,-0.01 0,24.87 0,-0.01 0,19.89 0,0 0,19.89 0,0 0,14.92"
         style="fill:none;stroke:#000000;stroke-width:4.14326;stroke-linecap:round;stroke-linejoin:round;stroke-miterlimit:10;stroke-opacity:1;stroke-dasharray:none"
         id="path320"
         inkscape:connector-curvature="0" /><path
         d="m 4199.45,7062.02 0,89.49"
         style="fill:none;stroke:#000000;stroke-width:4.14326;stroke-linecap:round;stroke-linejoin:round;stroke-miterlimit:10;stroke-opacity:1;stroke-dasharray:none"
         id="path322"
         inkscape:connector-curvature="0" /><path
         d="m 4199.45,936.742 0,6214.888"
         style="fill:none;stroke:#000000;stroke-width:7.00004005;stroke-linecap:round;stroke-linejoin:round;stroke-miterlimit:10;stroke-opacity:1;stroke-dasharray:none"
         id="path324"
         inkscape:connector-curvature="0" /><path
         d="m 4199.45,1182.85 -41.43,0"
         style="fill:none;stroke:#000000;stroke-width:7.00004005;stroke-linecap:round;stroke-linejoin:round;stroke-miterlimit:10;stroke-opacity:1;stroke-dasharray:none"
         id="path326"
         inkscape:connector-curvature="0" /><path
         d="m 4199.45,1680.04 -41.43,0"
         style="fill:none;stroke:#000000;stroke-width:7.00004005;stroke-linecap:round;stroke-linejoin:round;stroke-miterlimit:10;stroke-opacity:1;stroke-dasharray:none"
         id="path328"
         inkscape:connector-curvature="0" /><path
         d="m 4199.45,2177.23 -41.43,0"
         style="fill:none;stroke:#000000;stroke-width:7.00004005;stroke-linecap:round;stroke-linejoin:round;stroke-miterlimit:10;stroke-opacity:1;stroke-dasharray:none"
         id="path330"
         inkscape:connector-curvature="0" /><path
         d="m 4199.45,2674.43 -41.43,0"
         style="fill:none;stroke:#000000;stroke-width:7.00004005;stroke-linecap:round;stroke-linejoin:round;stroke-miterlimit:10;stroke-opacity:1;stroke-dasharray:none"
         id="path332"
         inkscape:connector-curvature="0" /><path
         d="m 4199.45,3171.62 -41.43,0"
         style="fill:none;stroke:#000000;stroke-width:7.00004005;stroke-linecap:round;stroke-linejoin:round;stroke-miterlimit:10;stroke-opacity:1;stroke-dasharray:none"
         id="path334"
         inkscape:connector-curvature="0" /><path
         d="m 4199.45,3668.81 -41.43,0"
         style="fill:none;stroke:#000000;stroke-width:7.00004005;stroke-linecap:round;stroke-linejoin:round;stroke-miterlimit:10;stroke-opacity:1;stroke-dasharray:none"
         id="path336"
         inkscape:connector-curvature="0" /><path
         d="m 4199.45,4166 -41.43,0"
         style="fill:none;stroke:#000000;stroke-width:7.00004005;stroke-linecap:round;stroke-linejoin:round;stroke-miterlimit:10;stroke-opacity:1;stroke-dasharray:none"
         id="path338"
         inkscape:connector-curvature="0" /><path
         d="m 4199.45,4663.19 -41.43,0"
         style="fill:none;stroke:#000000;stroke-width:7.00004005;stroke-linecap:round;stroke-linejoin:round;stroke-miterlimit:10;stroke-opacity:1;stroke-dasharray:none"
         id="path340"
         inkscape:connector-curvature="0" /><path
         d="m 4199.45,5160.38 -41.43,0"
         style="fill:none;stroke:#000000;stroke-width:7.00004005;stroke-linecap:round;stroke-linejoin:round;stroke-miterlimit:10;stroke-opacity:1;stroke-dasharray:none"
         id="path342"
         inkscape:connector-curvature="0" /><path
         d="m 4199.45,5657.57 -41.43,0"
         style="fill:none;stroke:#000000;stroke-width:7.00004005;stroke-linecap:round;stroke-linejoin:round;stroke-miterlimit:10;stroke-opacity:1;stroke-dasharray:none"
         id="path344"
         inkscape:connector-curvature="0" /><path
         d="m 4199.45,6154.76 -41.43,0"
         style="fill:none;stroke:#000000;stroke-width:7.00004005;stroke-linecap:round;stroke-linejoin:round;stroke-miterlimit:10;stroke-opacity:1;stroke-dasharray:none"
         id="path346"
         inkscape:connector-curvature="0" /><path
         d="m 4199.45,6651.95 -41.43,0"
         style="fill:none;stroke:#000000;stroke-width:7.00004005;stroke-linecap:round;stroke-linejoin:round;stroke-miterlimit:10;stroke-opacity:1;stroke-dasharray:none"
         id="path348"
         inkscape:connector-curvature="0" /><path
         d="m 4199.45,7149.14 -41.43,0"
         style="fill:none;stroke:#000000;stroke-width:7.00004005;stroke-linecap:round;stroke-linejoin:round;stroke-miterlimit:10;stroke-opacity:1;stroke-dasharray:none"
         id="path350"
         inkscape:connector-curvature="0" /><path
         d="m 1713.5,936.742 0,6214.888"
         style="fill:none;stroke:#000000;stroke-width:7.00004005;stroke-linecap:round;stroke-linejoin:round;stroke-miterlimit:10;stroke-opacity:1;stroke-dasharray:none"
         id="path352"
         inkscape:connector-curvature="0" /><path
         d="m 1713.5,1182.85 41.43,0"
         style="fill:none;stroke:#000000;stroke-width:7.00004005;stroke-linecap:round;stroke-linejoin:round;stroke-miterlimit:10;stroke-opacity:1;stroke-dasharray:none"
         id="path354"
         inkscape:connector-curvature="0" /><path
         d="m 1713.5,1680.04 41.43,0"
         style="fill:none;stroke:#000000;stroke-width:7.00004005;stroke-linecap:round;stroke-linejoin:round;stroke-miterlimit:10;stroke-opacity:1;stroke-dasharray:none"
         id="path356"
         inkscape:connector-curvature="0" /><path
         d="m 1713.5,2177.23 41.43,0"
         style="fill:none;stroke:#000000;stroke-width:7.00004005;stroke-linecap:round;stroke-linejoin:round;stroke-miterlimit:10;stroke-opacity:1;stroke-dasharray:none"
         id="path358"
         inkscape:connector-curvature="0" /><path
         d="m 1713.5,2674.43 41.43,0"
         style="fill:none;stroke:#000000;stroke-width:7.00004005;stroke-linecap:round;stroke-linejoin:round;stroke-miterlimit:10;stroke-opacity:1;stroke-dasharray:none"
         id="path360"
         inkscape:connector-curvature="0" /><path
         d="m 1713.5,3171.62 41.43,0"
         style="fill:none;stroke:#000000;stroke-width:7.00004005;stroke-linecap:round;stroke-linejoin:round;stroke-miterlimit:10;stroke-opacity:1;stroke-dasharray:none"
         id="path362"
         inkscape:connector-curvature="0" /><path
         d="m 1713.5,3668.81 41.43,0"
         style="fill:none;stroke:#000000;stroke-width:7.00004005;stroke-linecap:round;stroke-linejoin:round;stroke-miterlimit:10;stroke-opacity:1;stroke-dasharray:none"
         id="path364"
         inkscape:connector-curvature="0" /><path
         d="m 1713.5,4166 41.43,0"
         style="fill:none;stroke:#000000;stroke-width:7.00004005;stroke-linecap:round;stroke-linejoin:round;stroke-miterlimit:10;stroke-opacity:1;stroke-dasharray:none"
         id="path366"
         inkscape:connector-curvature="0" /><path
         d="m 1713.5,4663.19 41.43,0"
         style="fill:none;stroke:#000000;stroke-width:7.00004005;stroke-linecap:round;stroke-linejoin:round;stroke-miterlimit:10;stroke-opacity:1;stroke-dasharray:none"
         id="path368"
         inkscape:connector-curvature="0" /><path
         d="m 1713.5,5160.38 41.43,0"
         style="fill:none;stroke:#000000;stroke-width:7.00004005;stroke-linecap:round;stroke-linejoin:round;stroke-miterlimit:10;stroke-opacity:1;stroke-dasharray:none"
         id="path370"
         inkscape:connector-curvature="0" /><path
         d="m 1713.5,5657.57 41.43,0"
         style="fill:none;stroke:#000000;stroke-width:7.00004005;stroke-linecap:round;stroke-linejoin:round;stroke-miterlimit:10;stroke-opacity:1;stroke-dasharray:none"
         id="path372"
         inkscape:connector-curvature="0" /><path
         d="m 1713.5,6154.76 41.43,0"
         style="fill:none;stroke:#000000;stroke-width:7.00004005;stroke-linecap:round;stroke-linejoin:round;stroke-miterlimit:10;stroke-opacity:1;stroke-dasharray:none"
         id="path374"
         inkscape:connector-curvature="0" /><path
         d="m 1713.5,6651.95 41.43,0"
         style="fill:none;stroke:#000000;stroke-width:7.00004005;stroke-linecap:round;stroke-linejoin:round;stroke-miterlimit:10;stroke-opacity:1;stroke-dasharray:none"
         id="path376"
         inkscape:connector-curvature="0" /><path
         d="m 1713.5,7149.14 41.43,0"
         style="fill:none;stroke:#000000;stroke-width:7.00004005;stroke-linecap:round;stroke-linejoin:round;stroke-miterlimit:10;stroke-opacity:1;stroke-dasharray:none"
         id="path378"
         inkscape:connector-curvature="0" /><path
         d="m 4199.45,936.742 -2485.95,0"
         style="fill:none;stroke:#000000;stroke-width:7.00004005;stroke-linecap:round;stroke-linejoin:round;stroke-miterlimit:10;stroke-opacity:1;stroke-dasharray:none"
         id="path380"
         inkscape:connector-curvature="0" /><path
         d="m 3844.38,936.742 0,41.434"
         style="fill:none;stroke:#000000;stroke-width:7.00004005;stroke-linecap:round;stroke-linejoin:round;stroke-miterlimit:10;stroke-opacity:1;stroke-dasharray:none"
         id="path382"
         inkscape:connector-curvature="0" /><path
         d="m 3489.09,936.742 0,41.434"
         style="fill:none;stroke:#000000;stroke-width:7.00004005;stroke-linecap:round;stroke-linejoin:round;stroke-miterlimit:10;stroke-opacity:1;stroke-dasharray:none"
         id="path384"
         inkscape:connector-curvature="0" /><path
         d="m 3134.01,936.742 0,41.434"
         style="fill:none;stroke:#000000;stroke-width:7.00004005;stroke-linecap:round;stroke-linejoin:round;stroke-miterlimit:10;stroke-opacity:1;stroke-dasharray:none"
         id="path386"
         inkscape:connector-curvature="0" /><path
         d="m 2778.93,936.742 0,41.434"
         style="fill:none;stroke:#000000;stroke-width:7.00004005;stroke-linecap:round;stroke-linejoin:round;stroke-miterlimit:10;stroke-opacity:1;stroke-dasharray:none"
         id="path388"
         inkscape:connector-curvature="0" /><path
         d="m 2423.86,936.742 0,41.434"
         style="fill:none;stroke:#000000;stroke-width:7.00004005;stroke-linecap:round;stroke-linejoin:round;stroke-miterlimit:10;stroke-opacity:1;stroke-dasharray:none"
         id="path390"
         inkscape:connector-curvature="0" /><path
         d="m 2068.57,936.742 0,41.434"
         style="fill:none;stroke:#000000;stroke-width:7.00004005;stroke-linecap:round;stroke-linejoin:round;stroke-miterlimit:10;stroke-opacity:1;stroke-dasharray:none"
         id="path392"
         inkscape:connector-curvature="0" /><path
         d="m 4199.45,7151.63 -2485.95,0"
         style="fill:none;stroke:#000000;stroke-width:7.00004005;stroke-linecap:round;stroke-linejoin:round;stroke-miterlimit:10;stroke-opacity:1;stroke-dasharray:none"
         id="path394"
         inkscape:connector-curvature="0" /><path
         d="m 3844.38,7151.63 0,-41.43"
         style="fill:none;stroke:#000000;stroke-width:7.00004005;stroke-linecap:round;stroke-linejoin:round;stroke-miterlimit:10;stroke-opacity:1;stroke-dasharray:none"
         id="path396"
         inkscape:connector-curvature="0" /><path
         d="m 3489.09,7151.63 0,-41.43"
         style="fill:none;stroke:#000000;stroke-width:7.00004005;stroke-linecap:round;stroke-linejoin:round;stroke-miterlimit:10;stroke-opacity:1;stroke-dasharray:none"
         id="path398"
         inkscape:connector-curvature="0" /><path
         d="m 3134.01,7151.63 0,-41.43"
         style="fill:none;stroke:#000000;stroke-width:7.00004005;stroke-linecap:round;stroke-linejoin:round;stroke-miterlimit:10;stroke-opacity:1;stroke-dasharray:none"
         id="path400"
         inkscape:connector-curvature="0" /><path
         d="m 2778.93,7151.63 0,-41.43"
         style="fill:none;stroke:#000000;stroke-width:7.00004005;stroke-linecap:round;stroke-linejoin:round;stroke-miterlimit:10;stroke-opacity:1;stroke-dasharray:none"
         id="path402"
         inkscape:connector-curvature="0" /><path
         d="m 2423.86,7151.63 0,-41.43"
         style="fill:none;stroke:#000000;stroke-width:7.00004005;stroke-linecap:round;stroke-linejoin:round;stroke-miterlimit:10;stroke-opacity:1;stroke-dasharray:none"
         id="path404"
         inkscape:connector-curvature="0" /><path
         d="m 2068.57,7151.63 0,-41.43"
         style="fill:none;stroke:#000000;stroke-width:7.00004005;stroke-linecap:round;stroke-linejoin:round;stroke-miterlimit:10;stroke-opacity:1;stroke-dasharray:none"
         id="path406"
         inkscape:connector-curvature="0" /></g></g></svg>